<?xml version="1.0" standalone="no"?><!DOCTYPE svg PUBLIC "-//W3C//DTD SVG 1.1//EN" "http://www.w3.org/Graphics/SVG/1.1/DTD/svg11.dtd"><svg t="1755432863013" class="icon" viewBox="0 0 1024 1024" version="1.1" xmlns="http://www.w3.org/2000/svg" p-id="2981" xmlns:xlink="http://www.w3.org/1999/xlink" width="200" height="200"><path d="M128.0512 314.7264m136.3456 0l504.6784 0q136.3456 0 136.3456 136.3456l0 288.2048q0 136.3456-136.3456 136.3456l-504.6784 0q-136.3456 0-136.3456-136.3456l0-288.2048q0-136.3456 136.3456-136.3456Z" fill="#D2F4FF" p-id="2982"></path><path d="M904.0384 414.3104c-9.3696-56.32-66.2016-99.584-134.9632-99.584H264.448C189.1328 314.7264 128 366.6432 128 430.7456v299.5712a539.4432 539.4432 0 0 0 185.1904 67.84c266.9568 46.336 527.36-100.2496 581.888-327.3728a368.64 368.64 0 0 0 8.96-56.4736z" fill="#D9F6FF" p-id="2983"></path><path d="M769.0752 314.7264H264.448C189.1328 314.7264 128 366.6432 128 430.7456v211.9168q12.9024 2.7648 26.0096 5.12c287.1808 49.8176 567.808-95.232 652.5952-328.4992a158.0544 158.0544 0 0 0-37.5296-4.5568z" fill="#E3F8FF" p-id="2984"></path><path d="M616.3456 314.7264H264.448C189.1328 314.7264 128 366.6432 128 430.7456v71.68c193.0752 12.1856 375.7568-61.5424 488.3456-187.6992z" fill="#EEFAFF" p-id="2985"></path><path d="M770.3552 285.0304h-0.256L567.808 138.24a84.0192 84.0192 0 0 0-100.7104 1.024L274.4832 285.0304h-11.3664a167.6288 167.6288 0 0 0-167.424 167.424v283.8528a167.6288 167.6288 0 0 0 167.424 167.424h507.2384a167.6288 167.6288 0 0 0 167.424-167.424V452.4544a167.6288 167.6288 0 0 0-167.424-167.424zM501.0944 183.9104a27.2896 27.2896 0 0 1 33.5872-0.3584l139.6224 101.4784H367.7184z m380.3648 552.3968a111.2064 111.2064 0 0 1-111.104 111.104H263.1168a111.2064 111.2064 0 0 1-111.104-111.104V452.4544a111.2064 111.2064 0 0 1 111.104-111.104h507.2384a111.2064 111.2064 0 0 1 111.104 111.104z" fill="#333333" p-id="2986"></path><path d="M724.8896 662.1696H309.0432a28.16 28.16 0 1 0 0 56.32h415.8464a28.16 28.16 0 0 0 0-56.32zM309.0432 532.9408h248.3712a28.16 28.16 0 0 0 0-56.32H309.0432a28.16 28.16 0 1 0 0 56.32z" fill="#333333" p-id="2987"></path></svg>