<?xml version="1.0" standalone="no"?><!DOCTYPE svg PUBLIC "-//W3C//DTD SVG 1.1//EN" "http://www.w3.org/Graphics/SVG/1.1/DTD/svg11.dtd"><svg t="1755432851226" class="icon" viewBox="0 0 1024 1024" version="1.1" xmlns="http://www.w3.org/2000/svg" p-id="2504" xmlns:xlink="http://www.w3.org/1999/xlink" width="200" height="200"><path d="M120.6784 171.2128m136.3456 0l534.3744 0q136.3456 0 136.3456 136.3456l0 401.3568q0 136.3456-136.3456 136.3456l-534.3744 0q-136.3456 0-136.3456-136.3456l0-401.3568q0-136.3456 136.3456-136.3456Z" fill="#FFEBD7" p-id="2505"></path><path d="M926.3104 290.9184a140.9024 140.9024 0 0 0-140.1344-119.7056H262.2464a140.4928 140.4928 0 0 0-141.568 139.4176V670.72a513.9968 513.9968 0 0 0 192.256 81.5616c277.1456 55.6544 547.84-120.4736 604.16-393.4208a501.76 501.76 0 0 0 9.216-67.9424z" fill="#FEF1E2" p-id="2506"></path><path d="M786.176 171.2128H262.2464a140.4928 140.4928 0 0 0-141.568 139.4176v254.6688q13.3632 3.328 26.9824 6.0928C445.7984 631.296 737.28 457.0112 825.1904 176.64a142.1824 142.1824 0 0 0-39.0144-5.4272z" fill="#FEF6ED" p-id="2507"></path><path d="M627.6096 171.2128H262.2464a140.4928 140.4928 0 0 0-141.568 139.4176v85.9136a586.3424 586.3424 0 0 0 506.9312-225.3312z" fill="#FEFAF5" p-id="2508"></path><path d="M765.3888 483.8912a193.28 193.28 0 1 0 193.28 193.28 193.536 193.536 0 0 0-193.28-193.28z m0 330.24a136.96 136.96 0 1 1 136.96-136.96A137.1648 137.1648 0 0 1 765.3888 814.08z" fill="#333333" p-id="2509"></path><path d="M552.3968 802.1504h-294.4a110.2336 110.2336 0 0 1-110.08-110.08V307.2a110.2336 110.2336 0 0 1 110.08-110.08H773.632A110.1824 110.1824 0 0 1 883.712 307.2v156.6208a28.16 28.16 0 0 0 56.32 0V307.2a166.6048 166.6048 0 0 0-166.4-166.4H257.9968A166.6048 166.6048 0 0 0 91.5968 307.2v384.8192a166.6048 166.6048 0 0 0 166.4 166.4h294.4a28.16 28.16 0 1 0 0-56.32z" fill="#333333" p-id="2510"></path><path d="M214.016 657.408a28.16 28.16 0 0 0 56.32 0 108.9024 108.9024 0 0 1 99.9424-108.3392c2.9184 0 5.888 0.3584 8.8576 0.3584s5.9904 0 8.9088-0.3584a108.9024 108.9024 0 0 1 99.9424 108.3392 28.16 28.16 0 0 0 56.32 0 165.12 165.12 0 0 0-80.6912-141.824 122.88 122.88 0 1 0-168.96 0 165.12 165.12 0 0 0-80.64 141.824z m98.816-230.656a66.56 66.56 0 1 1 74.752 65.7408h-16.8448A66.56 66.56 0 0 1 312.832 426.752zM613.376 368.64a28.16 28.16 0 0 0 0 56.32h175.616a28.16 28.16 0 0 0 0-56.32zM849.92 670.1056h-64.5632v-65.28a28.16 28.16 0 0 0-56.32 0v93.44a28.16 28.16 0 0 0 28.16 28.16H849.92a28.16 28.16 0 0 0 0-56.32z" fill="#333333" p-id="2511"></path></svg>