<?xml version="1.0" standalone="no"?><!DOCTYPE svg PUBLIC "-//W3C//DTD SVG 1.1//EN" "http://www.w3.org/Graphics/SVG/1.1/DTD/svg11.dtd"><svg t="1755432766135" class="icon" viewBox="0 0 1024 1024" version="1.1" xmlns="http://www.w3.org/2000/svg" p-id="1086" xmlns:xlink="http://www.w3.org/1999/xlink" width="200" height="200"><path d="M844.8 618.24c0 97.28-192.1024 218.4704-288.8704 273.3568a107.52 107.52 0 0 1-108.1344-1.024c-93.5424-55.5008-276.48-176.3328-276.48-272.3328V302.6944A88.32 88.32 0 0 1 227.584 220.16l250.368-96.768a88.2176 88.2176 0 0 1 64.1024 0L788.48 220.16a88.32 88.32 0 0 1 56.32 82.2272z" fill="#B3FFC7" p-id="1087"></path><path d="M782.7456 398.08a421.4784 421.4784 0 0 0-2.6112-181.1968l-238.08-93.3376a88.2176 88.2176 0 0 0-64.1024 0L227.584 220.16a88.32 88.32 0 0 0-56.32 82.3808v315.5456c0 28.3648 15.9744 58.88 40.96 89.2416a423.3216 423.3216 0 0 0 570.5216-309.248z" fill="#CCFFDA" p-id="1088"></path><path d="M542.0544 123.5456a88.2176 88.2176 0 0 0-64.1024 0L227.584 220.16a88.32 88.32 0 0 0-56.32 82.3808v278.5792a485.4272 485.4272 0 0 0 547.84-383.0784c0.3584-1.5872 0.6144-3.2256 0.9216-4.8128z" fill="#D9FFE6" p-id="1089"></path><path d="M599.04 145.9712l-57.1392-22.4256a88.2176 88.2176 0 0 0-64.1024 0L227.584 220.16a88.32 88.32 0 0 0-56.32 82.3808v128.512A482.3552 482.3552 0 0 0 599.04 145.9712z" fill="#E9FFF1" p-id="1090"></path><path d="M793.9584 208.5888l-241.5104-94.72a114.1248 114.1248 0 0 0-83.3024 0L223.744 208.6912a115.456 115.456 0 0 0-73.3184 106.9568v309.2992c0 103.6288 161.2288 219.2896 296.4992 298.0864a111.9744 111.9744 0 0 0 110.2336 1.1776c141.2096-78.5408 309.6064-194.2528 309.6064-299.264V315.392a114.0224 114.0224 0 0 0-72.8064-106.8032z m16.4864 416.3584c0 57.9584-107.52 153.6-280.6784 250.0608a55.2448 55.2448 0 0 1-54.4768-0.6656c-165.632-96.4608-268.544-192.0512-268.544-249.3952V315.648A58.7264 58.7264 0 0 1 244.0704 261.12L489.472 166.1952a58.2656 58.2656 0 0 1 42.3936 0L773.376 261.12a58.0608 58.0608 0 0 1 37.0688 54.3744z" fill="#333333" p-id="1091"></path><path d="M627.968 427.3664l-157.7984 161.1264-76.8-90.2656a28.16 28.16 0 1 0-42.9568 36.4032l96.512 113.8688a28.2112 28.2112 0 0 0 20.48 9.9328h0.9728a28.0064 28.0064 0 0 0 20.3776-8.192l179.456-183.1936a28.16 28.16 0 1 0-40.2432-39.424z" fill="#333333" p-id="1092"></path></svg>