<?xml version="1.0" standalone="no"?><!DOCTYPE svg PUBLIC "-//W3C//DTD SVG 1.1//EN" "http://www.w3.org/Graphics/SVG/1.1/DTD/svg11.dtd"><svg t="1755432811832" class="icon" viewBox="0 0 1024 1024" version="1.1" xmlns="http://www.w3.org/2000/svg" p-id="1871" xmlns:xlink="http://www.w3.org/1999/xlink" width="200" height="200"><path d="M727.808 674.1504l-116.6848 99.9936a161.8944 161.8944 0 0 1-199.0144-1.9456C382.2592 748.8 321.2288 691.2 296.96 668.3648c-109.3632 34.2016-159.3856 60.5696-159.3856 104.7552 0 62.976 173.312 127.0784 377.8048 127.0784S885.76 842.0352 885.76 779.0592c0-43.9296-39.9872-85.8624-157.952-104.9088z" fill="#D7ECFF" p-id="1872"></path><path d="M789.76 387.84c-6.8096-141.5168-121.344-256.7168-262.912-262.4512A274.688 274.688 0 0 0 240.64 399.8208c0 119.7056 96.768 216.2176 196.2496 305.2544a119.7056 119.7056 0 0 0 158.72 1.2288c108.2368-94.6176 200.2432-191.1808 194.1504-318.464zM412.1088 772.1984C382.2592 748.8 321.2288 691.2 296.96 668.3648c-109.3632 34.2016-159.3856 60.5696-159.3856 104.7552 0 22.9376 23.0912 46.08 62.208 66.0992 5.888 1.4336 11.8784 2.816 17.8688 4.0448a485.0176 485.0176 0 0 0 304.2816-36.3008 162.7648 162.7648 0 0 1-109.824-34.7648z" fill="#E0F0FF" p-id="1873"></path><path d="M718.848 233.3184c0.9728-4.6592 1.8432-9.3184 2.6624-13.9264A273.9712 273.9712 0 0 0 240.64 399.8208c0 92.6208 57.9584 171.3664 130.2528 243.456a557.6704 557.6704 0 0 0 347.9552-409.9584z" fill="#E9F4FF" p-id="1874"></path><path d="M595.9168 137.3696a268.544 268.544 0 0 0-69.0688-11.9808A274.688 274.688 0 0 0 240.64 399.8208a229.0688 229.0688 0 0 0 11.9808 72.3968 554.1376 554.1376 0 0 0 343.296-334.848z" fill="#F4F9FF" p-id="1875"></path><path d="M516.7616 914.2272c-189.8496 0-394.24-42.496-394.24-135.7312 0-50.3296 59.0336-89.7536 170.7008-114.0224a28.16 28.16 0 1 1 11.9808 54.9888c-94.5152 20.48-126.3616 49.152-126.3616 59.0336 0 7.6288 21.2992 29.696 87.04 49.0496 66.56 19.5584 155.6992 30.3616 250.88 30.3616s184.32-10.8032 250.88-30.3616c65.7408-19.3536 87.04-41.4208 87.04-49.0496 0-6.2464-19.6096-33.9968-115.6096-56.576a28.16 28.16 0 1 1 12.9024-54.8352c104.0384 24.4736 159.0272 63.0272 159.0272 111.4112-0.1536 93.2352-204.4416 135.7312-394.24 135.7312z" fill="#333333" p-id="1876"></path><path d="M518.2464 767.3856a142.4384 142.4384 0 0 1-94.9248-35.84c-105.8816-94.7712-209.408-198.0928-209.408-329.8304a302.8992 302.8992 0 0 1 315.4432-302.5408c155.0848 6.2976 282.4192 133.376 289.8432 289.28 6.9632 144.7936-98.4576 249.2928-207.0528 343.8592a142.7456 142.7456 0 0 1-93.9008 35.072z m-1.5872-612.1472a246.528 246.528 0 0 0-246.4256 246.4768c0 108.544 90.1632 197.9904 190.6176 287.5904a86.528 86.528 0 0 0 114.2784 0.5632c98.2016-85.5552 193.5872-179.2 187.8528-298.752-6.0928-127.0272-109.7216-230.4-235.9296-235.52-3.4816-0.3072-6.9632-0.3584-10.3936-0.3584z" fill="#333333" p-id="1877"></path><path d="M516.7616 550.7072a155.2384 155.2384 0 1 1 155.2384-155.2384 155.392 155.392 0 0 1-155.2384 155.2384z m0-254.1568a98.9184 98.9184 0 1 0 98.9184 98.9184 99.0208 99.0208 0 0 0-98.9184-98.9184z" fill="#333333" p-id="1878"></path></svg>