<?xml version="1.0" standalone="no"?><!DOCTYPE svg PUBLIC "-//W3C//DTD SVG 1.1//EN" "http://www.w3.org/Graphics/SVG/1.1/DTD/svg11.dtd"><svg t="1755432981506" class="icon" viewBox="0 0 1024 1024" version="1.1" xmlns="http://www.w3.org/2000/svg" p-id="3454" xmlns:xlink="http://www.w3.org/1999/xlink" width="200" height="200"><path d="M895.3344 872.6528L890.88 829.44c-12.8512-130.9184-117.76-235.52-253.952-263.5776 41.7792-51.2 70.3488-120.4736 76.3392-178.0736h17.3056A11.6224 11.6224 0 0 0 742.4 376.32v-42.0864a54.4256 54.4256 0 0 0-20.1216-40.0384 31.5392 31.5392 0 0 0-17.3056-9.8304c-25.2928-106.9568-98.8672-174.08-186.88-178.3296h-16.896c-88.0128 4.0448-161.6384 71.3728-186.9312 178.3296A31.6928 31.6928 0 0 0 296.96 294.1952a54.528 54.528 0 0 0-20.0704 40.0384v42.0864a11.6224 11.6224 0 0 0 11.8272 11.4688h17.1008a340.224 340.224 0 0 0 73.4208 178.6368c-136.2432 28.928-240.64 135.168-252.0064 267.0592l-3.328 39.5776c-1.5872 18.2784 14.2848 33.8432 34.4576 33.8432h702.5664c20.3264 0 36.2496-16.0256 34.4064-34.2528z" fill="#FFE8D4" p-id="3455"></path><path d="M144.7424 757.76a451.8912 451.8912 0 0 0 609.8432-144.0768 343.04 343.04 0 0 0-117.76-47.872c41.7792-51.2 70.3488-120.4736 76.288-178.0736h17.3568A11.6224 11.6224 0 0 0 742.4 376.32v-42.0864a54.4256 54.4256 0 0 0-20.1216-40.0384 31.5392 31.5392 0 0 0-17.3056-9.8304c-25.2928-106.9568-98.8672-174.08-186.88-178.3296h-16.896c-88.0128 4.0448-161.6384 71.3728-186.9312 178.3296A31.6928 31.6928 0 0 0 296.96 294.1952a54.528 54.528 0 0 0-20.0704 40.0384v42.0864a11.6224 11.6224 0 0 0 11.8272 11.4688h17.1008a340.224 340.224 0 0 0 73.4208 178.6368c-108.9536 23.1424-197.632 95.744-234.496 191.3344z" fill="#FFF0E1" p-id="3456"></path><path d="M733.184 306.176a48.1792 48.1792 0 0 0-10.9056-11.9808 31.5392 31.5392 0 0 0-17.3056-9.8304c-25.2928-106.9568-98.8672-174.08-186.88-178.3296h-16.896c-88.0128 4.0448-161.6384 71.3728-186.9312 178.3296A31.6928 31.6928 0 0 0 296.96 294.1952a54.528 54.528 0 0 0-20.0704 40.0384v42.0864a11.6224 11.6224 0 0 0 11.8272 11.4688h17.1008a340.224 340.224 0 0 0 73.4208 178.6368 335.7184 335.7184 0 0 0-170.752 92.7232A517.5296 517.5296 0 0 0 733.184 306.176z" fill="#FFF3E9" p-id="3457"></path><path d="M635.392 156.928a181.1968 181.1968 0 0 0-117.2992-50.8928h-16.896c-88.0128 4.0448-161.6384 71.3728-186.9312 178.3296A31.6928 31.6928 0 0 0 296.96 294.1952a54.528 54.528 0 0 0-20.0704 40.0384v42.0864a11.6224 11.6224 0 0 0 11.8272 11.4688h17.1008A316.1088 316.1088 0 0 0 323.2256 465.92a513.4336 513.4336 0 0 0 312.1664-308.992z" fill="#FEFAF5" p-id="3458"></path><path d="M512.5632 654.7968c-112.64 0-203.6736-125.0304-224.0512-246.1184a39.5264 39.5264 0 0 1-31.5904-38.5536v-40.96c0-26.624 16.2816-55.7056 40.448-67.584 31.0272-112.2304 114.0224-183.7568 215.04-183.7568s184.32 71.68 215.04 183.7568c24.2176 11.8784 40.448 40.96 40.448 67.584v40.96a39.5264 39.5264 0 0 1-32.3072 38.7072c-20.9408 109.9264-108.544 245.9648-223.0272 245.9648zM313.2416 353.28a28.2112 28.2112 0 0 1 28.0576 25.6c8.7552 101.5296 85.4528 219.5456 171.1104 219.5456s161.7408-131.4304 170.9568-220.16A28.16 28.16 0 0 1 711.68 353.28v-24.2688a25.6 25.6 0 0 0-8.448-16.6912 28.2624 28.2624 0 0 1-26.368-22.016c-21.1968-94.8736-85.7088-156.2112-164.3008-156.2112s-143.36 61.44-164.352 156.2112a28.1088 28.1088 0 0 1-26.3168 22.016 25.2416 25.2416 0 0 0-8.6528 16.7936z m391.1168-40.96z" fill="#333333" p-id="3459"></path><path d="M926.3104 869.888l-4.3008-43.1104c-12.9536-130.048-110.592-240.0768-243.4048-280.1664a390.8608 390.8608 0 0 0 57.2416-137.7792 39.5264 39.5264 0 0 0 32.1536-38.7072v-40.96c0-26.624-16.2304-55.7056-40.448-67.584-30.72-112.2304-114.0224-183.7568-215.04-183.7568s-184.32 71.68-215.04 183.7568c-24.1664 11.8784-40.448 40.96-40.448 67.584v40.96a39.5264 39.5264 0 0 0 31.5904 38.5536 364.032 364.032 0 0 0 55.04 138.6496c-133.4784 40.96-230.4 152.6272-241.5616 283.8016l-3.3792 39.5776a57.344 57.344 0 0 0 15.36 43.9808 64.3072 64.3072 0 0 0 47.3088 20.48h702.464a64.1536 64.1536 0 0 0 47.5648-20.48 57.3952 57.3952 0 0 0 14.8992-44.8z m-360.0896-288.0512c-1.9968 1.2288-4.0448 2.4064-6.0416 3.5328l-2.1504 1.1264-5.12 2.4576-2.56 1.1264-4.7616 1.9456-2.6624 0.9728-5.12 1.5872-2.6112 0.768c-1.6896 0.4608-3.3792 0.8192-5.12 1.1776l-2.5088 0.512c-1.8432 0.3584-3.6864 0.5632-5.5808 0.8192h-2.1504c-2.6112 0.256-5.12 0.3584-7.7824 0.3584a109.4144 109.4144 0 0 1-54.2208-15.36c-2.304-1.3312-4.5568-2.7136-6.8608-4.1984L450.56 578.56c-2.304-1.4848-4.5568-3.0208-6.7584-4.6592h-0.3072c-2.2528-1.6896-4.5056-3.4304-6.7072-5.12l-1.536-1.28-4.5056-3.84-2.6624-2.4064-3.1232-3.6864-2.7136-2.6112c-1.6384-1.6384-3.2768-3.328-5.12-5.12l-2.4576-2.6624A302.08 302.08 0 0 1 349.184 422.8608a27.904 27.904 0 0 0 14.4384 4.0448h296.448a28.0064 28.0064 0 0 0 14.336-3.9936c-17.9712 60.928-58.3168 128-107.52 158.4128zM313.2416 329.0112A25.2416 25.2416 0 0 1 321.8944 312.32 28.1088 28.1088 0 0 0 348.16 290.2016a230.8608 230.8608 0 0 1 48.0256-100.2496l17.7152 89.3952A28.16 28.16 0 0 0 441.4976 302.08a28.8768 28.8768 0 0 0 5.5296-0.512 28.16 28.16 0 0 0 22.1184-33.1264l-23.4496-118.272a146.1248 146.1248 0 0 1 136.7552 1.6384l-23.808 116.4288a28.16 28.16 0 0 0 21.9136 33.2288 27.0848 27.0848 0 0 0 5.6832 0.5632 28.1088 28.1088 0 0 0 27.5456-22.528l17.7152-86.528a232.3456 232.3456 0 0 1 45.3632 97.28 28.2624 28.2624 0 0 0 26.368 22.016 25.6 25.6 0 0 1 8.448 16.7424V353.28h-38.5024a28.1088 28.1088 0 0 0-22.3232 11.0592l-5.12 6.3488h-268.8L371.0464 363.52a28.3136 28.3136 0 0 0-21.76-10.24h-35.84zM869.6832 876.544a7.8848 7.8848 0 0 1-5.8368 2.2016H161.28a7.8336 7.8336 0 0 1-5.8368-2.1504 2.2016 2.2016 0 0 1-0.6144-1.1264l3.3792-39.5776c9.7792-115.2512 101.1712-212.4288 224.4608-240.64 5.12 5.12 10.6496 10.24 16.1792 14.7456a188.416 188.416 0 0 0 82.432 41.5232h1.28c2.7136 0.512 5.376 0.9728 8.0896 1.3824l2.4064 0.3584q3.6864 0.4608 7.3728 0.768h2.56c3.2768 0 6.5024 0.3072 9.7792 0.3072s6.3488 0 9.5232-0.3584q1.7408 0 3.5328-0.3072c1.9456 0 3.84-0.3584 5.7344-0.6144l4.5568-0.6656 4.1472-0.768c37.2224-7.168 70.9632-28.416 99.7376-57.4976 122.88 27.4432 215.04 123.3408 226.1504 237.7728L870.4 875.52c0 0.3072-0.512 0.768-0.7168 1.024z" fill="#333333" p-id="3460"></path></svg>