<?xml version="1.0" standalone="no"?><!DOCTYPE svg PUBLIC "-//W3C//DTD SVG 1.1//EN" "http://www.w3.org/Graphics/SVG/1.1/DTD/svg11.dtd"><svg t="1755432780737" class="icon" viewBox="0 0 1024 1024" version="1.1" xmlns="http://www.w3.org/2000/svg" p-id="1557" xmlns:xlink="http://www.w3.org/1999/xlink" width="200" height="200"><path d="M923.4432 602.112a63.2832 63.2832 0 0 0-76.8-29.5424l-178.7904 60.2624c-3.1232 15.7696-4.2496-13.0048-4.2496-13.0048-12.288-8.3456-46.7968-29.2352-87.6032-53.4016l51.8656 29.6448c287.5904-159.8464 248.2176-335.4112 199.3216-386.6624-41.3184-43.3152-139.1104-99.4816-243.0976 11.3152 0 0-97.9968-121.0368-221.4912-33.1776-44.8512 30.72-94.9248 128.7168-27.4944 241.3056L394.24 462.4896a204.032 204.032 0 0 0-201.6768 21.1968l-83.9168 60.4672a26.7776 26.7776 0 0 0-11.1104 21.7088v198.0928a26.7264 26.7264 0 0 0 31.5392 26.3168l74.7008-13.5168a131.6864 131.6864 0 0 1 64.6144 4.5056l209.4592 69.0688a243.456 243.456 0 0 0 211.3024-28.7744l212.736-136.0896a63.2832 63.2832 0 0 0 21.5552-83.3536z" fill="#F9D9CB" p-id="1558"></path><path d="M663.6032 619.8272c-12.288-8.3456-46.7968-29.2352-87.6032-53.4016l51.8656 29.6448c63.5904-35.328 111.1552-71.68 146.176-106.752a426.5984 426.5984 0 0 0 30.72-92.9792 421.888 421.888 0 0 0-12.0832-215.04c-49.7152-31.5392-127.1808-46.8992-208.384 39.68 0 0-97.9968-121.0368-221.4912-33.1776-44.8512 30.72-94.9248 128.7168-27.4944 241.3056L394.24 462.4896a204.032 204.032 0 0 0-201.6768 21.1968l-83.9168 60.4672a26.7776 26.7776 0 0 0-11.1104 21.7088v54.5792a424.2432 424.2432 0 0 0 567.2448 13.312c-0.8192-5.1712-1.1776-13.9264-1.1776-13.9264z" fill="#FBE4DB" p-id="1559"></path><path d="M166.8096 575.2832a486.4 486.4 0 0 0 573.696-379.2896c2.4064-11.776 4.3008-23.552 5.8368-35.328-46.08-11.9296-103.0656-3.0208-162.2528 60.0576 0 0-97.9968-121.0368-221.4912-33.1776-44.8512 30.72-94.9248 128.7168-27.4944 241.3056L394.24 462.4896a204.032 204.032 0 0 0-201.6768 21.1968l-83.9168 60.4672a26.5216 26.5216 0 0 0-9.3696 12.2368 484.7104 484.7104 0 0 0 67.5328 18.8928z" fill="#FCEDE8" p-id="1560"></path><path d="M580.352 216.4736c-18.8928-20.48-108.288-106.8032-217.7536-28.928-41.984 28.6208-88.576 116.5824-38.912 220.16a484.1984 484.1984 0 0 0 256.6656-191.232z" fill="#FEF6F3" p-id="1561"></path><path d="M948.224 588.8a90.8288 90.8288 0 0 0-110.5408-42.8544l-155.8016 52.48-1.1264-0.8192c151.552-94.6688 196.352-190.8224 206.3872-256.9216 10.5472-69.4784-13.5168-123.3408-39.5776-150.6816C829.7472 171.264 780.9024 128 711.68 128h-0.6656c-44.1856 0-86.4768 17.92-126.0544 52.8896-49.152-44.1856-140.2368-85.9648-238.2336-16.384-53.9648 36.9664-102.0416 139.8272-49.2032 253.0816A232.0384 232.0384 0 0 0 175.9232 460.8L92.16 521.3184a54.9888 54.9888 0 0 0-22.784 44.544v198.0928a54.8864 54.8864 0 0 0 64.7168 54.0672l74.7008-13.5168a103.5776 103.5776 0 0 1 50.7904 3.5328l209.4592 69.0176a270.1312 270.1312 0 0 0 235.52-31.9488l212.48-135.936A91.7504 91.7504 0 0 0 948.224 588.8zM378.4704 210.7904l0.4608-0.3072c41.6768-29.6448 84.3776-34.6112 126.9248-14.6944a179.712 179.712 0 0 1 56.32 42.6496 28.3136 28.3136 0 0 0 20.8384 10.24 27.8528 27.8528 0 0 0 21.6064-8.8576C639.1808 203.1616 674.9696 184.32 711.0144 184.32h0.6656c48.9984 0 85.3504 34.0992 95.3344 44.5952 17.3568 18.1248 31.6928 57.1392 24.6784 103.2704-8.7552 57.4976-51.6096 143.7184-204.3904 231.9872-61.44-37.0688-156.672-92.16-201.3696-117.3504a230.7072 230.7072 0 0 0-63.2832-24.1664 26.6752 26.6752 0 0 0-3.1744-8.2432c-60.8256-101.2224-12.3904-182.1696 18.9952-203.6224z m508.2112 450.9696l-212.736 136.0896-0.4608 0.3072a213.7088 213.7088 0 0 1-186.8288 25.6l-209.408-69.0176a161.3824 161.3824 0 0 0-78.4896-5.4784l-73.0624 13.2096v-195.8912L208.896 506.5216a176.4352 176.4352 0 0 1 189.44-10.6496c60.8768 34.2528 193.5872 111.7696 238.6944 140.1344a59.8016 59.8016 0 0 1-21.9648 21.1456c-9.1648 5.376-23.552 7.9872-43.9808 7.9872a130.6112 130.6112 0 0 1-47.8208-10.24l-1.0752-0.4608c-57.1904-27.392-105.1648-52.3776-110.592-55.1936a28.16 28.16 0 1 0-25.9072 50.0224c5.12 2.7648 54.3744 28.2624 112.64 56.32l0.8192 0.3584 1.9456 0.8704 0.9216 0.4096a187.904 187.904 0 0 0 69.12 14.2848c31.1808 0 54.2208-5.12 72.4992-15.7184a112.0256 112.0256 0 0 0 46.8992-50.7392L856.064 599.04a35.1232 35.1232 0 0 1 30.72 62.6688z" fill="#333333" p-id="1562"></path></svg>