<?xml version="1.0" standalone="no"?><!DOCTYPE svg PUBLIC "-//W3C//DTD SVG 1.1//EN" "http://www.w3.org/Graphics/SVG/1.1/DTD/svg11.dtd"><svg t="1755432818543" class="icon" viewBox="0 0 1024 1024" version="1.1" xmlns="http://www.w3.org/2000/svg" p-id="2188" xmlns:xlink="http://www.w3.org/1999/xlink" width="200" height="200"><path d="M440.832 179.968L188.16 408.1664v394.496c0 25.344 52.5824 81.664 79.5648 81.664h117.76a57.4464 57.4464 0 0 0 57.3952-57.3952V650.24h137.4208v176.5376a57.3952 57.3952 0 0 0 57.4464 57.3952h107.52c26.9824 0 89.8048-56.32 89.8048-81.664V406.9376l-252.6208-227.1232a105.728 105.728 0 0 0-141.6192 0.1536z" fill="#FEF6F3" p-id="2189"></path><path d="M616.448 210.3808A410.5216 410.5216 0 0 1 188.16 440.32v362.3936c0 25.344 57.7024 81.664 84.6848 81.664h112.64a57.4464 57.4464 0 0 0 57.3952-57.4464V650.24h137.4208v176.5376a57.3952 57.3952 0 0 0 57.4464 57.3952h107.52c26.9824 0 89.8048-87.04 89.8048-112.384V406.9376z" fill="#FCEDE8" p-id="2190"></path><path d="M749.1584 329.728a410.2656 410.2656 0 0 1-560.9984 252.5696v194.56c0 25.344 67.9424 107.264 94.9248 107.264h457.0112c26.9824 0 94.9248-61.44 94.9248-86.784V406.9376z" fill="#FBE4DB" p-id="2191"></path><path d="M580.3008 772.5568c-51.2 15.36-137.4208 15.0016-137.4208 15.0016a414.72 414.72 0 0 1-57.1392-7.4752 408.32 408.32 0 0 1-197.5808-101.6832v119.1424c0 25.344 47.4624 86.784 74.4448 86.784h492.8512c26.9824 0 79.5648-40.96 79.5648-66.304v-256.9216c-51.6608 104.0384-140.544 176.1792-254.72 211.456z" fill="#F9D9CB" p-id="2192"></path><path d="M935.7312 440.32l-107.52-96.6656V192.3584a28.16 28.16 0 1 0-56.32 0v100.8128l-171.6224-154.112a133.4784 133.4784 0 0 0-179.6608 0.6656L91.0336 440.0128a28.16 28.16 0 0 0 37.9392 41.6256l329.5232-300.288a77.2608 77.2608 0 0 1 104.0896-0.3584l335.5136 301.312a28.16 28.16 0 1 0 37.632-41.984z" fill="#333333" p-id="2193"></path><path d="M566.5792 249.7024a81.92 81.92 0 0 0-109.9776 0L189.44 491.52a88.8832 88.8832 0 0 0-29.2352 65.8432V752.64a160.256 160.256 0 0 0 160.1024 160.1024h382.976A160.256 160.256 0 0 0 863.1808 752.64v-196.6592a88.7296 88.7296 0 0 0-29.3888-65.9456zM806.8608 752.64a103.8848 103.8848 0 0 1-103.7824 103.7824h-382.976A103.8848 103.8848 0 0 1 216.32 752.64v-195.4816a32.3584 32.3584 0 0 1 10.6496-24.0128L494.3872 291.84a25.6 25.6 0 0 1 34.5088 0l267.2128 240.3328a32.2048 32.2048 0 0 1 10.752 24.064z" fill="#333333" p-id="2194"></path><path d="M426.1376 541.7984H333.6192a42.9568 42.9568 0 0 0-42.9056 42.9568v64.768a43.008 43.008 0 0 0 42.9056 42.9568h92.5184a43.008 43.008 0 0 0 42.9056-42.9568v-64.768a42.9568 42.9568 0 0 0-42.9056-42.9568z m-8.2944 99.4816H341.9136v-48.2816h75.9296zM670.4128 541.7984h-75.008a58.3168 58.3168 0 0 0-58.2656 58.3168v184.7296a25.6 25.6 0 0 0 51.2 0v-184.7296a7.0656 7.0656 0 0 1 7.0656-7.1168h75.008a7.1168 7.1168 0 0 1 7.1168 7.1168v184.7296a25.6 25.6 0 0 0 51.2 0v-184.7296a58.368 58.368 0 0 0-58.3168-58.3168z" fill="#333333" p-id="2195"></path></svg>