<?xml version="1.0" standalone="no"?><!DOCTYPE svg PUBLIC "-//W3C//DTD SVG 1.1//EN" "http://www.w3.org/Graphics/SVG/1.1/DTD/svg11.dtd"><svg t="1755432920089" class="icon" viewBox="0 0 1024 1024" version="1.1" xmlns="http://www.w3.org/2000/svg" p-id="3298" xmlns:xlink="http://www.w3.org/1999/xlink" width="200" height="200"><path d="M510.5664 290.8672a262.912 262.912 0 0 1 262.912 262.912V885.76H247.6544v-331.9808a262.912 262.912 0 0 1 262.912-262.912z" fill="#FFCFCF" p-id="3299"></path><path d="M510.5664 290.8672a262.912 262.912 0 0 0-262.912 262.912v274.0736a384 384 0 0 0 504.2688-285.5424 388.0448 388.0448 0 0 0 7.7312-72.6528 263.0144 263.0144 0 0 0-249.088-178.7904z" fill="#FCDCDB" p-id="3300"></path><path d="M247.6544 553.7792v159.1808a440.32 440.32 0 0 0 445.44-348.16 262.0928 262.0928 0 0 0-182.528-73.9328 262.912 262.912 0 0 0-262.912 262.912z" fill="#FDE7E6" p-id="3301"></path><path d="M247.6544 553.7792V568.32a437.4016 437.4016 0 0 0 342.3744-265.216 262.9632 262.9632 0 0 0-79.4624-12.2368 262.912 262.912 0 0 0-262.912 262.912z" fill="#FEF6F4" p-id="3302"></path><path d="M853.76 857.4976h-52.1216v-303.7184a291.072 291.072 0 0 0-582.144 0v303.7184h-41.984a28.16 28.16 0 1 0 0 56.32h676.2496a28.16 28.16 0 0 0 0-56.32z m-577.9456 0v-303.7184a234.752 234.752 0 0 1 469.504 0v303.7184zM202.5984 314.9312a28.16 28.16 0 1 0 38.656-40.96l-51.2-48.128a28.16 28.16 0 0 0-38.656 40.96zM792.0128 322.56a28.1088 28.1088 0 0 0 19.3024-7.68l51.2-48.0768a28.16 28.16 0 0 0-38.6048-40.96l-51.2 48.128a28.16 28.16 0 0 0 19.3024 48.64zM506.88 233.472a28.16 28.16 0 0 0 28.16-28.16V127.4368a28.16 28.16 0 0 0-56.32 0V205.312a28.16 28.16 0 0 0 28.16 28.16z" fill="#333333" p-id="3303"></path><path d="M606.6688 577.8432H487.5264l67.6864-66.56a28.16 28.16 0 1 0-39.424-40.192L398.848 585.8816a28.16 28.16 0 0 0 19.712 48.2816h122.88l-75.1104 79.9232a28.16 28.16 0 0 0 40.96 38.6048l119.8592-127.4368a28.1088 28.1088 0 0 0-20.48-47.4112z" fill="#333333" p-id="3304"></path></svg>