<?xml version="1.0" standalone="no"?><!DOCTYPE svg PUBLIC "-//W3C//DTD SVG 1.1//EN" "http://www.w3.org/Graphics/SVG/1.1/DTD/svg11.dtd"><svg t="1755432860528" class="icon" viewBox="0 0 1024 1024" version="1.1" xmlns="http://www.w3.org/2000/svg" p-id="2821" xmlns:xlink="http://www.w3.org/1999/xlink" width="200" height="200"><path d="M152.832 169.8816m67.5328 0l160.8192 0q67.5328 0 67.5328 67.5328l0 160.8192q0 67.5328-67.5328 67.5328l-160.8192 0q-67.5328 0-67.5328-67.5328l0-160.8192q0-67.5328 67.5328-67.5328Z" fill="#E9F4FF" p-id="2822"></path><path d="M154.3168 578.7648m67.5328 0l160.8192 0q67.5328 0 67.5328 67.5328l0 160.8192q0 67.5328-67.5328 67.5328l-160.8192 0q-67.5328 0-67.5328-67.5328l0-160.8192q0-67.5328 67.5328-67.5328Z" fill="#E0F0FF" p-id="2823"></path><path d="M567.6032 578.7648m67.5328 0l160.8192 0q67.5328 0 67.5328 67.5328l0 160.8192q0 67.5328-67.5328 67.5328l-160.8192 0q-67.5328 0-67.5328-67.5328l0-160.8192q0-67.5328 67.5328-67.5328Z" fill="#D7ECFF" p-id="2824"></path><path d="M520.590525 317.806519m47.7529-47.752901l100.320916-100.320916q47.752901-47.752901 95.505802 0l100.320916 100.320916q47.752901 47.752901 0 95.505802l-100.320916 100.320916q-47.752901 47.752901-95.505802 0l-100.320916-100.320916q-47.752901-47.752901 0-95.505802Z" fill="#E0F0FF" p-id="2825"></path><path d="M365.3632 578.56H239.1552a84.8384 84.8384 0 0 0-84.8384 84.8384v24.064a644.1472 644.1472 0 0 0 268.3392-86.528A84.3776 84.3776 0 0 0 365.3632 578.56zM656.384 182.016l-75.776 75.8272a84.7872 84.7872 0 0 0 0 120.0128l48.7936 48.8448a641.8432 641.8432 0 0 0 142.336-248.9344 84.8896 84.8896 0 0 0-115.3536 4.2496z" fill="#E9F4FF" p-id="2826"></path><path d="M363.8784 169.8816H237.6704a84.8384 84.8384 0 0 0-84.8384 84.8896V380.928a84.8896 84.8896 0 0 0 3.4304 23.552A644.2496 644.2496 0 0 0 445.44 231.0144a84.8384 84.8384 0 0 0-81.5616-61.1328z" fill="#F4F9FF" p-id="2827"></path><path d="M778.5984 578.56h-126.1568a84.8384 84.8384 0 0 0-84.8384 84.8384v126.1568a84.6336 84.6336 0 0 0 9.2672 38.5024 532.48 532.48 0 0 0 246.5792-236.6464 84.7872 84.7872 0 0 0-44.8512-12.8512z" fill="#E0F0FF" p-id="2828"></path><path d="M365.2608 494.7968h-118.784A117.76 117.76 0 0 1 129.024 377.344V258.56a117.76 117.76 0 0 1 117.4528-117.504h118.784a117.76 117.76 0 0 1 117.76 117.76V377.344a117.76 117.76 0 0 1-117.76 117.4528z m-118.784-297.4208a61.44 61.44 0 0 0-61.1328 61.44V377.344a61.44 61.44 0 0 0 61.1328 61.1328h118.784a61.44 61.44 0 0 0 61.44-61.1328V258.56a61.44 61.44 0 0 0-61.44-61.44zM365.2608 903.5776h-118.784a117.76 117.76 0 0 1-117.4528-117.4528v-118.8352a117.76 117.76 0 0 1 117.4528-117.4528h118.784a117.76 117.76 0 0 1 117.76 117.4528v118.8352a117.76 117.76 0 0 1-117.76 117.4528z m-118.784-297.4208a61.44 61.44 0 0 0-61.1328 61.1328v118.8352a61.44 61.44 0 0 0 61.1328 61.1328h118.784a61.44 61.44 0 0 0 61.44-61.1328v-118.8352a61.44 61.44 0 0 0-61.44-61.1328zM775.7312 903.5776H656.896a117.76 117.76 0 0 1-117.4528-117.4528v-118.8352a117.76 117.76 0 0 1 117.4528-117.4528h118.8352a117.76 117.76 0 0 1 117.4528 117.4528v118.8352a117.76 117.76 0 0 1-117.4528 117.4528z m-118.8352-297.4208a61.44 61.44 0 0 0-61.1328 61.1328v118.8352a61.44 61.44 0 0 0 61.1328 61.1328h118.8352a61.44 61.44 0 0 0 61.1328-61.1328v-118.8352a61.44 61.44 0 0 0-61.1328-61.1328zM716.288 505.9584a116.6848 116.6848 0 0 1-83.0464-34.4064L562.688 400.9984a117.4528 117.4528 0 0 1 0-166.0928l70.5536-70.5536a117.504 117.504 0 0 1 166.144 0l70.5024 70.5536a117.4528 117.4528 0 0 1 0 166.0928L799.3856 471.552a116.8896 116.8896 0 0 1-83.0976 34.4064z m0-319.6928a60.928 60.928 0 0 0-43.2128 17.92l-70.5536 70.5024a61.44 61.44 0 0 0 0 86.4768l70.5536 70.5536a61.44 61.44 0 0 0 86.4768 0l70.5536-70.5536a61.44 61.44 0 0 0 0-86.4768l-70.5536-70.5024a61.0304 61.0304 0 0 0-43.264-17.92z" fill="#333333" p-id="2829"></path></svg>