<?xml version="1.0" standalone="no"?><!DOCTYPE svg PUBLIC "-//W3C//DTD SVG 1.1//EN" "http://www.w3.org/Graphics/SVG/1.1/DTD/svg11.dtd"><svg t="1755432854462" class="icon" viewBox="0 0 1024 1024" version="1.1" xmlns="http://www.w3.org/2000/svg" p-id="2663" xmlns:xlink="http://www.w3.org/1999/xlink" width="200" height="200"><path d="M295.936 150.784A154.4192 154.4192 0 0 1 450.56 305.152v131.5328a22.8864 22.8864 0 0 1-22.8864 22.8864H295.936A154.4192 154.4192 0 0 1 141.5168 305.152 154.4192 154.4192 0 0 1 295.936 150.784z" fill="#D9FFE6" p-id="2664"></path><path d="M141.568 722.3296a154.4192 154.4192 0 0 1 154.368-154.624h131.4816a22.8864 22.8864 0 0 1 22.8864 22.8864v131.7376a154.4192 154.4192 0 0 1-154.4192 154.4192 154.4192 154.4192 0 0 1-154.3168-154.4192zM713.7792 876.7488a154.4192 154.4192 0 0 1-154.4192-154.4192V590.848a22.8864 22.8864 0 0 1 22.8864-22.8864h131.5328a154.4192 154.4192 0 0 1 154.4192 154.4192 154.4192 154.4192 0 0 1-154.4192 154.4192z" fill="#B3FFC7" p-id="2665"></path><path d="M868.1984 305.2032a154.4192 154.4192 0 0 1-154.368 154.368h-131.5328a22.8864 22.8864 0 0 1-22.8864-22.8864V305.2032a154.4192 154.4192 0 0 1 154.4192-154.4192 154.4192 154.4192 0 0 1 154.4192 154.4192zM764.3136 576.4608a154.0608 154.0608 0 0 0-50.4832-8.4992h-131.5328a22.8864 22.8864 0 0 0-22.8864 22.8864V729.1392a482.56 482.56 0 0 0 204.9024-152.6784zM289.3312 752.1792a479.8464 479.8464 0 0 0 156.7744 5.9392 152.832 152.832 0 0 0 4.2496-35.84V590.848a22.9376 22.9376 0 0 0-22.9376-22.8864H295.936a154.368 154.368 0 0 0-152.2688 128.8192 478.7712 478.7712 0 0 0 145.664 55.3984z" fill="#CCFFDA" p-id="2666"></path><path d="M713.8304 150.784a154.368 154.368 0 0 0-154.4192 154.368v131.5328a22.8864 22.8864 0 0 0 22.8864 22.8864h18.9952a547.84 547.84 0 0 0 178.688-293.9392 153.9072 153.9072 0 0 0-66.1504-14.848z" fill="#D9FFE6" p-id="2667"></path><path d="M295.936 150.784A154.368 154.368 0 0 0 141.5168 305.152a153.6 153.6 0 0 0 44.9024 108.8512A545.3312 545.3312 0 0 0 450.56 324.6592V305.152a154.4192 154.4192 0 0 0-154.624-154.368z" fill="#E9FFF1" p-id="2668"></path><path d="M427.4176 487.7312H295.936A182.5792 182.5792 0 1 1 478.464 305.152v131.5328a51.2 51.2 0 0 1-51.0464 51.0464zM295.936 179.2a126.2592 126.2592 0 1 0 0 252.4672h126.208V305.152A126.3616 126.3616 0 0 0 295.936 179.2zM295.936 904.9088a182.5792 182.5792 0 1 1 0-365.1072h131.4816a51.2 51.2 0 0 1 51.2 51.2v131.4816a182.784 182.784 0 0 1-182.6816 182.4256z m0-308.7872a126.2592 126.2592 0 1 0 126.208 126.208v-126.208zM713.7792 904.9088a182.784 182.784 0 0 1-182.528-182.5792V590.848a51.2 51.2 0 0 1 51.2-51.2h131.4816a182.5792 182.5792 0 1 1 0 365.1072z m-126.208-308.7872v126.208a126.2592 126.2592 0 1 0 126.208-126.208zM713.7792 487.7312h-131.4816a51.2 51.2 0 0 1-51.2-51.2V305.152a182.5792 182.5792 0 1 1 182.528 182.5792z m-126.208-56.32h126.208a126.2592 126.2592 0 1 0-126.208-126.2592z" fill="#333333" p-id="2669"></path></svg>