<?xml version="1.0" standalone="no"?><!DOCTYPE svg PUBLIC "-//W3C//DTD SVG 1.1//EN" "http://www.w3.org/Graphics/SVG/1.1/DTD/svg11.dtd"><svg t="1755432815520" class="icon" viewBox="0 0 1024 1024" version="1.1" xmlns="http://www.w3.org/2000/svg" p-id="2030" xmlns:xlink="http://www.w3.org/1999/xlink" width="200" height="200"><path d="M517.12 221.3376s-106.496-131.5328-240.64-35.84c-75.8784 51.7632-165.7344 296.96 235.52 486.656 370.0224-180.5312 325.5296-404.48 269.568-462.8992-45.3632-47.3088-151.808-108.3392-264.448 12.0832z" fill="#C9C7FF" p-id="2031"></path><path d="M750.4384 279.04a352.8192 352.8192 0 0 0 6.6048-91.392c-52.7872-39.8848-144.0256-68.7104-240.128 33.6896 0 0-106.496-131.5328-240.64-35.84-62.0544 42.2912-133.12 213.8112 61.7472 378.88 192.7168 25.4464 374.1696-97.5872 412.416-285.3376z" fill="#D9D8FF" p-id="2032"></path><path d="M680.96 153.6c-47.5648-8.2944-104.8064 5.12-163.84 67.9424 0 0-106.496-131.5328-240.64-35.84-45.7728 31.232-96.6144 133.12-41.6768 250.2656C433.9712 455.68 619.9808 337.92 680.96 153.6z" fill="#E6E4FF" p-id="2033"></path><path d="M489.8304 195.1232c-39.936-32.6144-120.0128-76.4416-213.3504-9.8304-27.1872 18.5344-56.32 61.952-63.744 118.7328a426.0352 426.0352 0 0 0 277.0944-108.9024z" fill="#F3F1FF" p-id="2034"></path><path d="M842.4448 365.6192c14.848-82.688-12.8-146.4832-40.96-176.0256-19.1488-20.0704-71.68-66.56-146.1248-66.56h-0.7168c-48.0256 0-94.0032 19.7632-137.0624 58.2656C465.2032 133.12 366.4384 86.7328 260.1472 162.1504c-42.0352 28.8256-83.9168 100.4544-76.8 190.0032 7.2704 92.672 68.0448 227.84 316.2624 345.2928a28.5696 28.5696 0 0 0 24.4224 0c234.5472-114.688 302.6432-243.7632 318.4128-331.8272z m-331.0592 274.9952c-167.168-81.92-263.5776-185.4464-272.0256-292.864-5.5808-71.68 29.3888-123.2896 52.736-139.2128l0.4608-0.3072C322.56 186.9312 350.8224 179.2 376.2176 179.2c68.4544 0 116.0704 56.32 118.8352 59.904a28.16 28.16 0 0 0 20.8384 10.24A27.6992 27.6992 0 0 0 537.6 240.64c37.9904-40.4992 77.5168-61.1328 117.4016-61.44h0.3584c54.272 0 94.4128 37.632 105.4208 49.2032 19.9168 20.8384 36.608 69.5296 26.3168 127.1296-13.312 73.9328-72.1408 182.6816-275.712 285.0816zM417.28 731.5456c-195.2768-62.3104-269.1584-256.8704-269.8752-258.816a28.16 28.16 0 0 0-52.8896 19.3536c3.2256 8.7552 78.7456 209.92 286.0544 286.3616v96.4096a28.16 28.16 0 0 0 56.32 0v-116.48a28.1088 28.1088 0 0 0-19.6096-26.8288zM912.7936 455.9872a28.2112 28.2112 0 0 0-36.1984 16.6912c-0.7168 1.9456-74.496 196.3008-270.6944 258.8672a28.1088 28.1088 0 0 0-19.6096 26.8288v116.48a28.16 28.16 0 0 0 56.32 0V778.24c207.3088-76.8 283.5968-277.504 286.72-286.2592a28.16 28.16 0 0 0-16.5376-35.9936z" fill="#333333" p-id="2035"></path><path d="M346.9824 241.5616a97.28 97.28 0 0 0-52.4288 58.5728c-8.8576 25.6-12.3904 67.8912 21.0432 124.672a28.16 28.16 0 1 0 48.5376-28.5696c-17.7152-30.1056-23.4496-56.8832-16.4864-77.3632a43.8784 43.8784 0 0 1 19.7632-24.832 28.16 28.16 0 0 0-20.48-52.48z" fill="#333333" p-id="2036"></path></svg>