<?xml version="1.0" standalone="no"?><!DOCTYPE svg PUBLIC "-//W3C//DTD SVG 1.1//EN" "http://www.w3.org/Graphics/SVG/1.1/DTD/svg11.dtd"><svg t="1755432820257" class="icon" viewBox="0 0 1024 1024" version="1.1" xmlns="http://www.w3.org/2000/svg" p-id="2347" xmlns:xlink="http://www.w3.org/1999/xlink" width="200" height="200"><path d="M753.2032 194.56H264.8064c-79.5136 0-144.0256 69.12-144.0256 154.3168v312.7296c0 85.248 64.512 154.368 144.0256 154.368h488.3968c79.5648 0 144.0256-69.12 144.0256-154.368V348.928c0-85.1968-64.4608-154.368-144.0256-154.368z" fill="#F9D9CB" p-id="2348"></path><path d="M264.8064 194.56c-79.5136 0-144.0256 69.12-144.0256 154.3168v257.024a421.0688 421.0688 0 0 0 208.384 113.5104c232.704 49.9712 459.8272-108.0832 507.2384-353.28a475.0336 475.0336 0 0 0 6.3488-138.24A137.5744 137.5744 0 0 0 753.2032 194.56z" fill="#FBE4DB" p-id="2349"></path><path d="M753.2032 194.56H264.8064c-79.5136 0-144.0256 69.12-144.0256 154.3168v187.6992a481.28 481.28 0 0 0 69.632 20.48c252.9792 54.272 500.1728-106.0352 571.1872-362.3936-2.7648-0.1024-5.5808-0.1024-8.3968-0.1024z" fill="#FFEFEB" p-id="2350"></path><path d="M595.9168 194.56H264.8064c-79.5136 0-144.0256 69.12-144.0256 154.3168V394.24c186.4192 33.9456 368.1792-48.7936 475.136-199.68z" fill="#FEF6F3" p-id="2351"></path><path d="M770.1504 160.256H250.88a165.1712 165.1712 0 0 0-164.864 165.0176v362.24A165.1712 165.1712 0 0 0 250.88 852.48h519.168a165.1712 165.1712 0 0 0 164.9664-164.9664V325.2736a165.2224 165.2224 0 0 0-164.864-165.0176z m108.6464 527.36a107.52 107.52 0 0 1-4.1984 29.44L706.56 497.7664l172.0832-113.3056zM250.88 216.576h519.168A108.7488 108.7488 0 0 1 878.3872 317.44l-322.56 212.5312a80.7936 80.7936 0 0 1-89.2416 0l-322.56-213.6064c-0.3072 0-0.6656-0.3072-0.9216-0.512A108.7488 108.7488 0 0 1 250.88 216.576z m-104.8064 498.688a107.9808 107.9808 0 0 1-3.7376-27.7504V382.6688l171.264 113.408zM250.88 796.16a108.1344 108.1344 0 0 1-73.6768-29.0304L360.704 527.36 435.2 576.6656a137.1136 137.1136 0 0 0 151.296 0l72.96-48.0256L842.8032 768a107.9808 107.9808 0 0 1-72.6528 28.1088z" fill="#333333" p-id="2352"></path></svg>