<?xml version="1.0" standalone="no"?><!DOCTYPE svg PUBLIC "-//W3C//DTD SVG 1.1//EN" "http://www.w3.org/Graphics/SVG/1.1/DTD/svg11.dtd"><svg t="1755432773261" class="icon" viewBox="0 0 1024 1024" version="1.1" xmlns="http://www.w3.org/2000/svg" p-id="1396" xmlns:xlink="http://www.w3.org/1999/xlink" width="200" height="200"><path d="M937.472 511.0784h-314.3168a157.184 157.184 0 1 0 314.3168 0z" fill="#F9D9CB" p-id="1397"></path><path d="M666.112 619.008a140.4416 140.4416 0 0 0 52.0192 22.1184c70.656 14.3872 138.6496-26.368 151.8592-91.0336a110.08 110.08 0 0 0 0.8704-39.0144h-247.7056a156.6208 156.6208 0 0 0 42.9568 107.9296z" fill="#FBE4DB" p-id="1398"></path><path d="M844.2368 511.0784h-221.0816a156.7744 156.7744 0 0 0 19.5584 76.032 164.8128 164.8128 0 0 0 32.6144 10.24c74.1888 15.2064 145.8176-22.784 168.9088-86.272z" fill="#FCEDE8" p-id="1399"></path><path d="M789.5552 511.0784h-166.4a156.4672 156.4672 0 0 0 4.1472 35.84 165.2736 165.2736 0 0 0 21.7088 6.0416c54.3744 11.1104 107.3152-6.5536 140.544-41.8816z" fill="#FEF6F3" p-id="1400"></path><path d="M415.6416 511.0784h-314.368a157.184 157.184 0 0 0 314.368 0z" fill="#F9D9CB" p-id="1401"></path><path d="M144.2304 619.008a140.8 140.8 0 0 0 52.0192 22.1184C266.9568 655.36 334.9504 614.7584 348.16 550.0928a110.08 110.08 0 0 0 0.9216-39.0144h-247.808a156.6208 156.6208 0 0 0 42.9568 107.9296z" fill="#FBE4DB" p-id="1402"></path><path d="M322.56 511.0784H101.2736a156.2624 156.2624 0 0 0 19.6096 76.032 164.3008 164.3008 0 0 0 32.5632 10.24c74.24 15.2064 145.8176-22.784 169.1136-86.272z" fill="#FCEDE8" p-id="1403"></path><path d="M267.6736 511.0784h-166.4a159.3856 159.3856 0 0 0 4.1472 35.84 167.5264 167.5264 0 0 0 21.7088 6.0416c54.3744 11.1104 107.3664-6.5536 140.544-41.8816z" fill="#FEF6F3" p-id="1404"></path><path d="M623.1552 482.9184a28.16 28.16 0 0 0-28.16 28.16 185.344 185.344 0 1 0 370.6368 0 28.16 28.16 0 0 0-28.16-28.16h-1.7408a28.5696 28.5696 0 0 0-2.0992-5.12l-121.4464-232.8064a28.16 28.16 0 0 0-21.8624-46.08h-241.6128v-40.96a28.16 28.16 0 0 0-56.32 0v40.96H250.88a28.2112 28.2112 0 0 0-27.6992 33.28L111.104 482.9184h-7.2704a28.16 28.16 0 0 0-28.16 28.16 185.344 185.344 0 1 0 370.6368 0 28.16 28.16 0 0 0-28.16-28.16h-1.7408a28.5696 28.5696 0 0 0-2.0992-5.12L298.2912 255.4368h194.0992v571.2384H229.376a28.16 28.16 0 1 0 0 56.32h582.3488a28.16 28.16 0 0 0 0-56.32h-263.0144V255.4368H732.16l-101.7344 227.4816zM261.12 640a129.28 129.28 0 0 1-125.952-100.864h251.7504A129.28 129.28 0 0 1 261.12 640zM172.8 482.9184L256 296.3968l97.28 186.5216zM780.288 640a129.28 129.28 0 0 1-125.9008-100.864H906.24a129.28 129.28 0 0 1-125.952 100.864z m-4.8128-343.7056l97.28 186.5216h-180.6336z" fill="#333333" p-id="1405"></path></svg>