<?xml version="1.0" standalone="no"?><!DOCTYPE svg PUBLIC "-//W3C//DTD SVG 1.1//EN" "http://www.w3.org/Graphics/SVG/1.1/DTD/svg11.dtd"><svg t="1755432770404" class="icon" viewBox="0 0 1024 1024" version="1.1" xmlns="http://www.w3.org/2000/svg" p-id="1240" xmlns:xlink="http://www.w3.org/1999/xlink" width="200" height="200"><path d="M757.76 269.0048H269.3632c-79.5648 0-144.0256 65.6896-144.0256 146.6368v296.96c0 80.9984 64.4608 146.6368 144.0256 146.6368H757.76c79.5136 0 144.0256-65.6384 144.0256-146.6368v-296.96c0-80.9472-64.512-146.6368-144.0256-146.6368z" fill="#CFCFFF" p-id="1241"></path><path d="M269.3632 269.0048c-79.5648 0-144.0256 65.6896-144.0256 146.6368v244.1728a430.08 430.08 0 0 0 721.92-358.9632A141.824 141.824 0 0 0 757.76 269.0048z" fill="#D9D8FF" p-id="1242"></path><path d="M757.76 269.0048H269.3632c-79.5648 0-144.0256 65.6896-144.0256 146.6368V593.92a493.0048 493.0048 0 0 0 640.8192-324.608c-2.7648-0.2048-5.5808-0.3072-8.3968-0.3072z" fill="#E6E4FF" p-id="1243"></path><path d="M600.4224 269.0048H269.3632c-79.5648 0-144.0256 65.6896-144.0256 146.6368v43.008a488.8576 488.8576 0 0 0 475.0848-189.6448z" fill="#F3F1FF" p-id="1244"></path><path d="M761.9584 238.7456h-100.8128l71.68-64.4608a28.16 28.16 0 0 0-37.632-41.8816l-118.3232 106.3424H467.1488L348.8256 132.4032A28.16 28.16 0 1 0 311.1936 174.08l71.68 64.4608H263.6288a165.1712 165.1712 0 0 0-164.9664 165.2224v314.112a165.1712 165.1712 0 0 0 164.9664 165.0176h498.3296A165.1712 165.1712 0 0 0 926.72 717.8752V403.7632a165.1712 165.1712 0 0 0-164.7616-165.0176zM870.4 717.8752a108.8 108.8 0 0 1-108.6464 108.6976H263.6288a108.8 108.8 0 0 1-108.6464-108.6976V403.7632a108.8 108.8 0 0 1 108.6464-108.6976h498.3296A108.8 108.8 0 0 1 870.4 403.7632z" fill="#333333" p-id="1245"></path><path d="M649.3696 497.3568L487.1168 403.0464A61.8496 61.8496 0 0 0 394.24 456.5504V645.12a61.44 61.44 0 0 0 92.928 53.4528L649.3696 604.16a61.8496 61.8496 0 0 0 0-106.9568z m-28.3136 58.2656l-162.2528 94.2592A5.4784 5.4784 0 0 1 450.56 645.12V456.5504a5.12 5.12 0 0 1 2.7648-4.8128 5.12 5.12 0 0 1 5.5296 0l162.2528 94.3104a5.5296 5.5296 0 0 1 0 9.5744z" fill="#333333" p-id="1246"></path></svg>