<?xml version="1.0" standalone="no"?><!DOCTYPE svg PUBLIC "-//W3C//DTD SVG 1.1//EN" "http://www.w3.org/Graphics/SVG/1.1/DTD/svg11.dtd"><svg t="1755432807874" class="icon" viewBox="0 0 1024 1024" version="1.1" xmlns="http://www.w3.org/2000/svg" p-id="1712" xmlns:xlink="http://www.w3.org/1999/xlink" width="200" height="200"><path d="M906.5984 418.8672h-86.2208l-42.496-125.7472a90.368 90.368 0 0 0-85.6064-61.44H331.9296A90.3168 90.3168 0 0 0 245.76 294.656l-39.4752 124.2112H119.5008a21.76 21.76 0 0 0-21.8112 21.76v18.8416a21.8112 21.8112 0 0 0 17.8688 21.4528l29.3888 5.12-0.5632 1.28a198.8608 198.8608 0 0 0-15.36 76.2368V849.92a31.7952 31.7952 0 0 0 31.7952 31.7952h68.5056A31.7952 31.7952 0 0 0 261.12 849.92v-53.6576h506.5728V849.92a31.7952 31.7952 0 0 0 31.7952 31.7952h68.4032a31.7952 31.7952 0 0 0 31.7952-31.7952v-283.2384a198.2976 198.2976 0 0 0-17.2032-80.6912l28.0064-5.12a21.8112 21.8112 0 0 0 17.8688-21.4528v-18.7904a21.76 21.76 0 0 0-21.76-21.76z" fill="#FFEBD7" p-id="1713"></path><path d="M868.608 418.8672h-48.2304l-42.496-125.7472a90.368 90.368 0 0 0-85.6064-61.44H331.9296A90.3168 90.3168 0 0 0 245.76 294.656l-39.4752 124.2112H119.5008a21.76 21.76 0 0 0-21.8112 21.76v18.8416a21.8112 21.8112 0 0 0 17.8688 21.4528l29.3888 5.12-0.5632 1.28a198.8608 198.8608 0 0 0-15.36 76.2368v93.184a444.4672 444.4672 0 0 0 739.1744-235.6224c0.1536-0.768 0.256-1.28 0.4096-2.2528z" fill="#FEF1E2" p-id="1714"></path><path d="M692.2752 231.68H331.9296A90.3168 90.3168 0 0 0 245.76 294.656l-39.4752 124.2112H119.5008a21.76 21.76 0 0 0-21.8112 21.76v18.8416a21.8112 21.8112 0 0 0 17.8688 21.4528l29.3888 5.12-0.5632 1.28a198.8608 198.8608 0 0 0-15.36 76.2368v24.7296a514.816 514.816 0 0 0 71.3728 20.0192 509.2864 509.2864 0 0 0 577.024-316.2624 90.2656 90.2656 0 0 0-85.1456-60.3648z" fill="#FEF6ED" p-id="1715"></path><path d="M113.408 445.44a505.2416 505.2416 0 0 0 520.8064-213.76h-302.08A90.3168 90.3168 0 0 0 245.76 294.656l-39.4752 124.2112H119.5008a21.76 21.76 0 0 0-21.8112 21.76v1.4336c5.2224 1.2288 10.4448 2.4064 15.7184 3.3792z" fill="#FEFAF5" p-id="1716"></path><path d="M569.4464 572.8768h-110.08a71.2704 71.2704 0 0 0 0 142.4896h110.08a71.2704 71.2704 0 0 0 0-142.4896z m0 86.1696h-110.08a14.9504 14.9504 0 0 1 0-29.8496h110.08a14.9504 14.9504 0 0 1 0 29.8496z" fill="#333333" p-id="1717"></path><path d="M906.5984 390.7072h-66.048l-35.84-106.5984a118.528 118.528 0 0 0-112.2816-80.5888h-38.7072v-26.5216a68.864 68.864 0 0 0-68.7616-68.7616h-143.36a68.8128 68.8128 0 0 0-69.0688 68.7616v26.5216h-40.6016a118.1696 118.1696 0 0 0-112.9472 82.5856l-33.28 104.6016H119.5008a49.9712 49.9712 0 0 0-49.9712 49.92v18.8416a49.92 49.92 0 0 0 38.4 48.5888 226.3552 226.3552 0 0 0-6.9632 55.7568V849.92a60.0576 60.0576 0 0 0 59.9552 59.9552h68.4032A60.0576 60.0576 0 0 0 289.28 849.92v-25.6h450.2528v25.6a60.0576 60.0576 0 0 0 59.9552 59.9552h68.4032A60.0576 60.0576 0 0 0 927.8464 849.92v-283.2384a226.6624 226.6624 0 0 0-7.8336-59.0848 49.92 49.92 0 0 0 36.5056-48.128v-18.8416a49.9712 49.9712 0 0 0-49.92-49.92zM428.8512 176.9984a12.4416 12.4416 0 0 1 12.4416-12.4416h143.36a12.4416 12.4416 0 0 1 12.4416 12.4416v26.5216H428.8512z m471.3472 277.1456l-22.784 4.1472a28.2112 28.2112 0 0 0-20.48 39.168 168.96 168.96 0 0 1 14.7456 69.2224V849.92a3.6352 3.6352 0 0 1-3.6352 3.6352h-68.5568a3.6352 3.6352 0 0 1-3.6352-3.6352v-53.6576a28.16 28.16 0 0 0-28.16-28.16H261.12a28.16 28.16 0 0 0-28.16 28.16V849.92a3.6352 3.6352 0 0 1-3.6352 3.6352H160.9216a3.6352 3.6352 0 0 1-3.6352-3.6352v-286.1056a169.3184 169.3184 0 0 1 13.1072-65.4848l0.5632-1.28a28.16 28.16 0 0 0-20.992-38.5024l-24.1152-4.4032v-7.1168h80.4352a28.16 28.16 0 0 0 26.8288-19.6096l39.5776-124.2112a61.952 61.952 0 0 1 59.2384-43.3664h360.3456A62.208 62.208 0 0 1 751.2064 302.08L793.6 427.8784a28.16 28.16 0 0 0 26.6752 19.1488h79.8208z" fill="#333333" p-id="1718"></path><path d="M346.112 521.6256h336.2304a68.352 68.352 0 0 0 55.9104-29.184 76.8 76.8 0 0 0 10.24-68.9152l-29.4912-88.1664a57.6512 57.6512 0 0 0-54.1696-40.0896h-305.152A57.344 57.344 0 0 0 304.7936 337.92l-25.6 88.7296a76.8 76.8 0 0 0 12.032 67.1744 68.5568 68.5568 0 0 0 54.8864 27.8016z m-13.0048-79.4624l25.6-88.7296c0.3584-1.28 1.024-1.792 0.8192-1.8432h304.7424s0.768 0.5632 1.1264 1.6896l29.5424 88.1664a20.1728 20.1728 0 0 1-2.56 18.176 12.5952 12.5952 0 0 1-10.24 5.7344H346.112a12.4416 12.4416 0 0 1-9.984-5.4784 20.0704 20.0704 0 0 1-3.0208-17.7152zM281.2416 567.04a78.6944 78.6944 0 1 0 78.6944 78.6944 78.7456 78.7456 0 0 0-78.6944-78.6944z m0 101.0176a22.3744 22.3744 0 1 1 22.3744-22.3232 22.3744 22.3744 0 0 1-22.3744 22.3232zM746.7008 567.04a78.6944 78.6944 0 1 0 78.6944 78.6944 78.7968 78.7968 0 0 0-78.6944-78.6944z m0 101.0176a22.3744 22.3744 0 1 1 22.3744-22.3232 22.3744 22.3744 0 0 1-22.3744 22.3232z" fill="#333333" p-id="1719"></path></svg>