<?xml version="1.0" standalone="no"?><!DOCTYPE svg PUBLIC "-//W3C//DTD SVG 1.1//EN" "http://www.w3.org/Graphics/SVG/1.1/DTD/svg11.dtd"><svg t="1755432696954" class="icon" viewBox="0 0 1024 1024" version="1.1" xmlns="http://www.w3.org/2000/svg" p-id="1859" xmlns:xlink="http://www.w3.org/1999/xlink" width="200" height="200"><path d="M560.1792 930.6624L506.88 926.2592l60.8768-728.1664a65.536 65.536 0 0 1 35.0208-52.6848l181.76-94.9248 24.6784 47.2576-173.056 90.4192a30.2592 30.2592 0 0 0-16.0768 24.2176z" fill="#FB7251" p-id="1860"></path><path d="M560.1792 940.9024h-0.8704l-53.1456-4.4544a10.24 10.24 0 0 1-6.9632-3.584 10.24 10.24 0 0 1-2.4064-7.4752L557.568 197.2736a75.4176 75.4176 0 0 1 40.448-60.928 10.24 10.24 0 0 1 9.472 18.176 55.0912 55.0912 0 0 0-29.5424 44.4416l-59.904 717.9264 32.768 2.7136 59.0848-708.096a40.192 40.192 0 0 1 21.5552-32.3072l163.84-85.6576-15.36-29.1328L697.1392 107.52a10.24 10.24 0 0 1-9.5232-18.176l92.16-48.128a10.24 10.24 0 0 1 13.824 4.352l24.6784 47.3088a10.24 10.24 0 0 1 0.7168 7.7824 10.24 10.24 0 0 1-5.12 6.0416l-173.056 90.368a19.7632 19.7632 0 0 0-10.5984 15.9744L570.368 931.5328a10.24 10.24 0 0 1-10.1888 9.3696z" fill="#A04947" p-id="1861"></path><path d="M720.384 978.7392h-373.76a58.7776 58.7776 0 0 1-58.624-54.784L249.1904 348.672h568.7808l-38.9632 575.2832a58.7776 58.7776 0 0 1-58.624 54.784z" fill="#FCC1B5" p-id="1862"></path><path d="M352.9728 923.9552L314.0096 348.672H249.1904l38.9632 575.2832a58.7776 58.7776 0 0 0 58.624 54.784h64.8192a58.7776 58.7776 0 0 1-58.624-54.784z" fill="#FFFFFF" p-id="1863"></path><path d="M747.52 348.672l-38.9632 575.2832a58.7776 58.7776 0 0 1-58.624 54.784h70.4512a58.7776 58.7776 0 0 0 58.624-54.784l38.9632-575.2832z" fill="#FD9377" p-id="1864"></path><path d="M720.384 988.9792h-373.76a69.1712 69.1712 0 0 1-68.6592-64.3072L239.0016 349.3888a10.24 10.24 0 0 1 2.7136-7.68 10.24 10.24 0 0 1 7.4752-3.2768h568.7808a10.24 10.24 0 0 1 7.4752 3.2768 10.24 10.24 0 0 1 2.7648 7.68l-32.6144 481.28a10.24 10.24 0 0 1-20.48-1.3824l31.8464-470.272H260.1472l38.2464 564.3776a48.64 48.64 0 0 0 48.384 45.2096h373.76a48.5888 48.5888 0 0 0 48.384-45.2096l2.4064-35.2768a10.24 10.24 0 0 1 20.48 1.3824l-2.3552 35.2768a69.2224 69.2224 0 0 1-69.0688 64.2048z" fill="#A04947" p-id="1865"></path><path d="M811.008 377.7024a277.4528 277.4528 0 0 0-555.008 0z" fill="#FCC1B5" p-id="1866"></path><path d="M533.6064 100.3008a278.3232 278.3232 0 0 0-31.5392 1.792 277.504 277.504 0 0 1 245.76 275.6096h63.1808a277.4016 277.4016 0 0 0-277.4016-277.4016z" fill="#FD9377" p-id="1867"></path><path d="M566.016 102.4a282.5216 282.5216 0 0 0-32.4096-1.8944A277.4016 277.4016 0 0 0 256 377.7024h64.9728A277.504 277.504 0 0 1 566.016 102.4z" fill="#FFFFFF" p-id="1868"></path><path d="M555.2128 348.672l-36.4032 435.7632-1.9456 23.7568-3.9424 47.2064-5.888 70.8608 53.1456 4.4032 48.5376-581.9904h-53.504z" fill="#FD977B" p-id="1869"></path><path d="M560.1792 940.9024h-0.8704l-53.1456-4.4544a10.24 10.24 0 0 1-6.9632-3.584 10.24 10.24 0 0 1-2.4064-7.4752l48.1792-577.5872a10.24 10.24 0 0 1 10.24-9.3696h53.504a10.24 10.24 0 1 1 0 20.48h-44.0832l-46.592 558.08 32.768 2.7136 40.4992-485.12a10.24 10.24 0 0 1 20.48 1.7408l-41.3184 495.3088a10.24 10.24 0 0 1-10.2912 9.2672z" fill="#CE6B4D" p-id="1870"></path><path d="M606.3104 377.7024l13.7728-165.376a30.208 30.208 0 0 1 16.0768-24.1664l63.1296-32.9728a275.5584 275.5584 0 0 0-54.5792-31.6928l-41.9328 21.9136a65.536 65.536 0 0 0-35.0208 52.6848L552.96 377.7024z" fill="#FD977B" p-id="1871"></path><path d="M613.3248 139.9296a280.1664 280.1664 0 0 1 47.104 35.84l38.8608-20.48c-3.9936-2.9696-8.0384-5.7856-12.1344-8.4992-0.8704-0.6144-1.792-1.1264-2.7136-1.7408-3.3792-2.2016-6.8096-4.352-10.24-6.4l-2.56-1.4848c-3.7888-2.1504-7.5776-4.2496-11.4688-6.1952l-1.6384-0.8704c-4.5056-2.2528-9.0112-4.4032-13.6192-6.4512z" fill="#FF896E" p-id="1872"></path><path d="M606.3104 387.9424H552.96a10.24 10.24 0 0 1-7.5264-3.328 10.24 10.24 0 0 1-2.7136-7.7824l10.24-121.6a10.24 10.24 0 0 1 20.48 1.6896l-9.216 110.5408h32.9728l13.0048-155.9552a40.0896 40.0896 0 0 1 21.248-32.3072l48.128-25.1904a275.1488 275.1488 0 0 0-34.4576-19.1488l-37.5808 19.6608a55.0912 55.0912 0 0 0-29.5424 44.4416l-1.0752 12.9024a10.24 10.24 0 1 1-20.48-1.6896l1.0752-12.9024a75.4176 75.4176 0 0 1 40.448-60.928l41.984-21.9136a10.24 10.24 0 0 1 8.8064-0.3072 285.6448 285.6448 0 0 1 56.6272 32.8704 10.24 10.24 0 0 1-1.3824 17.2544l-63.1296 32.9728a19.7632 19.7632 0 0 0-10.5984 15.9744l-13.824 165.3248a10.24 10.24 0 0 1-10.1376 9.4208z" fill="#CE6B4D" p-id="1873"></path><path d="M363.9296 168.448a10.24 10.24 0 0 1-6.2464-18.3808c3.9936-3.072 8.1408-6.144 12.288-9.0112a10.24 10.24 0 0 1 11.6736 16.8448c-3.8912 2.6624-7.7312 5.4784-11.4688 8.3968a10.24 10.24 0 0 1-6.2464 2.1504z" fill="#A04947" p-id="1874"></path><path d="M811.008 387.9424H256a10.24 10.24 0 0 1-10.24-10.24 287.488 287.488 0 0 1 71.68-189.4912 10.24 10.24 0 1 1 15.36 13.4656 266.9056 266.9056 0 0 0-66.2016 165.7856h533.9648a267.264 267.264 0 0 0-369.408-236.5952 10.24 10.24 0 1 1-7.8848-18.8928 287.744 287.744 0 0 1 397.9776 265.728 10.24 10.24 0 0 1-10.24 10.24z" fill="#A04947" p-id="1875"></path><path d="M792.1664 785.8688H274.2784a14.3872 14.3872 0 0 1-14.3872-13.4144L240.64 500.8384a14.3872 14.3872 0 0 1 14.3872-15.36h556.3904a14.3872 14.3872 0 0 1 14.3872 15.36l-19.3024 271.616a14.3872 14.3872 0 0 1-14.336 13.4144z" fill="#FB745D" p-id="1876"></path><path d="M254.976 485.376a14.3872 14.3872 0 0 0-14.3872 15.36l19.3024 271.616a14.3872 14.3872 0 0 0 14.3872 13.4144H336.384L315.0336 485.376z" fill="#FFFFFF" p-id="1877"></path><path d="M811.4176 485.376h-63.4368l-21.3504 300.4928h65.536a14.3872 14.3872 0 0 0 14.336-13.4144l19.3024-271.616a14.3872 14.3872 0 0 0-14.3872-15.4624z" fill="#F3543A" p-id="1878"></path><path d="M253.0816 687.4112a10.24 10.24 0 0 1-10.24-9.5232L230.4 501.76a25.088 25.088 0 0 1 6.5536-18.5856 24.832 24.832 0 0 1 18.0224-8.0384h72.2944a10.24 10.24 0 0 1 0 20.48H254.976a4.096 4.096 0 0 0-3.072 1.3312 4.2496 4.2496 0 0 0-1.1264 3.1232l12.544 176.384a10.24 10.24 0 0 1-9.472 10.9056zM411.5968 796.1088H274.2784a24.7808 24.7808 0 0 1-24.6272-22.9888l-3.2256-45.7216a10.24 10.24 0 0 1 20.48-1.4336l3.2256 45.6704a4.1984 4.1984 0 0 0 4.1984 3.8912h137.2672a10.24 10.24 0 0 1 0 20.48zM792.1664 796.1088H469.1968a10.24 10.24 0 1 1 0-20.48h322.9696a4.1984 4.1984 0 0 0 4.1472-3.8912l19.3024-271.6672a4.2496 4.2496 0 0 0-1.1264-3.1232 4.096 4.096 0 0 0-3.072-1.3312H451.6352a10.24 10.24 0 0 1 0-20.48h359.7824a24.6272 24.6272 0 0 1 24.6272 26.624l-19.3024 271.36a24.7808 24.7808 0 0 1-24.576 22.9888zM397.0048 495.616h-17.3568a10.24 10.24 0 0 1 0-20.48h17.3568a10.24 10.24 0 0 1 0 20.48z" fill="#A04947" p-id="1879"></path><path d="M206.592 323.9424m37.888 0l578.2528 0q37.888 0 37.888 37.888l0 3.1744q0 37.888-37.888 37.888l-578.2528 0q-37.888 0-37.888-37.888l0-3.1744q0-37.888 37.888-37.888Z" fill="#FFDDD7" p-id="1880"></path><path d="M272.5888 363.52A39.4752 39.4752 0 0 1 312.32 323.9424H246.0672A39.4752 39.4752 0 0 0 206.592 363.52a39.4752 39.4752 0 0 0 39.4752 39.4752H312.32A39.4752 39.4752 0 0 1 272.5888 363.52z" fill="#FFFFFF" p-id="1881"></path><path d="M821.1456 323.9424H762.88a39.4752 39.4752 0 0 1 39.5776 39.5776 39.4752 39.4752 0 0 1-39.5776 39.3728h58.1632a39.4752 39.4752 0 0 0 39.5776-39.3728 39.4752 39.4752 0 0 0-39.4752-39.5776z" fill="#FCC1B5" p-id="1882"></path><path d="M822.7328 413.1328H244.48a48.1792 48.1792 0 0 1-48.128-48.128v-3.1744a48.128 48.128 0 0 1 48.128-48.128h87.04a10.24 10.24 0 0 1 0 20.48h-87.04a27.648 27.648 0 0 0-27.648 27.648v3.1744a27.648 27.648 0 0 0 27.648 27.648h578.2528a27.6992 27.6992 0 0 0 27.648-27.648v-3.1744a27.6992 27.6992 0 0 0-27.648-27.648H399.36a10.24 10.24 0 0 1 0-20.48h423.168a48.1792 48.1792 0 0 1 48.128 48.128v3.1744a48.1792 48.1792 0 0 1-47.9232 48.128z" fill="#A04947" p-id="1883"></path></svg>