<?xml version="1.0" standalone="no"?><!DOCTYPE svg PUBLIC "-//W3C//DTD SVG 1.1//EN" "http://www.w3.org/Graphics/SVG/1.1/DTD/svg11.dtd"><svg t="1755432734627" class="icon" viewBox="0 0 1024 1024" version="1.1" xmlns="http://www.w3.org/2000/svg" p-id="2925" xmlns:xlink="http://www.w3.org/1999/xlink" width="200" height="200"><path d="M84.2752 841.4208L270.1824 128a68.5056 68.5056 0 0 1 114.2784-31.6416l563.5072 552.96s-254.0032 188.1088-409.6 211.456-353.28 38.2976-454.0928-19.3536z" fill="#FFDC6E" p-id="2926"></path><path d="M325.9904 155.392a68.2496 68.2496 0 0 1 66.2528-51.2l-7.7824-7.68A68.5056 68.5056 0 0 0 270.1824 128L84.2752 841.4208a248.3712 248.3712 0 0 0 56.9344 22.7328z" fill="#FFFFFF" p-id="2927"></path><path d="M338.6368 594.8928m-120.4224 0a120.4224 120.4224 0 1 0 240.8448 0 120.4224 120.4224 0 1 0-240.8448 0Z" fill="#FF5252" p-id="2928"></path><path d="M236.5952 616.3456a120.3712 120.3712 0 0 1 202.1888-88.3712 120.4224 120.4224 0 1 0-181.8624 155.3408 119.7568 119.7568 0 0 1-20.3264-66.9696z" fill="#FFFFFF" p-id="2929"></path><path d="M414.72 501.76a120.4224 120.4224 0 0 1-174.08 163.1744A120.4224 120.4224 0 1 0 414.72 501.76z" fill="#F43838" p-id="2930"></path><path d="M338.6368 725.5552a130.816 130.816 0 0 1-130.6624-130.6624 10.24 10.24 0 0 1 20.48 0 110.1824 110.1824 0 1 0 55.9104-95.8976 10.24 10.24 0 1 1-10.24-17.8176 130.6624 130.6624 0 1 1 64.3584 244.3776z" fill="#A5684D" p-id="2931"></path><path d="M231.1168 550.8608a10.24 10.24 0 0 1-4.608-1.1264 10.24 10.24 0 0 1-4.5056-13.7728 122.5728 122.5728 0 0 1 7.7312-13.2608 10.24 10.24 0 1 1 17.0496 11.3152 98.1504 98.1504 0 0 0-6.5024 11.2128 10.24 10.24 0 0 1-9.1648 5.632z" fill="#A5684D" p-id="2932"></path><path d="M743.424 611.9424a120.2688 120.2688 0 0 0 104.6016-60.8256l-166.2976-163.072a120.4736 120.4736 0 0 0 61.44 223.8976z" fill="#FF5252" p-id="2933"></path><path d="M645.12 508.4672a120.32 120.32 0 0 1 55.7568-101.5296l-19.2512-18.8928a120.4736 120.4736 0 0 0 0.3584 207.104 120.0128 120.0128 0 0 1-36.864-86.6816z" fill="#FFFFFF" p-id="2934"></path><path d="M824.32 527.9744a120.32 120.32 0 0 1-179.2 33.1264 120.3712 120.3712 0 0 0 202.8544-10.24z" fill="#F43838" p-id="2935"></path><path d="M743.424 622.1824a130.8672 130.8672 0 0 1-126.5664-163.3792 10.24 10.24 0 0 1 19.8656 5.12 108.4416 108.4416 0 0 0-3.4816 27.5968 110.1824 110.1824 0 0 0 201.7792 61.44L680.448 401.1008a110.6432 110.6432 0 0 0-24.1664 22.9888 10.24 10.24 0 1 1-16.2816-12.5952 131.072 131.072 0 0 1 36.4032-32.2048 10.24 10.24 0 0 1 12.4416 1.4848L855.04 543.8464a10.24 10.24 0 0 1 1.7408 12.3904 131.1232 131.1232 0 0 1-113.3568 65.9456z" fill="#A5684D" p-id="2936"></path><path d="M371.8656 393.8304l8.192-124.7744a18.7392 18.7392 0 0 1 28.928-14.4896l113.8688 73.8304a18.7904 18.7904 0 0 1-3.0208 33.0752L397.824 412.3648a18.7392 18.7392 0 0 1-25.9584-18.5344z" fill="#22D358" p-id="2937"></path><path d="M392.2944 408.2688l8.192-124.7744a18.7904 18.7904 0 0 1 28.9792-14.4896L527.36 332.4416a21.1968 21.1968 0 0 0-4.4544-4.0448L408.9856 254.5664a18.7392 18.7392 0 0 0-28.928 14.4896l-8.192 124.7744a18.7392 18.7392 0 0 0 20.8896 19.8656 18.8416 18.8416 0 0 1-0.4608-5.4272z" fill="#FFFFFF" p-id="2938"></path><path d="M522.8544 328.3968l-14.8992-9.6256a18.7392 18.7392 0 0 1-8.192 28.0064l-122.0096 50.8928a19.9168 19.9168 0 0 1-5.5296 1.3824 18.7904 18.7904 0 0 0 25.6 13.312l122.0096-50.8928a18.7904 18.7904 0 0 0 3.0208-33.0752z" fill="#13BC3F" p-id="2939"></path><path d="M390.5536 424.0896a29.0304 29.0304 0 0 1-28.928-30.72l2.9696-44.5952a10.24 10.24 0 0 1 20.48 1.3824l-2.9184 44.544a8.3968 8.3968 0 0 0 3.5328 7.5264 8.4992 8.4992 0 0 0 8.2432 0.9216l79.6672-33.2288A10.24 10.24 0 0 1 481.28 388.608l-79.5136 33.2288a28.672 28.672 0 0 1-11.2128 2.2528zM519.8336 371.712a10.24 10.24 0 0 1-3.9424-19.712 8.4992 8.4992 0 0 0 1.3824-15.0016L403.456 263.168a8.3968 8.3968 0 0 0-8.4992-0.4608 8.2944 8.2944 0 0 0-4.6592 7.0656l-2.6112 39.2192a10.24 10.24 0 0 1-20.48-1.3312l2.6112-39.2704A28.9792 28.9792 0 0 1 414.72 245.76l113.664 74.0352a29.0304 29.0304 0 0 1-4.608 51.2 10.5984 10.5984 0 0 1-3.9424 0.7168zM220.16 330.8544a8.6016 8.6016 0 0 1-2.56-0.3584 10.24 10.24 0 0 1-7.68-12.4928l6.9632-26.7264a10.24 10.24 0 0 1 19.8656 5.12l-6.9632 26.7264A10.24 10.24 0 0 1 220.16 330.8544z" fill="#A5684D" p-id="2940"></path><path d="M297.4208 891.648c-97.28 0-170.0352-13.7728-218.2656-41.3696a10.24 10.24 0 0 1-4.8128-11.4688L190.6176 392.704a10.24 10.24 0 1 1 19.8144 5.12l-114.2272 438.4256c80.0768 41.3696 228.3008 46.08 440.832 14.2336 134.1952-20.1728 347.2384-168.2432 395.1104-202.496L652.3904 373.76a10.24 10.24 0 0 1 14.336-14.592l288.4096 282.8288a10.24 10.24 0 0 1 3.0208 8.0384 10.24 10.24 0 0 1-4.096 7.5264c-0.6144 0.4608-64.8192 47.872-147.2512 97.28-111.2064 67.0208-200.9088 105.984-266.7008 115.8656q-139.1616 20.9408-242.688 20.9408zM612.9664 330.8544a10.24 10.24 0 0 1-7.168-2.9696L377.2928 103.7824a58.2656 58.2656 0 0 0-97.28 26.88l-26.2656 101.0688a10.24 10.24 0 0 1-19.8144-5.12l26.368-101.0688a78.7456 78.7456 0 0 1 131.328-36.352l228.5056 224.1536a10.24 10.24 0 0 1-7.168 17.5616z" fill="#A5684D" p-id="2941"></path><path d="M309.0432 937.728c-137.8816 0-233.472-25.2928-238.1312-26.5216A51.2 51.2 0 0 1 97.28 812.288c1.1776 0.3072 120.4224 31.4368 279.296 20.48C586.3424 819.2 762.88 742.4 901.376 605.9008a51.2 51.2 0 0 1 71.68 72.9088c-155.1872 153.088-360.3968 241.8176-593.408 256.6656-24.3712 1.4848-48.0768 2.2528-70.6048 2.2528z" fill="#FF8A50" p-id="2942"></path><path d="M978.4832 612.0448a51.2 51.2 0 0 1-15.0016 40.96c-155.2384 153.0368-360.3968 241.7664-593.408 256.6144-24.576 1.5872-48.2816 2.2528-70.8096 2.2528-137.8816 0-233.5232-25.2928-238.1312-26.5216a50.8416 50.8416 0 0 1-27.8016-18.9952 51.2 51.2 0 0 0 37.5808 45.0048c4.6592 1.2288 100.2496 26.5216 238.1312 26.5216 22.528 0 46.08-0.7168 70.8096-2.2528 233.0112-14.848 438.2208-103.6288 593.408-256.6656a51.2 51.2 0 0 0 5.2224-66.9184z" fill="#F96943" p-id="2943"></path><path d="M47.616 874.0864a51.2 51.2 0 0 1 62.6688-36.1472c1.2288 0.3072 120.4224 31.4368 279.3472 20.736C599.04 844.8 775.6288 768 914.176 631.552a51.2 51.2 0 0 1 72.3968 0.512l1.1264 1.2288a51.2 51.2 0 0 0-86.3232-27.392C762.88 742.4 586.3424 819.2 376.7808 833.024c-158.72 10.7008-278.1184-20.48-279.296-20.48a51.2 51.2 0 0 0-50.7392 83.968 50.5344 50.5344 0 0 1 0.8704-22.4256z" fill="#FFFFFF" p-id="2944"></path><path d="M309.0432 947.968c-139.4176 0-236.6976-25.6-240.64-26.88a61.44 61.44 0 0 1 31.8976-118.6816 699.5968 699.5968 0 0 0 77.9264 14.08 10.24 10.24 0 1 1-2.6624 20.48 702.2592 702.2592 0 0 1-80.5376-14.592A40.96 40.96 0 0 0 73.5744 901.12c3.9936 1.024 98.7648 26.1632 235.52 26.1632 23.4496 0 47.0528-0.768 70.144-2.2528 230.4-14.6944 433.4592-102.4 586.9056-253.696a40.96 40.96 0 0 0-28.4672-70.144h-0.3072a40.96 40.96 0 0 0-28.7744 11.8272A800.5632 800.5632 0 0 1 829.44 681.5744a10.24 10.24 0 0 1-12.3392-16.3328 784.8448 784.8448 0 0 0 76.8-66.56 61.44 61.44 0 0 1 87.04 0.6144 61.44 61.44 0 0 1-0.6144 87.04c-156.9792 154.7776-364.3904 244.5312-599.9104 259.5328-23.4496 1.3312-47.616 2.0992-71.3728 2.0992z" fill="#A04947" p-id="2945"></path><path d="M376.7808 843.264a10.24 10.24 0 0 1-0.6656-20.48c140.6976-9.472 267.3152-47.6672 376.32-113.6128a10.24 10.24 0 1 1 10.5984 17.5104c-111.8208 67.6352-241.5616 106.8544-385.536 116.5312zM276.992 844.8H276.48c-8.8576-0.3072-17.5104-0.6656-25.6-1.1776a10.24 10.24 0 1 1 1.1776-20.48c8.192 0.4608 16.64 0.8192 25.6 1.1264a10.24 10.24 0 0 1-0.3584 20.48z" fill="#A04947" p-id="2946"></path></svg>