<?xml version="1.0" standalone="no"?><!DOCTYPE svg PUBLIC "-//W3C//DTD SVG 1.1//EN" "http://www.w3.org/Graphics/SVG/1.1/DTD/svg11.dtd"><svg t="1755432714371" class="icon" viewBox="0 0 1024 1024" version="1.1" xmlns="http://www.w3.org/2000/svg" p-id="2264" xmlns:xlink="http://www.w3.org/1999/xlink" width="200" height="200"><path d="M881.9712 596.3776h-711.68a24.5248 24.5248 0 0 0-24.2688 24.6784v109.1072a24.5248 24.5248 0 0 0 24.2688 24.6784h711.68a24.4736 24.4736 0 0 0 24.2688-24.6784V621.056a24.4736 24.4736 0 0 0-24.2688-24.6784z" fill="#8D9E46" p-id="2265"></path><path d="M904.192 596.3776h-60.2624c-1.1264 0-2.048 11.0592-2.048 24.6784v109.1072c0 13.6192 0.9216 24.6784 2.048 24.6784h60.2624c1.1264 0 2.048-11.0592 2.048-24.6784V621.056c0-13.6192-0.9216-24.6784-2.048-24.6784z" fill="#7E8C2D" p-id="2266"></path><path d="M856.4224 668.416v-65.7408c0-1.2288-49.6128-2.2016-110.7968-2.2016H256.5632c-61.44 0-110.7968 0.9728-110.7968 2.2016v65.7408c0 1.2288 49.6128 2.2528 110.7968 2.2528h489.0624c61.184 0.0512 110.7968-1.024 110.7968-2.2528z" fill="#7E8C2D" p-id="2267"></path><path d="M772.352 645.7856l-46.3872 59.648h-95.0272l57.2928-59.648h84.1216z" fill="#7E8C2D" p-id="2268"></path><path d="M202.4448 596.3776h-54.784c-1.024 0-1.8944 11.0592-1.8944 24.6784v109.1072c0 13.6192 0.8704 24.6784 1.8944 24.6784h54.784c1.024 0 1.8944-11.0592 1.8944-24.6784V621.056c0-13.6192-0.8704-24.6784-1.8944-24.6784z" fill="#FFFFFF" p-id="2269"></path><path d="M145.7664 621.056v47.36c0.3072 0.8704 23.9104 1.5872 58.5728 1.9456v-49.3056c0-8.448-0.3584-15.872-0.8192-20.48-31.0784 0.3584-53.0944 0.9728-57.088 1.7408-0.4096 4.6592-0.6656 11.264-0.6656 18.7392z" fill="#D3DD94" p-id="2270"></path><path d="M881.9712 765.0816h-711.68a34.7648 34.7648 0 0 1-34.5088-34.9184V621.056a34.7648 34.7648 0 0 1 34.5088-34.9184h711.68a34.7648 34.7648 0 0 1 34.5088 34.9184v109.1072a34.7648 34.7648 0 0 1-34.5088 34.9184z m-711.68-158.464a14.2848 14.2848 0 0 0-14.0288 14.4384v109.1072a14.2848 14.2848 0 0 0 14.0288 14.4384h711.68a14.2848 14.2848 0 0 0 14.0288-14.4384V621.056a14.2848 14.2848 0 0 0-14.0288-14.4384z" fill="#A04947" p-id="2271"></path><path d="M874.3424 471.6032H177.7152c-46.08 0-84.0704 39.0656-84.0704 87.04s37.7344 87.04 84.0704 87.04h696.6272c46.08 0 84.0192-39.0656 84.0192-87.04s-37.6832-87.04-84.0192-87.04z" fill="#E8495C" p-id="2272"></path><path d="M156.416 558.6944c0-48.0256 37.6832-87.04 84.0704-87.04H177.7152c-46.08 0-84.0704 39.0656-84.0704 87.04s37.7344 87.04 84.0704 87.04H240.64c-46.5408 0.0512-84.224-39.0144-84.224-87.04z" fill="#FFFFFF" p-id="2273"></path><path d="M891.0848 493.6704l-118.7328 141.3632h-68.9664l157.184-163.4304 30.5152 22.0672z" fill="#DB405A" p-id="2274"></path><path d="M874.3424 471.6032H865.28a88.1152 88.1152 0 0 1 32 68.2496c0 48.0256-37.6832 87.04-84.0704 87.04H125.6448a81.92 81.92 0 0 0 52.0704 18.8416h696.6272c46.08 0 84.0192-39.0656 84.0192-87.04s-37.6832-87.0912-84.0192-87.0912z" fill="#D62D4A" p-id="2275"></path><path d="M880.64 705.4336H171.4688a86.4256 86.4256 0 0 0-85.5552 87.04 132.1984 132.1984 0 0 0 130.8672 133.12h618.496a132.1984 132.1984 0 0 0 130.8672-133.12 86.4256 86.4256 0 0 0-85.504-87.04z" fill="#FF933B" p-id="2276"></path><path d="M100.8128 826.9824a86.4256 86.4256 0 0 1 85.5552-87.04h724.48a83.4048 83.4048 0 0 1 39.2704 9.7792 85.1968 85.1968 0 0 0-71.68-40.1408H168.96a84.9408 84.9408 0 0 0-65.8944 31.5392 88.0128 88.0128 0 0 0-15.104 27.5456 87.04 87.04 0 0 0-4.5568 28.0064 133.8368 133.8368 0 0 0 60.4672 112.128c-27.392-23.8592-43.0592-50.9952-43.0592-81.8176z" fill="#FFFFFF" p-id="2277"></path><path d="M835.2768 925.7472a132.3008 132.3008 0 0 0 130.8672-133.12 87.6032 87.6032 0 0 0-29.7984-65.8944 84.7872 84.7872 0 0 1 2.3552 19.5072c0 73.472-39.1168 143.36-112.64 143.36H177.92c-28.6208 0-55.0912-19.4048-76.8-34.8672a133.12 133.12 0 0 0 117.4016 71.0144z" fill="#F97C3A" p-id="2278"></path><path d="M874.3424 656.0256H177.7152c-52.0192 0-94.3104-43.6736-94.3104-97.28a98.2528 98.2528 0 0 1 27.8528-69.0176 10.24 10.24 0 1 1 14.6432 14.336 77.8752 77.8752 0 0 0-22.016 54.6816c0 42.3936 33.1264 76.8 73.8304 76.8h696.6272c40.704 0 73.7792-34.4576 73.7792-76.8s-33.0752-76.8-73.7792-76.8H177.7152a10.24 10.24 0 1 1 0-20.48h696.6272c51.968 0 94.2592 43.6736 94.2592 97.28s-42.2912 97.28-94.2592 97.28zM835.2768 935.9872H216.7808a142.4384 142.4384 0 0 1-141.1072-143.36 10.24 10.24 0 0 1 20.48 0 121.9584 121.9584 0 0 0 120.6272 122.88h618.496a121.9584 121.9584 0 0 0 120.6272-122.88 76.1856 76.1856 0 0 0-75.3152-76.8H171.4688a75.264 75.264 0 0 0-60.5184 31.1808 10.24 10.24 0 0 1-16.5888-12.032 95.6928 95.6928 0 0 1 77.1072-39.6288H880.64a96.7168 96.7168 0 0 1 95.7952 97.28 142.4896 142.4896 0 0 1-141.1584 143.36z" fill="#A04947" p-id="2279"></path><path d="M924.416 396.3392a23.04 23.04 0 0 0-20.9408-13.8752h-365.1072a22.272 22.272 0 0 0-13.7728 4.7616l-179.9168 139.4176a23.9104 23.9104 0 0 0-9.216 18.2272 24.2176 24.2176 0 0 0 7.936 18.8928l246.272 220.16a22.4768 22.4768 0 0 0 15.0528 5.8368h1.7408a22.784 22.784 0 0 0 15.7184-8.192l298.752-359.68a24.7296 24.7296 0 0 0 3.4816-25.5488z" fill="#FFD38D" p-id="2280"></path><path d="M924.416 396.3392a23.04 23.04 0 0 0-20.9408-13.8752h-6.4512c0.256 0.4608 0.5632 0.9216 0.8192 1.4336a24.7296 24.7296 0 0 1-3.4816 25.6l-298.752 359.68a22.8864 22.8864 0 0 1-13.824 7.8848l7.8848 7.0144a22.4768 22.4768 0 0 0 15.0528 5.8368h1.7408a22.784 22.784 0 0 0 15.7184-8.192l298.752-359.8336a24.7296 24.7296 0 0 0 3.4816-25.5488z" fill="#FFC46E" p-id="2281"></path><path d="M418.1504 582.8096l189.2864 172.032-17.5104 24.3712-202.7008-172.544 30.9248-23.8592z" fill="#FFFFFF" p-id="2282"></path><path d="M920.9344 421.888a24.9856 24.9856 0 0 0 5.12-11.6224 27.648 27.648 0 0 0-1.7408-5.9904 23.04 23.04 0 0 0-20.9408-13.9264h-365.0048a22.5792 22.5792 0 0 0-13.7728 4.7616L344.6784 534.528a24.064 24.064 0 0 0-8.9088 15.36 23.8592 23.8592 0 0 0 7.6288 14.08l46.08 40.96L569.4464 465.92h314.8288z" fill="#FFAE64" p-id="2283"></path><path d="M568.32 399.36a24.0128 24.0128 0 0 0-22.6304-16.896H142.4384a23.8592 23.8592 0 0 0-22.2208 15.6672 25.6 25.6 0 0 0 5.9904 27.136l179.9168 173.0048a23.0912 23.0912 0 0 0 16.4352 6.6048 23.3472 23.3472 0 0 0 14.2848-5.12l223.3344-173.0048A25.6 25.6 0 0 0 568.32 399.36z" fill="#FFD38D" p-id="2284"></path><path d="M162.816 454.144l39.936-1.8944 141.2608 130.56-31.8464 19.6608L162.816 454.144z" fill="#FFFFFF" p-id="2285"></path><path d="M568.32 399.36a24.0128 24.0128 0 0 0-22.6304-16.896H537.6a24.576 24.576 0 0 1 4.7104 8.3968 25.2416 25.2416 0 0 1-8.3456 27.5968l-223.0784 173.0048a23.1424 23.1424 0 0 1-7.7824 3.8912l3.0208 2.9184a23.0912 23.0912 0 0 0 16.4352 6.6048 23.3472 23.3472 0 0 0 14.2848-5.12l223.3344-173.0048A25.6 25.6 0 0 0 568.32 399.36z" fill="#FFCA7D" p-id="2286"></path><path d="M545.6384 382.464H142.4384a23.8592 23.8592 0 0 0-22.2208 15.6672 25.6 25.6 0 0 0 5.9904 27.136l42.3424 40.96h340.992l50.3808-39.0144A25.6 25.6 0 0 0 568.32 399.36a24.0128 24.0128 0 0 0-22.6816-16.896z" fill="#FFC46E" p-id="2287"></path><path d="M322.56 615.1168a33.5872 33.5872 0 0 1-23.296-9.472L119.1424 432.64a35.328 35.328 0 0 1-8.4992-38.144 33.9968 33.9968 0 0 1 31.7952-22.272h403.2a34.048 34.048 0 0 1 32.3584 24.0128 35.4816 35.4816 0 0 1-11.8272 38.9632L483.3792 499.2A10.24 10.24 0 1 1 471.04 483.0208l82.7904-64.1536a14.8992 14.8992 0 0 0 5.12-16.384 13.7216 13.7216 0 0 0-12.8512-9.7792H142.4384a13.4656 13.4656 0 0 0-12.5952 9.0624 15.36 15.36 0 0 0 3.2768 16.128l179.8656 173.0048a13.2608 13.2608 0 0 0 17.152 0.9728L433.664 512a10.24 10.24 0 1 1 12.544 16.1792L343.04 608.0512a33.4336 33.4336 0 0 1-20.48 7.0656z" fill="#CE6B4D" p-id="2288"></path><path d="M448.8704 668.3648a10.24 10.24 0 0 1-6.8096-2.6112l-87.04-77.7728a10.24 10.24 0 0 1 0.6656-15.8208l78.0288-59.1872a10.24 10.24 0 1 1 12.3904 16.3328l-68.096 51.6608L455.68 650.496a10.24 10.24 0 0 1-6.8608 17.8688zM824.6272 547.84a10.24 10.24 0 0 1-7.8336-16.7936l96.256-115.9168a14.4384 14.4384 0 0 0 1.9968-14.848 12.8512 12.8512 0 0 0-11.5712-7.7824h-326.8096a35.84 35.84 0 0 1 1.3312 3.5328 35.4816 35.4816 0 0 1-11.8272 39.168L491.52 492.7488a10.24 10.24 0 0 1-14.3872-1.8432 10.24 10.24 0 0 1 1.8432-14.336l74.4448-57.7024a14.8992 14.8992 0 0 0 5.12-16.384 13.7216 13.7216 0 0 0-12.8512-9.7792 10.24 10.24 0 0 1 0-20.48h357.8368a33.28 33.28 0 0 1 30.2592 19.968 34.9184 34.9184 0 0 1-5.12 36.1984l-96.1536 115.9168a10.24 10.24 0 0 1-7.8848 3.5328zM604.7232 800.1024a32.9728 32.9728 0 0 1-21.8624-8.3968l-101.9904-91.2384a10.24 10.24 0 1 1 13.6704-15.36l101.9904 91.1872a12.032 12.032 0 0 0 9.1136 3.1744 12.3904 12.3904 0 0 0 8.6528-4.5568l146.7392-176.6912a10.24 10.24 0 0 1 15.7696 13.1072l-146.7392 176.64a33.0752 33.0752 0 0 1-22.8352 11.9296z" fill="#CE6B4D" p-id="2289"></path><path d="M692.5824 103.4752H359.4752c-142.3872 0-258.2016 120.0128-258.2016 267.52a59.8528 59.8528 0 0 0 58.7264 60.8768h732.16a59.904 59.904 0 0 0 58.624-60.8768c0-147.5072-115.8656-267.52-258.2016-267.52z" fill="#FF933B" p-id="2290"></path><path d="M733.9008 106.9568a268.8512 268.8512 0 0 1 144.0256 239.872A59.904 59.904 0 0 1 819.2 407.7056H113.2544a57.9072 57.9072 0 0 0 46.7456 24.1664h732.16a59.904 59.904 0 0 0 58.624-60.8768c0-132.9152-94.1056-243.5072-216.8832-264.0384z" fill="#F97C3A" p-id="2291"></path><path d="M692.0192 103.4752H358.912c-142.3872 0-258.2016 120.0128-258.2016 267.52A62.1056 62.1056 0 0 0 112.64 407.7056h41.5232a68.4544 68.4544 0 0 1-0.5632-7.2704C153.6 252.8768 279.8592 133.12 422.2464 133.12h333.056a249.6 249.6 0 0 1 72.704 10.8544 250.3168 250.3168 0 0 0-135.9872-40.4992z" fill="#FFFFFF" p-id="2292"></path><path d="M422.4512 264.704c-2.6112 8.8064-10.496 14.2336-17.7152 12.0832a15.36 15.36 0 0 1-8.3456-19.712c2.6112-8.8064 12.4928-20.992 19.712-18.8928S424.96 256 422.4512 264.704zM535.808 232.704a13.8752 13.8752 0 1 1-24.7808 11.1104c-3.7376-8.3968-4.096-24.1152 2.7648-27.136s18.2784 7.68 22.016 16.0256zM313.1392 292.4544a15.36 15.36 0 0 1-17.7152 12.0832c-7.168-2.0992-10.9056-10.9568-8.3456-19.7632s12.4928-20.9408 19.712-18.8416 8.9088 17.7152 6.3488 26.5216zM572.0064 300.4416a13.824 13.824 0 1 1-20.1728 18.1248c-6.144-6.8096-11.264-21.6576-5.6832-26.6752s19.7632 1.7408 25.856 8.5504zM784.0256 295.6288a13.824 13.824 0 1 1-20.1728 18.1248c-6.144-6.8096-11.264-21.6576-5.6832-26.6752s19.7632 1.7408 25.856 8.5504zM687.7696 235.52a13.824 13.824 0 1 1-26.5216 5.6832c-1.9456-8.96 0.9728-24.4224 8.3456-25.9584s16.4864 11.4688 18.176 20.2752z" fill="#FDE6CB" p-id="2293"></path><path d="M152.832 220.9792a10.24 10.24 0 0 1-5.9904-1.9456 10.24 10.24 0 0 1-2.304-14.2336c4.6592-6.4 9.6256-12.6976 14.7456-18.6368a10.24 10.24 0 0 1 15.36 13.3632c-4.7616 5.5296-9.3696 11.3664-13.6704 17.3056a10.24 10.24 0 0 1-8.1408 4.1472zM197.5296 173.0048a10.24 10.24 0 0 1-6.6048-18.0736 263.424 263.424 0 0 1 168.5504-61.44h333.1072a259.84 259.84 0 0 1 161.6384 56.32 10.24 10.24 0 1 1-12.5952 16.128 239.7184 239.7184 0 0 0-149.0432-51.8144H359.4752a242.8416 242.8416 0 0 0-155.392 56.5248 10.24 10.24 0 0 1-6.5536 2.3552zM892.0576 442.112h-732.16a70.144 70.144 0 0 1-68.864-71.1168 282.7264 282.7264 0 0 1 22.8864-112.1792 10.24 10.24 0 0 1 18.7904 8.0384 263.0656 263.0656 0 0 0-21.1968 104.1408 49.664 49.664 0 0 0 48.4864 50.6368h732.16a49.664 49.664 0 0 0 48.4864-50.6368 261.12 261.12 0 0 0-49.2032-153.6 10.24 10.24 0 0 1 16.64-11.9808 281.6 281.6 0 0 1 52.9408 165.5808 70.144 70.144 0 0 1-68.9664 71.1168z" fill="#A04947" p-id="2294"></path></svg>