<?xml version="1.0" standalone="no"?><!DOCTYPE svg PUBLIC "-//W3C//DTD SVG 1.1//EN" "http://www.w3.org/Graphics/SVG/1.1/DTD/svg11.dtd"><svg t="1755432745313" class="icon" viewBox="0 0 1024 1024" version="1.1" xmlns="http://www.w3.org/2000/svg" p-id="3444" xmlns:xlink="http://www.w3.org/1999/xlink" width="200" height="200"><path d="M481.28 727.04c-147.3024 0-406.1696 7.5776-401.8688-222.0032S229.6832 144.896 452.7616 144.896s449.0752 120.1152 449.0752 383.1296S481.28 727.04 481.28 727.04z" fill="#FF933B" p-id="3445"></path><path d="M452.7616 144.896c-11.1616 0-22.1184 0.4096-32.8704 1.0752 210.7392 12.288 412.9792 133.12 412.9792 382.0544 0 161.5872-158.72 199.68-281.1392 205.2096 119.7056 5.12 350.1056-10.496 350.1056-205.2096 0-263.0144-225.9968-383.1296-449.0752-383.1296z" fill="#F97C3A" p-id="3446"></path><path d="M149.1968 526.7968c4.4032-229.5808 150.1696-360.3456 373.2992-360.3456a596.9408 596.9408 0 0 1 136.4992 15.616 571.3408 571.3408 0 0 0-206.2336-37.1712c-223.0784 0-368.9472 130.7648-373.248 360.2944-2.5088 133.4272 83.9168 186.7264 185.6 207.9744-68.4032-29.952-117.8112-85.0432-115.9168-186.368z" fill="#FEF4FC" p-id="3447"></path><path d="M221.952 218.7264a10.24 10.24 0 0 1-8.448-4.4544 10.24 10.24 0 0 1 2.6624-14.2336c7.5776-5.12 15.36-10.24 23.6032-14.6944a10.24 10.24 0 0 1 10.24 17.8688c-7.5776 4.2496-15.0528 8.9088-22.1184 13.7216a10.24 10.24 0 0 1-5.9392 1.792zM586.4448 744.2432A794.624 794.624 0 0 1 480.6144 737.28h-12.9536c-105.0624 0-263.7824 0.4096-345.2416-82.4832-36.4544-37.0176-54.3232-87.5008-53.1456-149.9136 2.0992-112.9472 38.6048-206.7456 105.5232-271.36a10.24 10.24 0 1 1 14.1824 14.6944c-62.9248 60.7744-97.28 149.6064-99.2256 256.9728-1.0752 56.7296 14.848 102.4 47.2576 135.2192 75.4176 76.8 229.0176 76.544 330.5984 76.3392H482.816c2.4064 0.3584 242.0736 35.3792 352.9728-60.0064 36.9664-31.7952 55.7056-75.2128 55.7056-129.024 0-13.2608-0.6144-26.4704-1.792-39.168a10.24 10.24 0 1 1 20.48-1.8944c1.28 13.3632 1.8944 27.136 1.8944 40.96 0 60.0576-21.1456 108.6976-62.8736 144.5888-49.8176 42.8032-127.3344 66.56-230.4 70.9632-11.0592 0.8704-21.9648 1.0752-32.3584 1.0752zM889.1392 436.1216a10.24 10.24 0 0 1-9.8816-7.68c-53.0944-201.728-262.912-273.3056-426.496-273.3056a451.3792 451.3792 0 0 0-144.2816 22.016A10.24 10.24 0 0 1 302.08 157.7472a471.5008 471.5008 0 0 1 150.6816-23.0912c170.8544 0 390.2464 75.5712 446.3104 288.6144a10.24 10.24 0 0 1-7.3216 12.4928 11.4688 11.4688 0 0 1-2.6112 0.3584z" fill="#A04947" p-id="3448"></path><path d="M766.5152 202.6496s46.6432-24.4736 52.0192-62.1056 15.36-53.6064 37.0176-54.1696a33.1776 33.1776 0 0 1 30.72 45.056c26.7776-2.8672 42.3424 18.2272 38.6048 43.3152-2.1504 10.8032-14.4896 22.784-33.792 22.784s-45.6192 1.7408-78.2848 51.2-46.2848-46.08-46.2848-46.08z" fill="#F2DEA0" p-id="3449"></path><path d="M782.336 212.1216s46.6432-24.5248 52.0192-62.1568 15.36-53.5552 37.0176-54.1696A29.7472 29.7472 0 0 1 880.64 97.28a30.72 30.72 0 0 0-22.0672-8.704c-21.4528 0.6144-31.6416 16.5376-36.9664 54.1696S769.6384 204.8 769.6384 204.8s8.8064 62.976 29.5936 60.3136c-11.7248-16.1792-16.896-52.992-16.896-52.992z" fill="#FFFFFF" p-id="3450"></path><path d="M885.76 131.3792a33.5872 33.5872 0 0 0-22.9888-44.3392 37.6832 37.6832 0 0 1 12.7488 30.72 13.824 13.824 0 0 0 10.24 13.6192zM899.6864 132.1472a38.0416 38.0416 0 0 1 13.0048 36.8128c-2.1504 10.8544-14.4896 22.8352-33.792 22.8352s-45.6192 1.6896-78.2848 51.2c-5.9392 9.0112-11.264 13.1584-15.9232 14.0288 7.0144 8.3968 16.2304 9.3184 27.9552-8.448 32.6656-49.5616 58.9824-51.2 78.2848-51.2s31.6416-11.9808 33.792-22.784c3.072-20.3264-6.7584-38.144-25.0368-42.4448z" fill="#FFCA55" p-id="3451"></path><path d="M794.9824 273.3568a19.7632 19.7632 0 0 1-4.5568-0.512c-7.5776-1.6896-26.112-11.8272-34.048-68.7616a10.24 10.24 0 0 1 5.376-10.24c0.6144-0.3072 42.0864-22.6816 46.6432-54.528 4.352-30.72 13.312-62.0544 46.848-62.9248a41.6768 41.6768 0 0 1 34.56 17.3056 43.7248 43.7248 0 0 1 8.5504 28.0064 42.3424 42.3424 0 0 1 24.5248 12.544 49.7664 49.7664 0 0 1 11.9808 42.24c-3.1744 15.9232-19.2 31.5392-43.9296 31.5392-15.36 0-38.9632 0-69.7856 46.6944-8.2432 12.3392-17.0496 18.6368-26.1632 18.6368z m-17.2544-65.3824c4.2496 23.9104 12.4416 43.5712 17.2032 44.9024 0 0 3.2256-0.6656 9.1648-9.6768 33.9968-51.5584 62.6688-55.9104 87.04-55.9104 14.3872 0 22.528-8.4992 23.7568-14.5408a29.44 29.44 0 0 0-6.6048-24.6272 24.32 24.32 0 0 0-20.8896-6.5536 10.24 10.24 0 0 1-9.1136-3.7888 10.24 10.24 0 0 1-1.6896-9.728 24.064 24.064 0 0 0-3.072-22.528 21.1968 21.1968 0 0 0-17.5104-8.9088c-10.496 0.256-21.248 3.9936-27.136 45.3632-5.0176 33.6384-37.1712 57.1904-51.1488 65.9968z" fill="#CE6B4D" p-id="3452"></path><path d="M740.1984 186.7264c-101.632 30.72-232.704 70.656-278.8352 180.1216s54.6816 233.7792 168.3968 202.9568 176.9472-217.7536 190.9248-302.08S782.336 174.08 740.1984 186.7264z" fill="#FF933B" p-id="3453"></path><path d="M783.36 183.5008c8.4992 13.3632 12.0832 33.9456 7.0656 64.256-13.9264 84.3776-77.2096 271.36-190.9248 302.08a132.4544 132.4544 0 0 1-94.976-9.5232 135.3728 135.3728 0 0 0 125.2352 29.4912c113.664-30.72 176.9472-217.7536 190.9248-302.08 9.216-55.8592-10.5472-78.7456-37.3248-84.224z" fill="#FF7D43" p-id="3454"></path><path d="M502.0672 381.7984c46.08-109.4656 177.2032-149.6576 278.8864-180.1728a103.4752 103.4752 0 0 1 27.7504-4.5568c-16.384-17.6128-44.1344-17.664-68.5056-10.24-101.632 30.72-232.704 70.656-278.8352 180.1216-37.7344 89.5488 22.8352 188.928 108.3392 205.3632C507.3408 537.6 470.7328 456.2432 502.0672 381.7984z" fill="#FEF4FC" p-id="3455"></path><path d="M255.4368 855.3472h511.0784v53.248a34.56 34.56 0 0 1-34.56 34.56H289.9968a34.56 34.56 0 0 1-34.56-34.56v-53.248z" fill="#FF933B" p-id="3456"></path><path d="M304.384 909.4656v-54.1184h-48.9472v54.1184a33.7408 33.7408 0 0 0 33.6896 33.6896H337.92a33.7408 33.7408 0 0 1-33.536-33.6896z" fill="#FEF4FC" p-id="3457"></path><path d="M721.92 855.3472v54.1184a33.7408 33.7408 0 0 1-33.6896 33.6896h44.8a33.7408 33.7408 0 0 0 33.6896-33.6896v-54.1184z" fill="#F97C3A" p-id="3458"></path><path d="M732.16 953.3952H289.9968a44.9024 44.9024 0 0 1-44.8-44.8v-53.248a10.24 10.24 0 0 1 10.24-10.24h511.0784a10.24 10.24 0 0 1 10.24 10.24v53.248a44.9024 44.9024 0 0 1-44.5952 44.8z m-466.4832-87.808v43.008a24.32 24.32 0 0 0 24.32 24.32H732.16a24.32 24.32 0 0 0 24.32-24.32v-43.008z" fill="#A04947" p-id="3459"></path><path d="M59.904 627.8656h900.1472a18.9952 18.9952 0 0 1 18.9952 18.9952 224.0512 224.0512 0 0 1-224.0512 224.0512H264.96A224.0512 224.0512 0 0 1 40.96 646.8608a18.9952 18.9952 0 0 1 18.9952-18.9952z" fill="#FFAE64" p-id="3460"></path><path d="M103.9872 648.3456v-1.6384a18.8416 18.8416 0 0 1 18.8928-18.8416H59.7504A18.8416 18.8416 0 0 0 40.96 646.7072v1.6384a222.5152 222.5152 0 0 0 222.5152 222.5152h63.0272a222.5152 222.5152 0 0 1-222.5152-222.5152z" fill="#FEF4FC" p-id="3461"></path><path d="M960.2048 627.8656h-71.68a18.8928 18.8928 0 0 1 18.8928 18.8416v1.6384a222.5664 222.5664 0 0 1-222.5664 222.5152h71.68a222.5664 222.5664 0 0 0 222.5664-222.5152v-1.6384a18.8416 18.8416 0 0 0-18.8928-18.8416z" fill="#FF933B" p-id="3462"></path><path d="M756.48 881.1008h-493.056A233.0112 233.0112 0 0 1 30.72 648.3456v-1.6384a29.1328 29.1328 0 0 1 29.0816-29.0816h173.568a10.24 10.24 0 0 1 0 20.48H59.7504a8.6016 8.6016 0 0 0-8.5504 8.6016v1.6384a212.5312 212.5312 0 0 0 212.2752 212.2752h493.056a212.5312 212.5312 0 0 0 212.3264-212.2752v-1.6384a8.6016 8.6016 0 0 0-8.6016-8.6016H419.84a10.24 10.24 0 1 1 0-20.48h540.3648a29.1328 29.1328 0 0 1 29.0816 29.0816v1.6384a233.0624 233.0624 0 0 1-232.8064 232.7552z" fill="#A04947" p-id="3463"></path><path d="M351.1296 638.1056H286.72a10.24 10.24 0 0 1 0-20.48h64.4096a10.24 10.24 0 0 1 0 20.48zM593.92 584.8576a149.76 149.76 0 0 1-113.152-53.6064 160.2048 160.2048 0 0 1-29.0816-168.3456c16.2816-38.1952 42.6496-70.2464 80.7936-98.048a10.24 10.24 0 1 1 11.9808 16.7424C509.4912 307.2 485.376 336.1792 471.04 370.8416a139.8272 139.8272 0 0 0 25.6 146.944c34.304 39.2704 83.1488 55.04 130.6624 42.1376 106.752-28.8768 169.728-210.4832 183.5008-293.9392 5.12-30.72 1.0752-53.0432-11.6224-64.256-16.7936-14.7456-44.5952-8.5504-55.7568-5.12-44.8512 13.4656-100.6592 30.208-149.8624 55.2448a10.24 10.24 0 1 1-9.2672-18.2784c50.8416-25.856 107.52-42.9056 153.2416-56.576 30.72-9.1648 57.9072-5.6832 75.1616 9.472 18.5344 16.3328 24.7296 44.2368 18.3296 82.944-11.52 69.7344-72.704 276.48-198.3488 310.4256a147.2512 147.2512 0 0 1-38.7584 5.0176z" fill="#A04947" p-id="3464"></path></svg>