<?xml version="1.0" standalone="no"?><!DOCTYPE svg PUBLIC "-//W3C//DTD SVG 1.1//EN" "http://www.w3.org/Graphics/SVG/1.1/DTD/svg11.dtd"><svg t="1755432759180" class="icon" viewBox="0 0 1024 1024" version="1.1" xmlns="http://www.w3.org/2000/svg" p-id="3968" xmlns:xlink="http://www.w3.org/1999/xlink" width="200" height="200"><path d="M745.5744 160.2048s-109.312-248.8832-452.7616 94.5152-163.84 454.6048-125.44 483.6864z" fill="#FF933B" p-id="3969"></path><path d="M319.4368 288.768c226.6112-226.6112 358.4-192.4608 416.768-144.9472-32.8192-49.3056-156.2624-176.2304-443.392 110.8992-295.3728 295.3728-203.9808 418.9184-148.0704 466.2272-43.3152-64.8704-63.3344-194.1504 174.6944-432.1792z" fill="#FFFFFF" p-id="3970"></path><path d="M371.2 193.1776a10.24 10.24 0 0 1-6.5536-18.1248q8.9088-7.3728 17.5104-14.1312a10.24 10.24 0 1 1 12.6464 16.128q-8.448 6.6048-17.1008 13.7728a10.24 10.24 0 0 1-6.5024 2.3552z" fill="#A04947" p-id="3971"></path><path d="M167.3728 748.6464a10.24 10.24 0 0 1-6.144-2.048l-4.1984-3.1744C128 722.176 51.2 665.6 83.9168 541.3376a10.24 10.24 0 0 1 19.7632 5.12c-28.3136 107.52 33.0752 156.4672 62.72 178.3808L733.0304 158.2592c-8.5504-15.0528-34.816-53.9648-84.8896-68.864-56.0128-16.6912-124.2112 0.6144-202.752 51.2a10.24 10.24 0 0 1-11.1104-17.2032c83.9168-54.272 157.952-72.3456 220.16-53.7088a167.9872 167.9872 0 0 1 100.6592 86.272 10.24 10.24 0 0 1-2.1504 11.3664L174.6432 745.6256a10.24 10.24 0 0 1-7.2704 3.0208z" fill="#A04947" p-id="3972"></path><path d="M107.52 514.2016a9.6768 9.6768 0 0 1-3.9424-0.768 10.24 10.24 0 0 1-5.5296-13.3632c30.72-73.7792 93.7472-158.72 187.5968-252.5696 12.6976-12.7488 25.6-24.9344 37.7344-36.3008a10.24 10.24 0 1 1 13.8752 15.0528c-12.1344 11.1616-24.6272 23.1936-37.12 35.84-92.16 92.16-153.6 174.6944-183.1424 245.76a10.24 10.24 0 0 1-9.472 6.3488z" fill="#A04947" p-id="3973"></path><path d="M882.1248 296.96s248.9344 109.312-94.5152 452.7616-454.6048 163.84-483.6864 125.44z" fill="#FF933B" p-id="3974"></path><path d="M918.0672 321.3824c40.96 63.1808 43.52 173.3632-167.5776 384.4096-269.6192 269.6704-385.792 229.4272-441.7536 175.6672 35.84 48.2304 152.064 194.8672 478.8736-131.9424 253.696-253.7472 184.1152-379.648 130.4576-428.1344z" fill="#F97C3A" p-id="3975"></path><path d="M443.2384 966.4a180.9408 180.9408 0 0 1-24.3712-1.6384C350.208 955.1872 314.2656 906.24 298.9056 885.3504l-3.1744-4.2496a10.24 10.24 0 0 1 0.9728-13.4144L874.8544 289.536a10.24 10.24 0 0 1 11.3664-2.1504c1.2288 0.512 119.3472 54.2208 87.9616 196.8128a10.24 10.24 0 1 1-19.968-4.4032c24.0128-109.312-47.9744-158.3104-70.0928-170.5472L317.44 875.9296c15.7184 21.248 46.7968 60.5184 104.2944 68.5056 65.3312 9.1136 146.8416-23.9104 242.2784-98.048a10.24 10.24 0 1 1 12.544 16.128c-88.832 69.0176-167.168 103.8848-233.3184 103.8848z" fill="#A04947" p-id="3976"></path><path d="M711.68 830.6688a10.24 10.24 0 0 1-6.7072-17.9712c24.2688-20.992 49.6128-44.6464 75.4176-70.4512a969.6768 969.6768 0 0 0 109.568-128 10.24 10.24 0 1 1 16.7936 11.6736 982.528 982.528 0 0 1-111.9232 130.816c-26.112 26.112-51.8144 50.176-76.4928 71.424a10.24 10.24 0 0 1-6.656 2.5088zM927.5392 583.936a10.24 10.24 0 0 1-8.9088-15.36c3.5328-6.2464 6.8608-12.5952 9.9328-18.7904a10.24 10.24 0 0 1 18.3808 9.1136c-3.2768 6.5024-6.7584 13.1072-10.24 19.712a10.24 10.24 0 0 1-9.1648 5.3248z" fill="#A04947" p-id="3977"></path><path d="M467.4048 165.2736zM475.2384 165.2736l-7.8336 7.8336v-7.8336h7.8336z" fill="#F97D3A" p-id="3978"></path><path d="M483.072 165.2736l-15.6672 15.6672v-7.8336l7.8336-7.8336h7.8336z" fill="#F97C39" p-id="3979"></path><path d="M490.9056 165.2736l-23.5008 23.5008v-7.8336l15.6672-15.6672h7.8336z" fill="#F97C38" p-id="3980"></path><path d="M498.7904 165.2736l-31.3856 31.3344v-7.8336l23.5008-23.5008h7.8848z" fill="#FA7B37" p-id="3981"></path><path d="M506.624 165.2736l-39.2192 39.168V196.608l31.3856-31.3344h7.8336z" fill="#FA7A36" p-id="3982"></path><path d="M514.4576 165.2736l-47.0528 47.0528v-7.8848l39.2192-39.168h7.8336z" fill="#FA7935" p-id="3983"></path><path d="M522.2912 165.2736L467.4048 220.16v-7.8336l47.0528-47.0528h7.8336z" fill="#FA7934" p-id="3984"></path><path d="M530.1248 165.2736L468.0704 227.2768l-0.6656-0.6656V220.16l54.8864-54.8864h7.8336z" fill="#FB7833" p-id="3985"></path><path d="M531.3536 165.2736l3.328 3.2768-62.6688 62.6688-3.9424-3.9424 62.0544-62.0032h1.2288z" fill="#FB7732" p-id="3986"></path><path d="M472.0128 231.18848l62.6688-62.6688 3.91168 3.91168-62.6688 62.6688z" fill="#FB7631" p-id="3987"></path><path d="M475.91424 235.16672l62.6688-62.6688 3.91168 3.91168-62.6688 62.6688z" fill="#FB7630" p-id="3988"></path><path d="M479.81568 239.02208l62.6688-62.6688 3.91168 3.91168-62.6688 62.6688z" fill="#FC752F" p-id="3989"></path><path d="M483.76832 243.00032l62.6688-62.6688 3.91168 3.91168-62.6688 62.6688z" fill="#FC742E" p-id="3990"></path><path d="M487.66976 246.85568l62.6688-62.6688 3.90656 3.91168-62.6688 62.6688z" fill="#FC732C" p-id="3991"></path><path d="M491.60704 250.79808l62.6688-62.6688 3.90656 3.91168-62.6688 62.6688z" fill="#FC732B" p-id="3992"></path><path d="M495.55968 254.77632l62.6688-62.6688 3.90656 3.91168-62.6688 62.6688z" fill="#FC722A" p-id="3993"></path><path d="M499.456 258.63168l62.6688-62.6688 3.91168 3.91168-62.6688 62.6688z" fill="#FD7129" p-id="3994"></path><path d="M566.016 199.936l3.0208 2.9696v1.8432L507.2896 266.496l-3.9424-3.9424 62.6688-62.6176z" fill="#FD7128" p-id="3995"></path><path d="M569.0368 212.5824l-57.856 57.8048-3.8912-3.8912 61.7472-61.7472v7.8336z" fill="#FD7027" p-id="3996"></path><path d="M569.0368 220.4672l-53.9136 53.8624-3.9424-3.9424 57.856-57.8048v7.8848z" fill="#FD6F26" p-id="3997"></path><path d="M569.0368 228.3008l-49.9712 49.9712-3.9424-3.9424 53.9136-53.8624v7.8336z" fill="#FE6E25" p-id="3998"></path><path d="M569.0368 236.1344l-46.08 46.0288-3.8912-3.8912 49.9712-49.9712v7.8336z" fill="#FE6E24" p-id="3999"></path><path d="M569.0368 243.968l-42.1376 42.1376-3.9424-3.9424 46.08-46.0288v7.8336z" fill="#FE6D23" p-id="4000"></path><path d="M569.0368 251.8016l-38.2464 38.1952-3.8912-3.8912 42.1376-42.1376v7.8336z" fill="#FE6C22" p-id="4001"></path><path d="M569.0368 259.6352l-31.1296 31.0784h-6.4l-0.7168-0.7168 38.2464-38.1952v7.8336z" fill="#FF6B21" p-id="4002"></path><path d="M569.0368 267.4688l-23.2448 23.2448h-7.8848l31.1296-31.0784v7.8336z" fill="#FF6B20" p-id="4003"></path><path d="M569.0368 275.3024l-15.4112 15.4112h-7.8336l23.2448-23.2448v7.8336z" fill="#FF6A1F" p-id="4004"></path><path d="M553.6256 290.7136l15.4112-15.4112v15.4112h-15.4112z" fill="#FF6A1F" p-id="4005"></path><path d="M331.8784 288.768zM338.8928 288.768l-7.0144 9.0112V288.768h7.0144z" fill="#F97D3A" p-id="4006"></path><path d="M345.9584 288.768l-14.08 17.9712v-8.96l7.0144-9.0112h7.0656z" fill="#F97C39" p-id="4007"></path><path d="M353.024 288.768l-21.1456 26.9824v-9.0112l14.08-17.9712h7.0656z" fill="#F97C38" p-id="4008"></path><path d="M360.0384 288.768l-28.16 35.9936v-9.0112l21.1456-26.9824h7.0144z" fill="#FA7B37" p-id="4009"></path><path d="M367.104 288.768l-35.2256 44.9536v-8.96l28.16-35.9936h7.0656z" fill="#FA7A36" p-id="4010"></path><path d="M374.1184 288.768l-42.24 53.9648v-9.0112l35.2256-44.9536h7.0144z" fill="#FA7935" p-id="4011"></path><path d="M381.184 288.768l-49.3056 62.9248v-8.96l42.24-53.9648h7.0656z" fill="#FA7934" p-id="4012"></path><path d="M388.1984 288.768L333.7728 358.2464l-1.8944-1.4848v-5.0688l49.3056-62.9248h7.0144z" fill="#FB7833" p-id="4013"></path><path d="M395.264 288.768L338.1248 361.6768l-4.352-3.4304L388.1984 288.768h7.0656z" fill="#FB7732" p-id="4014"></path><path d="M402.2784 288.768L342.528 365.1072l-4.4032-3.4304L395.264 288.768h7.0144z" fill="#FB7631" p-id="4015"></path><path d="M409.344 288.768l-62.464 79.7696-4.352-3.4304L402.2784 288.768h7.0656z" fill="#FB7630" p-id="4016"></path><path d="M416.3584 288.768L351.232 371.9168l-4.352-3.3792 62.464-79.7696h7.0144z" fill="#FC752F" p-id="4017"></path><path d="M422.3488 288.768l0.6656 0.512-67.4304 86.0672-4.352-3.4304L416.3584 288.768h5.9904z" fill="#FC742E" p-id="4018"></path><path d="M355.59936 375.30624l67.4048-86.05696 4.352 3.40992-67.39968 86.05696z" fill="#FC732C" p-id="4019"></path><path d="M359.9616 378.75712L427.3664 292.70016l4.352 3.40992-67.4048 86.05696z" fill="#FC732B" p-id="4020"></path><path d="M364.31872 382.208l67.4048-86.05696 4.352 3.40992-67.39968 86.05696z" fill="#FC722A" p-id="4021"></path><path d="M368.64 385.57696L436.0448 299.52l4.352 3.40992L372.992 388.98688z" fill="#FD7129" p-id="4022"></path><path d="M373.08416 388.98688l67.4048-86.05696 4.352 3.40992L377.43616 392.3968z" fill="#FD7128" p-id="4023"></path><path d="M444.8256 306.3808l0.256 0.2048v8.448L381.7984 395.8784l-4.352-3.4304 67.3792-86.0672z" fill="#FD7027" p-id="4024"></path><path d="M445.0816 324.0448l-58.9312 75.264-4.352-3.4304 63.2832-80.8448v9.0112z" fill="#FD6F26" p-id="4025"></path><path d="M445.0816 333.0048L390.5024 402.688l-4.352-3.3792 58.9312-75.264v8.96z" fill="#FE6E25" p-id="4026"></path><path d="M445.0816 342.016l-50.2272 64.1024-4.352-3.4304 54.5792-69.6832v9.0112z" fill="#FE6E24" p-id="4027"></path><path d="M445.0816 351.0272l-45.7728 58.4192h-0.2048l-4.2496-3.328 50.2272-64.1024v9.0112z" fill="#FE6D23" p-id="4028"></path><path d="M445.0816 359.9872l-38.7072 49.4592h-7.0656l45.7728-58.4192v8.96z" fill="#FE6C22" p-id="4029"></path><path d="M445.0816 368.9984l-31.6928 40.448h-7.0144l38.7072-49.4592v9.0112z" fill="#FF6B21" p-id="4030"></path><path d="M445.0816 377.9584l-24.6272 31.488h-7.0656l31.6928-40.448v8.96z" fill="#FF6B20" p-id="4031"></path><path d="M445.0816 386.9696l-17.6128 22.4768h-7.0144l24.6272-31.488v9.0112z" fill="#FF6A1F" p-id="4032"></path><path d="M427.4688 409.4464l17.6128-22.4768v22.4768h-17.6128z" fill="#FF6A1F" p-id="4033"></path><path d="M222.5664 405.9136zM229.3248 405.9136l-6.7584 9.728v-9.728h6.7584z" fill="#F97D3A" p-id="4034"></path><path d="M236.032 405.9136l-13.4656 19.456v-9.728l6.7584-9.728h6.7072z" fill="#F97C39" p-id="4035"></path><path d="M242.7904 405.9136l-20.224 29.1328v-9.6768l13.4656-19.456h6.7584z" fill="#F97C38" p-id="4036"></path><path d="M249.5488 405.9136l-26.9824 38.8608v-9.728l20.224-29.1328h6.7584z" fill="#FA7B37" p-id="4037"></path><path d="M256.3072 405.9136l-33.7408 48.5888v-9.728l26.9824-38.8608h6.7584z" fill="#FA7A36" p-id="4038"></path><path d="M263.0656 405.9136l-40.192 57.856-0.3072-0.256v-9.0112l33.7408-48.5888h6.7584z" fill="#FA7935" p-id="4039"></path><path d="M269.824 405.9136l-42.3936 60.9792-4.5568-3.1232 40.192-57.856h6.7584z" fill="#FA7934" p-id="4040"></path><path d="M276.5824 405.9136l-44.5952 64.1536-4.5568-3.1744 42.3936-60.9792h6.7584z" fill="#FB7833" p-id="4041"></path><path d="M283.3408 405.9136L236.544 473.2416l-4.5568-3.1744 44.5952-64.1536h6.7584z" fill="#FB7732" p-id="4042"></path><path d="M290.048 405.9136l-48.9472 70.5024-4.5568-3.1744 46.7968-67.328h6.7072z" fill="#FB7631" p-id="4043"></path><path d="M296.8064 405.9136l-51.1488 73.6768-4.5568-3.1744 48.9472-70.5024h6.7584z" fill="#FB7630" p-id="4044"></path><path d="M303.5648 405.9136l-53.3504 76.8-4.5568-3.1232 51.1488-73.6768h6.7584z" fill="#FC752F" p-id="4045"></path><path d="M308.9408 405.9136l0.9216 0.6656L254.72 485.888l-4.5056-3.1744 53.3504-76.8h5.376z" fill="#FC742E" p-id="4046"></path><path d="M254.73536 485.888l55.1424-79.3344 4.53632 3.15904-55.1424 79.3344z" fill="#FC732C" p-id="4047"></path><path d="M259.2768 489.02656l55.1424-79.3344 4.53632 3.15904-55.1424 79.3344z" fill="#FC732B" p-id="4048"></path><path d="M263.17312 492.18048l55.07072-79.22688 4.53632 3.15392-55.07072 79.22176z" fill="#FC722A" p-id="4049"></path><path d="M268.41088 495.36l55.1424-79.33952 4.53632 3.15904-55.1424 79.3344z" fill="#FD7129" p-id="4050"></path><path d="M272.25088 498.4832L327.3216 419.26144l4.53632 3.1488L276.7872 501.63712z" fill="#FD7128" p-id="4051"></path><path d="M277.47328 501.69856l55.1424-79.3344 4.53632 3.15392-55.1424 79.3344z" fill="#FD7027" p-id="4052"></path><path d="M337.2032 425.5744l4.096 2.8672v0.8704L286.6176 508.0576l-4.5568-3.1744 55.1424-79.3088z" fill="#FD6F26" p-id="4053"></path><path d="M341.2992 439.04l-50.1248 72.1408-4.5568-3.1232 54.6816-78.7456v9.728z" fill="#FE6E25" p-id="4054"></path><path d="M341.2992 448.7168l-45.568 65.6384-4.5568-3.1744 50.1248-72.1408v9.6768z" fill="#FE6E24" p-id="4055"></path><path d="M341.2992 458.4448l-41.0112 59.0336h-0.1024l-4.4544-3.1232 45.568-65.6384v9.728z" fill="#FE6D23" p-id="4056"></path><path d="M341.2992 468.1728l-34.2528 49.3056h-6.7584l41.0112-59.0336v9.728z" fill="#FE6C22" p-id="4057"></path><path d="M341.2992 477.9008l-27.4944 39.5776h-6.7584l34.2528-49.3056v9.728z" fill="#FF6B21" p-id="4058"></path><path d="M341.2992 487.5776l-20.736 29.9008h-6.7584l27.4944-39.5776v9.6768z" fill="#FF6B20" p-id="4059"></path><path d="M341.2992 497.3056l-13.9776 20.1728h-6.7584l20.736-29.9008v9.728z" fill="#FF6A1F" p-id="4060"></path><path d="M327.3216 517.4784l13.9776-20.1728v20.1728h-13.9776z" fill="#FF6A1F" p-id="4061"></path><path d="M556.0832 269.7728L467.4048 164.6592s67.4816 18.9952 104.192 105.1136a11.7248 11.7248 0 0 1-15.5136 0z" fill="#FFECD7" opacity=".7" p-id="4062"></path><path d="M433.9712 382.976L331.8784 288.768s66.56-2.7648 117.4528 92.16a11.7248 11.7248 0 0 1-15.36 2.048z" fill="#FFECD7" opacity=".7" p-id="4063"></path><path d="M331.9296 493.2096l-108.544-87.04s69.4272 1.1264 123.8016 84.48a11.7248 11.7248 0 0 1-15.2576 2.56z" fill="#FFECD7" opacity=".7" p-id="4064"></path><path d="M868.4544 579.6864zM860.6208 579.6864l7.8336-7.8336v7.8336h-7.8336z" fill="#F97D3A" p-id="4065"></path><path d="M852.7872 579.6864l15.6672-15.6672v7.8336l-7.8336 7.8336h-7.8336z" fill="#F97C39" p-id="4066"></path><path d="M844.9536 579.6864l23.5008-23.5008v7.8336l-15.6672 15.6672h-7.8336z" fill="#F97C38" p-id="4067"></path><path d="M837.0688 579.6864l31.3856-31.3344v7.8336l-23.5008 23.5008h-7.8848z" fill="#FA7B37" p-id="4068"></path><path d="M829.2352 579.6864l39.2192-39.168v7.8336l-31.3856 31.3344h-7.8336z" fill="#FA7A36" p-id="4069"></path><path d="M821.4016 579.6864l47.0528-47.0016v7.8336l-39.2192 39.168h-7.8336z" fill="#FA7935" p-id="4070"></path><path d="M813.568 579.6864l54.8864-54.8352v7.8336l-47.0528 47.0016h-7.8336z" fill="#FA7934" p-id="4071"></path><path d="M807.1168 579.6864l-0.7168-0.6656 62.0544-62.0032v7.8336l-54.8864 54.8352h-6.4512z" fill="#FB7833" p-id="4072"></path><path d="M806.4 579.0208l-3.8912-3.8912 62.6176-62.6688 3.328 3.2768v1.28l-62.0544 62.0032z" fill="#FB7732" p-id="4073"></path><path d="M798.57152 571.17184l62.6688-62.6688 3.91168 3.91168-62.6688 62.6688z" fill="#FB7631" p-id="4074"></path><path d="M794.6752 567.31648l62.6688-62.6688 3.90656 3.91168-62.6688 62.6688z" fill="#FB7630" p-id="4075"></path><path d="M790.72256 563.33824l62.6688-62.6688 3.90656 3.91168-62.6688 62.6688z" fill="#FC752F" p-id="4076"></path><path d="M786.82112 559.43168l62.6688-62.6688 3.90656 3.91168-62.6688 62.6688z" fill="#FC742E" p-id="4077"></path><path d="M782.91968 555.50464l62.6688-62.6688 3.91168 3.91168-62.6688 62.6688z" fill="#FC732C" p-id="4078"></path><path d="M778.96704 551.59808l62.6688-62.6688 3.91168 3.91168-62.6688 62.6688z" fill="#FC732B" p-id="4079"></path><path d="M775.0656 547.67104l62.6688-62.6688 3.91168 3.91168-62.6688 62.6688z" fill="#FC722A" p-id="4080"></path><path d="M771.12832 543.72864l62.6688-62.6688 3.91168 3.91168-62.6688 62.6688z" fill="#FD7129" p-id="4081"></path><path d="M771.1232 543.744l-3.8912-3.8912 61.696-61.7472h1.8944l2.9696 2.9696-62.6688 62.6688z" fill="#FD7128" p-id="4082"></path><path d="M767.232 539.8528l-3.9424-3.9424 57.8048-57.8048h7.8336l-61.696 61.7472z" fill="#FD7027" p-id="4083"></path><path d="M763.2896 535.9104l-3.8912-3.8912 53.8624-53.9136h7.8336l-57.8048 57.8048z" fill="#FD6F26" p-id="4084"></path><path d="M759.3984 532.0192l-3.9424-3.9424 49.9712-49.9712h7.8336l-53.8624 53.9136z" fill="#FE6E25" p-id="4085"></path><path d="M755.456 528.0768l-3.9424-3.9424 46.08-46.0288h7.8336l-49.9712 49.9712z" fill="#FE6E24" p-id="4086"></path><path d="M751.5136 524.1344l-3.8912-3.8912 42.1376-42.1376h7.8336l-46.08 46.0288z" fill="#FE6D23" p-id="4087"></path><path d="M747.6224 520.2432l-3.9424-3.9424 38.2464-38.1952h7.8336l-42.1376 42.1376z" fill="#FE6C22" p-id="4088"></path><path d="M743.68 516.3008l-0.6656-0.7168v-6.4l31.0784-31.0784h7.8336l-38.2464 38.1952z" fill="#FF6B21" p-id="4089"></path><path d="M743.0144 501.3504l23.1936-23.2448h7.8848l-31.0784 31.0784v-7.8336z" fill="#FF6B20" p-id="4090"></path><path d="M743.0144 493.5168l15.36-15.4112h7.8336l-23.1936 23.2448v-7.8336z" fill="#FF6A1F" p-id="4091"></path><path d="M758.3744 478.1056l-15.36 15.4112v-15.4112h15.36z" fill="#FF6A1F" p-id="4092"></path><path d="M744.9088 715.2128zM735.9488 715.2128l8.96-7.0144v7.0144h-8.96z" fill="#F97D3A" p-id="4093"></path><path d="M726.9376 715.2128l17.9712-14.08v7.0656l-8.96 7.0144h-9.0112z" fill="#F97C39" p-id="4094"></path><path d="M717.9776 715.2128l26.9312-21.0944v7.0144l-17.9712 14.08h-8.96z" fill="#F97C38" p-id="4095"></path><path d="M708.9664 715.2128l35.9424-28.16v7.0656l-26.9312 21.0944h-9.0112z" fill="#FA7B37" p-id="4096"></path><path d="M700.0064 715.2128l44.9024-35.1744v7.0144l-35.9424 28.16h-8.96z" fill="#FA7A36" p-id="4097"></path><path d="M690.9952 715.2128l53.9136-42.24v7.0656l-44.9024 35.1744h-9.0112z" fill="#FA7935" p-id="4098"></path><path d="M681.984 715.2128l62.9248-49.2544v7.0144l-53.9136 42.24h-9.0112z" fill="#FA7934" p-id="4099"></path><path d="M676.9152 715.2128l-1.4848-1.8944 69.4784-54.4256v7.0656l-62.9248 49.2544h-5.0688z" fill="#FB7833" p-id="4100"></path><path d="M675.4304 713.3184l-3.4304-4.352 72.9088-57.088v7.0144l-69.4784 54.4256z" fill="#FB7732" p-id="4101"></path><path d="M672 708.9664l-3.3792-4.352 76.288-59.8016v7.0656l-72.9088 57.088z" fill="#FB7631" p-id="4102"></path><path d="M668.6208 704.6144l-3.4304-4.352 79.7184-62.464v7.0144l-76.288 59.8016z" fill="#FB7630" p-id="4103"></path><path d="M665.1904 700.2624l-3.4304-4.4032 83.1488-65.1264v7.0656l-79.7184 62.464z" fill="#FC752F" p-id="4104"></path><path d="M661.76 695.8592l-3.3792-4.352 86.016-67.4304 0.512 0.6656v5.9904l-83.1488 65.1264z" fill="#FC742E" p-id="4105"></path><path d="M654.91968 687.21152l86.05696-67.4048 3.40992 4.352-86.05696 67.4048z" fill="#FC732C" p-id="4106"></path><path d="M651.53536 682.88l86.05696-67.4048 3.40992 4.352-86.05696 67.4048z" fill="#FC732B" p-id="4107"></path><path d="M648.09472 678.49728l86.05696-67.4048 3.40992 4.352-86.05696 67.4048z" fill="#FC722A" p-id="4108"></path><path d="M644.66432 674.09408l86.05696-67.4048 3.40992 4.352-86.05696 67.4048z" fill="#FD7129" p-id="4109"></path><path d="M641.28 669.76256l86.05696-67.4048 3.40992 4.352-86.05696 67.4048z" fill="#FD7128" p-id="4110"></path><path d="M641.28 669.696l-3.4304-4.352 80.7936-63.3344h8.4992l0.2048 0.256-86.0672 67.4304z" fill="#FD7027" p-id="4111"></path><path d="M637.8496 665.344l-3.4304-4.352 75.264-58.9824h8.96l-80.7936 63.3344z" fill="#FD6F26" p-id="4112"></path><path d="M634.4192 660.992l-3.4304-4.4032 69.6832-54.5792h9.0112l-75.264 58.9824z" fill="#FE6E25" p-id="4113"></path><path d="M630.9888 656.5888l-3.3792-4.352 64.1024-50.2272h8.96l-69.6832 54.5792z" fill="#FE6E24" p-id="4114"></path><path d="M627.6096 652.2368l-3.328-4.1984v-0.256l58.4192-45.7728h9.0112l-64.1024 50.2272z" fill="#FE6D23" p-id="4115"></path><path d="M624.2816 640.768l49.4592-38.7584h8.96l-58.4192 45.7728v-7.0144z" fill="#FE6C22" p-id="4116"></path><path d="M624.2816 633.7024l40.448-31.6928h9.0112l-49.4592 38.7584v-7.0656z" fill="#FF6B21" p-id="4117"></path><path d="M624.2816 626.688l31.4368-24.6784h9.0112l-40.448 31.6928v-7.0144z" fill="#FF6B20" p-id="4118"></path><path d="M624.2816 619.6224l22.4768-17.6128h8.96l-31.4368 24.6784v-7.0656zM646.7584 602.0096l-22.4768 17.6128v-17.6128h22.4768z" fill="#FF6A1F" p-id="4119"></path><path d="M627.7632 824.576zM618.0864 824.576l9.6768-6.7584v6.7584h-9.6768z" fill="#F97D3A" p-id="4120"></path><path d="M608.3584 824.576l19.4048-13.5168v6.7584l-9.6768 6.7584h-9.728z" fill="#F97C39" p-id="4121"></path><path d="M598.6304 824.576l29.1328-20.2752v6.7584l-19.4048 13.5168h-9.728z" fill="#F97C38" p-id="4122"></path><path d="M588.9536 824.576l38.8096-27.0336v6.7584l-29.1328 20.2752h-9.6768z" fill="#FA7B37" p-id="4123"></path><path d="M579.2256 824.576l48.5376-33.792v6.7584l-38.8096 27.0336h-9.728z" fill="#FA7A36" p-id="4124"></path><path d="M570.1632 824.576l-0.2048-0.3584 57.8048-40.1408v6.7072l-48.5376 33.792h-9.0624z" fill="#FA7935" p-id="4125"></path><path d="M569.9584 824.2176l-3.1744-4.5568 60.9792-42.3424v6.7584l-57.8048 40.1408z" fill="#FA7934" p-id="4126"></path><path d="M566.784 819.6608l-3.1744-4.5056 64.1536-44.5952v6.7584l-60.9792 42.3424z" fill="#FB7833" p-id="4127"></path><path d="M563.6096 815.1552l-3.1232-4.5568 67.2768-46.7968v6.7584l-64.1536 44.5952z" fill="#FB7732" p-id="4128"></path><path d="M560.4864 810.5984l-3.1744-4.5568 70.4512-48.9984v6.7584l-67.2768 46.7968z" fill="#FB7631" p-id="4129"></path><path d="M557.312 806.0416l-3.1744-4.5568 73.6256-51.2v6.7584l-70.4512 48.9984z" fill="#FB7630" p-id="4130"></path><path d="M554.1376 801.4848l-3.1744-4.5568 76.8-53.4016v6.7584l-73.6256 51.2z" fill="#FC752F" p-id="4131"></path><path d="M550.9632 796.928l-3.1232-4.5568 79.3088-55.1424 0.6144 0.9216v5.376l-76.8 53.4016z" fill="#FC742E" p-id="4132"></path><path d="M544.66048 787.84l79.3344-55.13728 3.15392 4.54144-79.3344 55.1424z" fill="#FC732C" p-id="4133"></path><path d="M541.45024 783.29856l79.3344-55.13728 3.15392 4.54144-79.3344 55.1424z" fill="#FC732B" p-id="4134"></path><path d="M538.2912 778.70592l79.3344-55.13728 3.15392 4.54144-79.3344 55.1424z" fill="#FC722A" p-id="4135"></path><path d="M535.17312 774.13888l79.3344-55.1424 3.15392 4.54144-79.3344 55.1424z" fill="#FD7129" p-id="4136"></path><path d="M532.0448 769.6384l79.3344-55.1424 3.15392 4.54144-79.3344 55.1424z" fill="#FD7128" p-id="4137"></path><path d="M528.83456 765.09696l79.3344-55.1424 3.15392 4.54144-79.3344 55.1424z" fill="#FD7027" p-id="4138"></path><path d="M528.8448 765.0816l-3.1744-4.5568 78.7456-54.7328h0.8704l2.8672 4.1472-79.3088 55.1424z" fill="#FD6F26" p-id="4139"></path><path d="M525.6704 760.5248l-3.1744-4.5568 72.192-50.176h9.728l-78.7456 54.7328z" fill="#FE6E25" p-id="4140"></path><path d="M522.496 755.968l-3.1744-4.5568 65.6384-45.6192h9.728l-72.192 50.176z" fill="#FE6E24" p-id="4141"></path><path d="M519.3216 751.4112l-3.072-4.4544v-0.1536l59.0336-41.0112h9.6768l-65.6384 45.6192z" fill="#FE6D23" p-id="4142"></path><path d="M516.2496 740.0448l49.3056-34.2528h9.728l-59.0336 41.0112v-6.7584z" fill="#FE6C22" p-id="4143"></path><path d="M516.2496 733.3376l39.5776-27.5456h9.728l-49.3056 34.2528v-6.7072z" fill="#FF6B21" p-id="4144"></path><path d="M516.2496 726.5792l29.8496-20.7872h9.728l-39.5776 27.5456v-6.7584z" fill="#FF6B20" p-id="4145"></path><path d="M516.2496 719.8208l20.1728-14.0288h9.6768l-29.8496 20.7872v-6.7584z" fill="#FF6A1F" p-id="4146"></path><path d="M536.4224 705.792l-20.1728 14.0288v-14.0288h20.1728z" fill="#FF6A1F" p-id="4147"></path><path d="M763.904 491.008l104.5504 88.6784s-10.24-56.6272-104.5504-104.1408a11.6736 11.6736 0 0 0 0 15.4624z" fill="#FFECD7" opacity=".7" p-id="4148"></path><path d="M650.752 613.1712l94.1568 102.0928s2.1504-66.9184-92.16-117.504a11.776 11.776 0 0 0-1.9968 15.4112z" fill="#FFECD7" opacity=".7" p-id="4149"></path><path d="M540.5184 715.1616l87.04 109.4144s3.5328-62.3104-84.5312-124.672a11.7248 11.7248 0 0 0-2.5088 15.2576z" fill="#FFECD7" opacity=".7" p-id="4150"></path><path d="M788.48 329.3696s-18.176 31.8464-30.72 42.2912a228.096 228.096 0 0 0-30.72-149.7088c-49.664-82.4832-121.856-27.2384-135.68 11.008a112.64 112.64 0 0 1-98.4064 73.7792c-48.4864 3.5328-88.7296 56.32-127.3856 137.6256s-61.1328 50.8928-124.6208 86.784S199.68 600.1664 174.08 651.8272c-17.3568 34.9696 92.16 84.5824 182.5792 113.152-19.6608 30.72-27.5968 55.6544-17.664 69.888 55.2448 78.8992 121.856 27.2384 135.68-11.008a112.64 112.64 0 0 1 98.2016-73.7792c48.4864-3.5328 88.7296-56.32 127.3856-137.6256s61.1328-50.8928 124.6208-87.04 41.4208-69.0176 67.072-120.6784S845.824 330.1888 788.48 329.3696z" fill="#6A721E" p-id="4151"></path><path d="M765.0816 337.6128l-19.9168 16.384a227.9424 227.9424 0 0 0-30.72-149.76c-49.664-82.4832-121.856-27.1872-135.68 11.0592a112.64 112.64 0 0 1-98.0992 73.7792c-48.4864 3.5328-88.7296 56.32-127.3856 137.6256s-61.1328 50.8928-124.6208 86.7328-41.4208 69.0688-67.072 120.7296c-5.4272 64.6144 92.16 84.5824 182.5792 113.152-19.6608 30.72-27.5968 55.6544-17.664 69.888 55.2448 78.8992 117.2992 24.576 131.1232-13.6704s54.272-67.584 102.7584-71.1168 85.5552-63.0784 124.2112-144.3328 61.44-50.5856 124.7232-86.4768 44.4928-62.6176 70.144-114.2784-56.832-48.896-114.3808-49.7152z" fill="#7E8C2D" p-id="4152"></path><path d="M343.296 831.4368c-10.24-14.2336-1.9968-38.9632 17.664-69.888-7.0144-2.2528-14.08-4.5568-21.1968-7.0144-16.384 27.5456-22.4256 49.5616-13.2608 62.6688a111.872 111.872 0 0 0 29.7984 30.1568 133.12 133.12 0 0 1-13.0048-15.9232zM178.3808 648.3456c25.6-51.6608 3.5328-84.7872 67.0208-120.6784s85.9648-5.5296 124.6208-87.04 78.8992-133.7856 127.4368-137.3696a112.2816 112.2816 0 0 0 98.1504-73.728c11.1616-30.72 60.1088-72.5504 104.6528-44.6976-48.2304-52.992-108.8512-4.2496-121.3952 30.464a112.64 112.64 0 0 1-98.2016 73.7792c-48.4864 3.5328-88.7296 56.32-127.3856 137.6256s-61.1328 50.8928-124.6208 86.7328-41.4208 69.0688-67.072 120.7296c-6.5024 13.056 2.5088 35.3792 23.8592 50.688a35.84 35.84 0 0 1-7.0656-36.5056z" fill="#A3B53A" p-id="4153"></path><path d="M402.944 881.5616c-23.5008 0-58.3168-8.8576-88.8832-52.0704-11.2128-15.7696-7.5776-39.3216 11.0592-71.68l-22.6816-6.7584c-85.8112-25.6-166.912-49.7664-161.28-116.0192a9.5232 9.5232 0 0 1 1.0752-3.7376 173.4144 173.4144 0 0 0 14.4896-46.08c6.0416-28.6208 11.6736-55.6544 59.1872-82.2272a209.2032 209.2032 0 0 1 25.6-12.1856 10.24 10.24 0 0 1 7.4752 19.0464 190.5664 190.5664 0 0 0-23.1936 11.008c-39.3728 22.016-43.4688 41.5232-49.1008 68.5568a197.9904 197.9904 0 0 1-15.36 48.9984c-2.2528 48.384 70.1952 69.9392 146.8928 92.7744 11.776 3.5328 23.6544 7.0656 35.4304 10.752a10.24 10.24 0 0 1 6.6048 6.2976 10.24 10.24 0 0 1-1.024 9.0112c-25.6 39.424-22.528 54.6816-18.5856 60.2112 22.4256 31.6416 51.456 46.848 81.92 42.8032 27.0848-3.6352 47.5136-21.6064 53.0432-36.7104a127.1296 127.1296 0 0 1 110.6944-82.3296c26.7264-1.9456 48.384-18.944 72.3968-56.832a10.24 10.24 0 1 1 17.3056 10.9568c-27.4944 43.4176-54.6816 63.8464-88.2176 66.56a106.5984 106.5984 0 0 0-92.928 68.9152c-9.216 25.1904-37.8368 45.7216-69.5808 49.9712a86.6816 86.6816 0 0 1-12.3392 0.768zM288.4096 497.664a10.24 10.24 0 0 1-3.072-20.0192c18.176-5.632 33.7408-13.5168 55.6032-58.88 23.1424-48.1792 45.2096-83.0976 67.4816-106.8544a10.24 10.24 0 1 1 14.8992 14.0288C402.5344 348.16 381.6448 381.3888 359.3728 427.6224c-23.04 47.9232-41.6768 61.44-67.9424 69.5808a10.5472 10.5472 0 0 1-3.0208 0.4608zM684.5952 650.8544a10.24 10.24 0 0 1-4.608-1.1264 10.24 10.24 0 0 1-4.5056-13.7216q6.144-12.288 12.6464-25.6c27.136-56.32 47.5136-64.3584 81.1008-73.3184a205.4144 205.4144 0 0 0 52.3776-20.1728c39.7312-22.2208 43.8784-46.6944 49.0496-77.7216a217.9584 217.9584 0 0 1 14.08-53.1968c4.8128-11.0592 5.12-19.5072 1.7408-25.1904-11.4176-17.6128-61.8496-18.0736-98.6624-18.432h-7.0144l-17.92 14.1824a10.24 10.24 0 0 1-16.64-9.216 222.1056 222.1056 0 0 0-30.3616-146.8928c-17.1008-28.0576-37.4784-40.96-60.7232-38.7584-29.7984 2.9184-54.9376 29.9008-61.44 48.2304a127.0784 127.0784 0 0 1-110.6944 82.3296A71.936 71.936 0 0 0 450.56 303.2576a10.24 10.24 0 1 1-10.6496-17.5104 93.9008 93.9008 0 0 1 41.7792-13.9264 106.6496 106.6496 0 0 0 92.9792-68.9152c9.7792-26.88 42.752-58.0608 78.848-61.44 21.76-2.1504 53.4016 4.5568 80.1792 48.5376a239.104 239.104 0 0 1 35.2256 135.7312l2.048-1.6384a10.8032 10.8032 0 0 1 6.5536-2.2528h10.6496c46.08 0.4608 98.2528 0.9216 115.6096 27.8016 7.68 11.776 7.6288 26.7776 0 44.4928a194.9696 194.9696 0 0 0-12.9024 48.3328c-5.632 33.4848-10.9568 65.1776-59.2896 92.16a225.6384 225.6384 0 0 1-57.088 22.1184c-28.0576 7.4752-43.52 11.6224-67.9424 62.3616-4.352 9.1136-8.6528 17.8176-12.8 26.0608a10.24 10.24 0 0 1-9.1648 5.6832z" fill="#A04947" p-id="4154"></path><path d="M747.95632 96.408326m98.836557 98.836557l0 0q98.836557 98.836557 0 197.673115l-439.189113 439.189113q-98.836557 98.836557-197.673115 0l0 0q-98.836557-98.836557 0-197.673115l439.189113-439.189113q98.836557-98.836557 197.673115 0Z" fill="#ED5A5A" p-id="4155"></path><path d="M846.7456 195.2768l-2.5088-2.4064a139.8272 139.8272 0 0 1-21.3504 170.1888L383.6928 802.304a139.7248 139.7248 0 0 1-195.1744 2.3552 140.9536 140.9536 0 0 0 21.4016 27.4432 139.776 139.776 0 0 0 197.6832 0l439.1936-439.1936a139.7248 139.7248 0 0 0-0.0512-197.632z" fill="#D33131" p-id="4156"></path><path d="M232.2944 664.1152l439.1936-439.1936a139.776 139.776 0 0 1 197.6832 0l0.4608 0.4608a140.5952 140.5952 0 0 0-22.8864-30.1056 139.776 139.776 0 0 0-197.6832 0L209.92 634.4704a139.7248 139.7248 0 0 0-0.4608 197.1712 139.8272 139.8272 0 0 1 22.8352-167.5264z" fill="#FFFFFF" p-id="4157"></path><path d="M509.7472 344.832a10.24 10.24 0 0 1-7.2704-17.4592l104.448-104.448a10.24 10.24 0 1 1 14.4896 14.4384L517.12 341.8624a10.24 10.24 0 0 1-7.3728 2.9696zM448.3584 406.2208a10.24 10.24 0 0 1-7.2704-17.4592l13.7216-13.7216a10.24 10.24 0 1 1 14.4896 14.4896L455.68 403.2512a10.24 10.24 0 0 1-7.3216 2.9696zM308.736 883.2a149.9648 149.9648 0 0 1-106.0864-256l204.288-204.288a10.24 10.24 0 1 1 14.4896 14.4896l-204.288 204.288a129.536 129.536 0 0 0 183.1424 183.1936l119.0912-119.0912a10.24 10.24 0 1 1 14.4896 14.4896L414.72 839.3728a149.4528 149.4528 0 0 1-105.984 43.8272zM575.5392 674.3552a10.24 10.24 0 0 1-7.2192-17.5104l271.36-271.36a129.536 129.536 0 1 0-183.1424-183.1936 10.24 10.24 0 0 1-14.4896-14.4896 150.016 150.016 0 0 1 212.1216 212.1728l-271.36 271.36a10.24 10.24 0 0 1-7.2704 3.0208z" fill="#A04947" p-id="4158"></path><path d="M230.4 820.7872a15.616 15.616 0 0 1-4.5568-10.496c-1.3824-41.6256 7.1168-71.2704 26.0096-90.6752C280.1152 690.5856 324.096 691.2 370.688 691.2h25.6c59.5968-0.768 63.0272-26.8288 65.6384-117.0944l0.3072-10.24c1.2288-39.68 11.52-67.7888 31.488-85.9648 28.2112-25.6 71.68-28.6208 128-25.0368 27.3408 1.7408 47.36-4.2496 61.44-18.176 20.48-20.48 28.416-60.1088 24.2176-117.76-5.9904-82.688 61.44-111.3088 97.8944-114.8416a15.36 15.36 0 0 1 3.072 31.0272c-7.7312 0.768-75.0592 9.9328-69.888 81.5616 5.12 68.0448-5.9392 114.5344-33.1776 142.0288-20.224 20.48-48.9472 29.6448-85.248 27.3408-42.1376-2.6624-84.0192-2.4064-105.3696 16.9984-13.3632 12.1856-20.48 33.0752-21.2992 63.8464l-0.3072 10.24c-2.4576 84.8384-4.2496 146.1248-96.3584 147.3024h-26.112c-39.7824-0.3584-77.312-0.6656-96.3584 18.8928-12.6464 13.0048-18.2784 35.1744-17.152 67.8912a15.36 15.36 0 0 1-26.624 11.52z" fill="#C42620" p-id="4159"></path><path d="M223.7952 811.1104a15.8208 15.8208 0 0 1-4.5568-10.24c-1.3824-41.6256 7.1168-71.2704 26.0096-90.6752 28.3648-29.0816 72.3456-28.7232 118.9376-28.3136h25.6c59.5968-0.768 63.0272-26.8288 65.6384-117.0432l0.3072-10.24c1.2288-39.6288 11.52-67.7376 31.488-85.9136 28.2112-25.6 71.68-28.6208 128.256-25.088 27.3408 1.7408 47.36-4.1984 61.184-18.1248 20.48-20.48 28.416-60.16 24.2176-117.76-5.9904-82.7392 61.44-111.3088 97.8944-114.8928a15.36 15.36 0 0 1 3.072 31.0272c-7.7312 0.8192-75.0592 9.984-69.888 81.6128 5.12 68.0448-5.9392 114.4832-33.1776 142.0288-20.224 20.48-48.9472 29.5936-85.2992 27.3408-42.0864-2.6624-83.968-2.4576-105.3184 16.9984-13.3632 12.1856-20.48 33.0752-21.2992 63.8464l-0.3072 10.24c-2.6112 84.3264-4.4032 145.7664-96.512 146.8928h-26.112c-39.7824-0.3072-77.312-0.6144-96.3584 18.944-12.6464 12.9536-18.2784 35.1744-17.152 67.84a15.36 15.36 0 0 1-26.624 11.5712z" fill="#FFECD7" p-id="4160"></path></svg>