<?xml version="1.0" standalone="no"?><!DOCTYPE svg PUBLIC "-//W3C//DTD SVG 1.1//EN" "http://www.w3.org/Graphics/SVG/1.1/DTD/svg11.dtd"><svg t="1755432748345" class="icon" viewBox="0 0 1024 1024" version="1.1" xmlns="http://www.w3.org/2000/svg" p-id="3614" xmlns:xlink="http://www.w3.org/1999/xlink" width="200" height="200"><path d="M522.24 78.5408a441.2928 441.2928 0 1 0 441.2928 441.2928A441.2928 441.2928 0 0 0 522.24 78.5408z m0 621.312a180.0192 180.0192 0 1 1 180.0192-180.0192A180.0192 180.0192 0 0 1 522.24 699.8528z" fill="#FFFFFF" p-id="3615"></path><path d="M963.328 519.8336c0-175.2064-104.1408-326.5024-255.0272-397.7728a458.2912 458.2912 0 0 0-131.7888-19.2512c-248.6784 0-450.2528 197.5808-450.2528 441.344 0 174.8992 103.7312 325.9904 254.208 397.4144a457.0624 457.0624 0 0 0 132.6592 19.5072c248.6272 0 450.2016-197.5296 450.2016-441.2416z m-450.2016 180.0192c-101.4272 0-183.6544-80.64-183.6544-180.0192s82.2272-180.0192 183.6544-180.0192 183.6544 80.5888 183.6544 180.0192-82.3808 180.0192-183.6544 180.0192z" fill="#FED589" p-id="3616"></path><path d="M840.96 217.4464A445.44 445.44 0 0 1 247.1424 844.8a450.56 450.56 0 0 0 133.12 96.5632 457.0624 457.0624 0 0 0 132.6592 19.5072c248.6272 0 450.2016-197.5296 450.2016-441.2416a435.2 435.2 0 0 0-122.1632-302.1824z" fill="#FFB069" p-id="3617"></path><path d="M522.24 971.3152a453.4272 453.4272 0 0 1-363.52-183.6032 10.24 10.24 0 1 1 16.4352-12.1856 428.9024 428.9024 0 1 0-54.6816-99.072 10.24 10.24 0 1 1-19.0976 7.424 451.6352 451.6352 0 1 1 420.864 287.4368z m-377.2416-212.224a10.24 10.24 0 0 1-8.7552-5.12c-5.4784-9.0112-10.752-18.3808-15.616-27.8016a10.24 10.24 0 0 1 18.2272-9.3696 433.152 433.152 0 0 0 14.848 26.5216 10.24 10.24 0 0 1-8.704 15.36z m377.2416-48.9984a190.2592 190.2592 0 1 1 190.2592-190.2592A190.464 190.464 0 0 1 522.24 710.0928z m0-360.0384a169.7792 169.7792 0 1 0 169.7792 169.7792A169.984 169.984 0 0 0 522.24 350.0544z" fill="#A5684D" p-id="3618"></path><path d="M223.2832 622.1312c74.0864 79.872 136.2432 47.104 157.696 11.008a19.2512 19.2512 0 0 0-0.5632-20.48 169.6256 169.6256 0 1 1 248.4224 38.8096 20.48 20.48 0 0 0-3.1232 28.5696c20.7872 26.4192 52.0704 57.1392 86.6304 59.136 61.44 3.584 77.9264-38.3488 93.5936-58.8288 22.1184-34.9696 79.616-48.1792 102.4 16.1792a15.7184 15.7184 0 0 0 29.184 0.512A451.6864 451.6864 0 1 0 76.288 591.36a19.8144 19.8144 0 0 0 29.952 13.8752c33.024-21.248 74.9056-28.4672 117.0432 16.896z" fill="#FFFFFF" p-id="3619"></path><path d="M936.96 697.1392a441.856 441.856 0 0 0 36.352-202.9056c-8.192-144.4352-86.6304-271.36-202.0352-348.16-59.2896-35.84-122.88-50.5856-192.5632-52.1216-265.6768-5.8368-460.8 183.1936-452.352 450.2016 0.4608 15.36 0.768 30.72 2.3552 45.3632 24.8832-3.84 52.1728 3.6864 79.5136 32.6144 75.6224 79.872 151.6544 46.5408 173.5168 10.24a18.944 18.944 0 0 0-0.512-20.48 171.9296 171.9296 0 0 1-26.2656-114.3808C363.52 419.84 414.0032 359.9872 493.3632 351.2832 597.5552 339.9168 686.08 419.84 686.08 519.8336a167.936 167.936 0 0 1-64.256 131.7376 20.48 20.48 0 0 0-3.1744 28.5696C640 706.56 671.7952 737.28 707.072 739.2768c62.6176 3.584 79.5136-38.3488 95.488-58.8288 22.528-34.9696 81.2032-48.1792 104.4992 16.1792a16.1792 16.1792 0 0 0 29.9008 0.512z" fill="#FF7888" p-id="3620"></path><path d="M973.2096 494.2336a447.8976 447.8976 0 0 0-162.56-318.6688A445.44 445.44 0 0 1 865.28 652.6976c16.64 4.096 32.256 17.408 41.8304 43.9296a16.1792 16.1792 0 0 0 29.7984 0.512 441.856 441.856 0 0 0 36.3008-202.9056z" fill="#FF577B" p-id="3621"></path><path d="M966.4512 448a10.24 10.24 0 0 1-10.24-8.3456c-36.9152-199.68-210.688-351.3856-413.2352-360.8064a440.6784 440.6784 0 0 0-152.1664 19.4048 10.24 10.24 0 0 1-6.0928-19.5584 462.592 462.592 0 0 1 159.232-20.48c211.9168 9.8816 393.7792 168.6528 432.384 377.5488a10.24 10.24 0 0 1-8.192 11.9296 11.8272 11.8272 0 0 1-1.6896 0.3072zM719.6672 749.7216h-7.936c-38.6048-2.2528-72.448-35.5328-94.0544-63.0784a30.72 30.72 0 0 1 4.7104-42.8032A159.2832 159.2832 0 1 0 389.12 607.1296a29.5936 29.5936 0 0 1 0.8192 31.232 88.6272 88.6272 0 0 1-66.304 42.9056c-24.6272 2.6112-63.3344-4.3008-107.52-52.1728-32.1024-34.6112-66.0992-39.5776-103.9872-15.36a29.4912 29.4912 0 0 1-27.9552 2.0992A30.4128 30.4128 0 0 1 66.56 592.896a456.8064 456.8064 0 0 1-5.888-73.1648A464.9984 464.9984 0 0 1 322.56 103.2704a10.24 10.24 0 0 1 8.8576 18.4832 444.3648 444.3648 0 0 0-250.88 398.08 439.6032 439.6032 0 0 0 5.632 69.888 9.7792 9.7792 0 0 0 5.9904 7.4752 8.6528 8.6528 0 0 0 8.4992-0.5632c46.08-29.7472 91.2896-23.3472 130.0992 18.5344 30.72 32.9728 61.9008 48.7424 90.5728 45.7216a69.12 69.12 0 0 0 50.8416-33.024 9.1136 9.1136 0 0 0-0.3072-9.5232 178.1248 178.1248 0 0 1-28.3136-119.04 179.8144 179.8144 0 1 1 291.84 160.256 10.24 10.24 0 0 0-1.536 14.2336c19.0464 24.2176 48.1792 53.4528 79.1552 55.2448 46.08 2.6624 63.3856-23.04 77.2096-43.7248 2.5088-3.84 5.12-7.4752 7.424-10.7008 14.4384-22.5792 40.448-35.84 64.8704-33.2288 14.4896 1.6384 40.96 10.24 55.6544 51.8144a4.7104 4.7104 0 0 0 4.6592 3.328 5.4272 5.4272 0 0 0 5.4272-3.4304 436.1728 436.1728 0 0 0 34.8672-198.2976 10.24 10.24 0 1 1 20.48-1.1264A457.1648 457.1648 0 0 1 947.2 701.44a25.9072 25.9072 0 0 1-24.9344 15.8208 25.6 25.6 0 0 1-23.296-16.9472c-8.2432-23.1424-21.6064-36.4032-38.656-38.2976s-35.328 8.0896-45.5168 24.1664l-0.512 0.768c-2.1504 2.816-4.5056 6.2976-6.9632 9.984-14.3872 21.0944-35.5328 52.7872-87.6544 52.7872z" fill="#A04947" p-id="3622"></path><path d="M456.6528 288.3584a13.8752 13.8752 0 0 1-7.4752-25.6L499.8144 230.4a13.8752 13.8752 0 1 1 14.8992 23.4496l-50.6368 32.256a14.0288 14.0288 0 0 1-7.424 2.2528z" fill="#3BD5FF" p-id="3623"></path><path d="M194.2016 463.3088H137.4208a13.9264 13.9264 0 1 1 0-27.8016h56.7808a13.9264 13.9264 0 0 1 0 27.8016z" fill="#85FFC2" p-id="3624"></path><path d="M762.88 487.1168a13.6192 13.6192 0 0 1-7.0656-1.9456l-39.936-23.808a13.8752 13.8752 0 1 1 14.2336-23.8592l39.936 23.7568a13.9264 13.9264 0 0 1-7.168 25.6z" fill="#FFFFFF" p-id="3625"></path><path d="M830.3616 579.9936a13.9264 13.9264 0 0 1-5.7856-26.5728l45.3632-20.48a13.8752 13.8752 0 0 1 11.52 25.2928l-45.3632 20.48a13.5168 13.5168 0 0 1-5.7344 1.28z" fill="#3BD5FF" p-id="3626"></path><path d="M817.3056 309.0944h-65.2288a13.9264 13.9264 0 1 1 0-27.8016h65.2288a13.9264 13.9264 0 0 1 0 27.8016z" fill="#FF97E9" p-id="3627"></path><path d="M604.672 205.2608a13.8752 13.8752 0 0 1-12.4928-7.8336l-20.1216-40.96a13.8752 13.8752 0 1 1 24.9344-12.2368l20.1728 41.216a13.8752 13.8752 0 0 1-6.4 18.5856 13.6192 13.6192 0 0 1-6.0928 1.2288z" fill="#FFFFFF" p-id="3628"></path><path d="M322.56 350.5152a13.8752 13.8752 0 0 1-12.8512-8.6016L286.72 285.9008a13.9264 13.9264 0 1 1 25.6-10.5984l23.04 56.0128a13.8752 13.8752 0 0 1-12.8 19.2zM260.1984 579.9936a13.9264 13.9264 0 0 1-5.5808-26.6752l47.616-20.48a13.8752 13.8752 0 1 1 11.0592 25.6l-47.5648 20.48a14.1312 14.1312 0 0 1-5.5296 1.0752z" fill="#FFEDC0" p-id="3629"></path></svg>