<?xml version="1.0" standalone="no"?><!DOCTYPE svg PUBLIC "-//W3C//DTD SVG 1.1//EN" "http://www.w3.org/Graphics/SVG/1.1/DTD/svg11.dtd"><svg t="1755432727717" class="icon" viewBox="0 0 1024 1024" version="1.1" xmlns="http://www.w3.org/2000/svg" p-id="2615" xmlns:xlink="http://www.w3.org/1999/xlink" width="200" height="200"><path d="M854.2208 902.0928H185.7536v-379.4944a366.3872 366.3872 0 0 1 366.3872-366.4384H604.16a366.3872 366.3872 0 0 1 366.3872 366.3872v263.0656a116.48 116.48 0 0 1-116.3264 116.48z" fill="#FF8A50" p-id="2616"></path><path d="M650.24 159.1296a366.5408 366.5408 0 0 1 252.16 348.16v263.0144a116.5312 116.5312 0 0 1-116.48 116.48H185.7536v15.36h668.3136a116.5312 116.5312 0 0 0 116.48-116.48v-263.1168A366.3872 366.3872 0 0 0 650.24 159.1296z" fill="#F26527" p-id="2617"></path><path d="M854.0672 912.3328H185.7536a10.24 10.24 0 0 1-10.24-10.24v-379.5456a377.0368 377.0368 0 0 1 376.6272-376.6272H604.16a373.1456 373.1456 0 0 1 273.7664 117.76 10.24 10.24 0 1 1-14.8992 14.08A352.7168 352.7168 0 0 0 604.16 166.4h-52.0192a356.608 356.608 0 0 0-356.1472 356.1472v369.3056h658.0736a106.3936 106.3936 0 0 0 106.24-106.24v-263.0656a359.168 359.168 0 0 0-8.3456-76.8 10.24 10.24 0 1 1 19.968-4.4032 377.3952 377.3952 0 0 1 8.8576 81.4592v263.0656a126.8736 126.8736 0 0 1-126.72 126.464z" fill="#A04947" p-id="2618"></path><path d="M939.6224 385.2288a10.24 10.24 0 0 1-9.4208-6.144 354.1504 354.1504 0 0 0-19.8144-38.4512 10.24 10.24 0 0 1 17.6128-10.24 376.4736 376.4736 0 0 1 20.992 40.6528 10.24 10.24 0 0 1-5.12 13.4656 9.728 9.728 0 0 1-4.2496 0.7168z" fill="#A04947" p-id="2619"></path><path d="M839.68 513.8432a175.0528 175.0528 0 0 0-140.3392-279.8592 175.9744 175.9744 0 0 0-29.0816 2.4576 177.2032 177.2032 0 0 0-327.68-8.9088 165.12 165.12 0 1 0 60.2112 216.9856 176.4864 176.4864 0 0 0 101.8368 32.256 179.2 179.2 0 0 0 32.1536-2.9696 175.4112 175.4112 0 0 0 112.0768 102.7584 164.6592 164.6592 0 0 0-28.7744 93.184c0 91.1872 73.8816 190.6688 165.0688 190.6688s165.12-99.4816 165.12-190.6688a165.12 165.12 0 0 0-110.592-155.904z" fill="#4CDB34" p-id="2620"></path><path d="M838.9632 561.5616c34.3552 11.9808 88.1152 45.6192 107.9296 75.4176-8.192-40.5504-23.1936-104.8064-107.52-122.88a42.0864 42.0864 0 0 1-0.4096 47.4624z" fill="#73F958" p-id="2621"></path><path d="M115.4048 426.496a165.12 165.12 0 0 1 251.4432-140.6976 177.2544 177.2544 0 0 1 327.68 8.9088A174.6944 174.6944 0 0 1 870.4 372.3776a174.8992 174.8992 0 0 0-200.2432-135.936 177.2032 177.2032 0 0 0-327.68-8.9088 165.0688 165.0688 0 0 0-223.7952 231.7824 164.7616 164.7616 0 0 1-3.2768-32.8192z" fill="#FFFFFF" p-id="2622"></path><path d="M138.24 263.168a10.24 10.24 0 0 1-7.3728-17.408 175.4112 175.4112 0 0 1 207.4112-32.6144A188.7744 188.7744 0 0 1 418.4576 133.12a10.24 10.24 0 1 1 9.4208 18.176 167.9872 167.9872 0 0 0-75.8272 80.384 10.24 10.24 0 0 1-6.2976 5.632 10.24 10.24 0 0 1-8.3968-1.0752 154.9312 154.9312 0 0 0-191.7952 23.8592 10.24 10.24 0 0 1-7.3216 3.072zM864.768 535.3472a10.24 10.24 0 0 1-5.12-1.28 153.6 153.6 0 0 0-23.7056-10.5472 10.24 10.24 0 0 1-4.8128-15.8208 163.1744 163.1744 0 0 0 32.8192-98.7136 164.7104 164.7104 0 0 0-192.1536-162.4576 10.24 10.24 0 0 1-11.264-6.4512 167.8336 167.8336 0 0 0-156.0576-107.52 163.84 163.84 0 0 0-27.4432 2.2528 10.24 10.24 0 0 1-11.776-8.448 10.24 10.24 0 0 1 8.3968-11.776A187.904 187.904 0 0 1 676.7616 225.28a185.2416 185.2416 0 0 1 207.8208 183.8592 183.6544 183.6544 0 0 1-29.2864 100.0448c5.12 2.1504 9.728 4.5568 14.4384 7.1168a10.24 10.24 0 0 1-5.12 19.2zM785.152 870.656c-98.7136 0-175.3088-107.9808-175.3088-200.9088a174.6432 174.6432 0 0 1 23.4496-87.6544 187.2896 187.2896 0 0 1-102.7584-96.9216 185.6 185.6 0 0 1-124.2112-26.0608 175.36 175.36 0 0 1-300.544-180.6848 10.24 10.24 0 0 1 17.5616 10.24A154.88 154.88 0 1 0 393.728 439.808a10.24 10.24 0 0 1 14.9504-3.6352 165.7344 165.7344 0 0 0 126.2592 27.5456 10.24 10.24 0 0 1 11.3664 6.2976 166.2976 166.2976 0 0 0 105.5232 96.768 10.24 10.24 0 0 1 5.4784 15.36 154.0096 154.0096 0 0 0-26.9824 87.3984c0 83.456 67.6352 180.4288 154.8288 180.4288 71.68 0 154.88-78.7968 154.88-180.4288a153.6 153.6 0 0 0-30.72-92.6208 10.24 10.24 0 0 1 16.384-12.288 174.08 174.08 0 0 1 34.8672 104.9088c-0.0512 93.3376-76.6464 201.1136-175.4112 201.1136z" fill="#A5684D" p-id="2623"></path><path d="M827.4432 806.5024v-196.9152A366.3872 366.3872 0 0 0 461.056 243.2H409.0368a366.3872 366.3872 0 0 0-366.3872 366.3872v176.0256a116.5312 116.5312 0 0 0 116.48 116.48H824.32c59.904 2.8672 77.9264-10.496 77.9264-10.496-61.5936 0-72.8064-55.552-74.8032-85.0944z" fill="#FFDC6E" p-id="2624"></path><path d="M902.2464 891.648z" fill="#FFE6AE" p-id="2625"></path><path d="M108.8 829.696v-175.9744a366.3872 366.3872 0 0 1 366.3872-366.3872H527.36a364.4416 364.4416 0 0 1 168.96 41.2672A364.5952 364.5952 0 0 0 461.056 243.2H409.0368a366.3872 366.3872 0 0 0-366.3872 366.3872v176.0256a116.5824 116.5824 0 0 0 88.832 113.152 116.1728 116.1728 0 0 1-22.6816-69.0688z" fill="#FFFFFF" p-id="2626"></path><path d="M780.2368 430.08a365.2096 365.2096 0 0 1 20.48 121.1392v196.864c1.1264 19.456 6.5024 50.0736 27.4944 68.8128-0.4608-3.584-0.768-7.0144-0.9216-10.24v-197.0688A364.4928 364.4928 0 0 0 780.2368 430.08zM834.56 843.1104a290.0992 290.0992 0 0 1-36.5568 0.3072H132.5568a116.0704 116.0704 0 0 1-88.6784-40.96 116.5312 116.5312 0 0 0 115.2512 99.6352H824.32c59.904 2.8672 77.9264-10.496 77.9264-10.496-40.2432 0-59.136-23.7568-67.6864-48.4864z" fill="#FFCB39" p-id="2627"></path><path d="M46.8992 564.0704h-1.5872a10.24 10.24 0 0 1-8.5504-11.6736A376.7296 376.7296 0 0 1 409.0368 232.96h52.0192a375.2448 375.2448 0 0 1 292.9664 139.9296 10.24 10.24 0 0 1-15.9232 12.8512A354.9696 354.9696 0 0 0 461.056 253.44H409.0368a356.352 356.352 0 0 0-352.0512 302.08 10.24 10.24 0 0 1-10.0864 8.5504zM827.4432 687.616a10.24 10.24 0 0 1-10.24-10.24v-67.7888a354.8672 354.8672 0 0 0-52.3264-185.856 10.24 10.24 0 1 1 17.4592-10.7008 375.6032 375.6032 0 0 1 55.3472 196.5568v67.7888a10.24 10.24 0 0 1-10.24 10.24zM840.704 912.6912c-5.12 0-10.8032 0-16.7936-0.4096H159.1296a126.8736 126.8736 0 0 1-126.72-126.6688v-117.2992a10.24 10.24 0 0 1 20.48 0v117.2992a106.3936 106.3936 0 0 0 106.24 106.24H824.32a282.368 282.368 0 0 0 35.584-0.3584c-25.2928-14.4384-40.3968-43.4688-42.8032-84.4288v-68.4544a10.24 10.24 0 0 1 20.48 0v67.584c3.7888 62.1056 37.2224 75.1616 64.6656 75.1616a10.24 10.24 0 0 1 6.0928 18.4832c-1.8432 1.28-18.7904 12.8512-67.6352 12.8512zM42.6496 635.2896a10.24 10.24 0 0 1-10.24-10.24v-15.36a10.24 10.24 0 0 1 20.48 0v15.36a10.24 10.24 0 0 1-10.24 10.24z" fill="#A5684D" p-id="2628"></path></svg>