<?xml version="1.0" standalone="no"?><!DOCTYPE svg PUBLIC "-//W3C//DTD SVG 1.1//EN" "http://www.w3.org/Graphics/SVG/1.1/DTD/svg11.dtd"><svg t="1755432751698" class="icon" viewBox="0 0 1024 1024" version="1.1" xmlns="http://www.w3.org/2000/svg" p-id="3779" xmlns:xlink="http://www.w3.org/1999/xlink" width="200" height="200"><path d="M597.56544 138.2144l68.11648 18.97984a12.4928 12.4928 0 0 1 8.6784 15.3856l-146.05824 524.1856-92.18048-25.68192 146.05824-524.1856a12.4928 12.4928 0 0 1 15.3856-8.68352z" fill="#FDD981" p-id="3780"></path><path d="M597.57056 138.0864l0.5888 0.16896a12.4928 12.4928 0 0 1 8.68352 15.3856L460.73856 677.97504l-24.65792-6.87104 146.0736-524.2368a12.4928 12.4928 0 0 1 15.4112-8.7808z" fill="#FFFFFF" p-id="3781"></path><path d="M662.02624 156.1856l3.59936 1.00352a12.4928 12.4928 0 0 1 8.68352 15.3856l-146.0736 524.2368-27.66848-7.71072 146.0736-524.2368a12.4928 12.4928 0 0 1 15.3856-8.6784z" fill="#FFC248" p-id="3782"></path><path d="M528.2304 707.072a10.24 10.24 0 0 1-2.7648-0.4096l-92.16-25.6a10.24 10.24 0 0 1-7.1168-12.5952l146.0736-524.288a22.784 22.784 0 0 1 28.0064-15.8208l68.096 18.9952a22.784 22.784 0 0 1 15.8208 28.0064l-146.1248 524.1856a10.24 10.24 0 0 1-9.8304 7.5264z m-79.5648-43.0592l72.448 20.1728 143.36-514.304a2.2528 2.2528 0 0 0-1.536-2.816l-68.096-18.944a2.2016 2.2016 0 0 0-2.7648 1.536z" fill="#A5684D" p-id="3783"></path><path d="M828.17536 243.17952l71.41888 19.90144a10.8032 10.8032 0 0 1 7.50592 13.30688L760.58624 802.2016l-92.18048-25.68704 146.52928-525.85984a10.8032 10.8032 0 0 1 13.24032-7.4752z" fill="#FDD981" p-id="3784"></path><path d="M689.92 779.3664l145.7664-522.9056a10.8032 10.8032 0 0 0-7.5264-13.2608 10.752 10.752 0 0 0-13.2608 7.68l-146.5344 525.6704 92.16 25.6 0.8192-2.9184z" fill="#FFFFFF" p-id="3785"></path><path d="M738.6624 785.9712l24.4736 6.8096L907.0592 276.48a10.752 10.752 0 0 0-7.4752-13.2608l-3.7376-1.0752a10.8032 10.8032 0 0 0-13.2608 7.5264z" fill="#FFC248" p-id="3786"></path><path d="M760.5248 812.4416a10.24 10.24 0 0 1-2.7648-0.3584l-92.16-25.6a10.24 10.24 0 0 1-7.1168-12.5952l146.5344-525.824a21.0432 21.0432 0 0 1 25.9072-14.6432l71.68 19.9168a21.0432 21.0432 0 0 1 14.592 25.9072l-146.5856 525.824a10.24 10.24 0 0 1-9.8304 7.4752z m-79.5648-43.008l72.448 20.1728 143.7696-515.9936a0.512 0.512 0 0 0-0.3584-0.6656l-71.3728-19.8656a0.4608 0.4608 0 0 0-0.6656 0.3584z" fill="#A5684D" p-id="3787"></path><path d="M748.5696 105.0112l72.62208 14.3872a10.8032 10.8032 0 0 1 8.4992 12.6976l-122.21952 616.69376-93.87008-18.60608 122.21952-616.68864a10.8032 10.8032 0 0 1 12.6976-8.4992z" fill="#FDD981" p-id="3788"></path><path d="M635.5968 730.2144L757.0432 117.76a10.8544 10.8544 0 0 0-8.4992-12.7488 10.8544 10.8544 0 0 0-12.6976 8.4992l-122.2656 616.704 93.7984 18.5856 0.8704-4.1984z" fill="#FFFFFF" p-id="3789"></path><path d="M682.8032 732.16l26.8288 5.12L829.44 132.1472a10.752 10.752 0 0 0-8.4992-12.6976l-5.5808-1.1264a10.8032 10.8032 0 0 0-12.6976 8.4992z" fill="#FFCA55" p-id="3790"></path><path d="M707.3792 759.04a8.8064 8.8064 0 0 1-1.9968 0l-93.7984-18.5856a10.24 10.24 0 0 1-8.0384-12.032l122.2656-616.8576a20.8384 20.8384 0 0 1 8.9088-13.4144 21.0944 21.0944 0 0 1 15.8208-3.1744l72.6016 14.3872A21.1456 21.1456 0 0 1 839.68 134.144l-39.7824 200.3968a10.24 10.24 0 0 1-20.0704-3.9936l39.7312-200.3968a0.5632 0.5632 0 0 0-0.4608-0.6656l-72.6016-14.3872a0.6144 0.6144 0 0 0-0.6656 0.4096L625.6128 721.92l73.728 14.6432L757.76 443.4432a10.24 10.24 0 1 1 20.0704 3.9936l-60.16 303.36a9.9328 9.9328 0 0 1-4.352 6.5024 10.24 10.24 0 0 1-5.9392 1.7408z" fill="#A5684D" p-id="3791"></path><path d="M445.44 137.5232h74.5472a10.5472 10.5472 0 0 1 10.5472 10.5472v546.0992H434.7392V148.0704A10.5472 10.5472 0 0 1 445.44 137.5232z" fill="#FDD981" p-id="3792"></path><path d="M445.44 137.5232h8.704a10.5472 10.5472 0 0 1 10.5472 10.5472v546.0992h-29.952V148.0704A10.5472 10.5472 0 0 1 445.44 137.5232z" fill="#FFFFFF" p-id="3793"></path><path d="M514.6624 137.5232h5.12a10.5472 10.5472 0 0 1 10.5472 10.5472v546.0992h-26.2144V148.0704a10.5472 10.5472 0 0 1 10.5472-10.5472z" fill="#FFCA55" p-id="3794"></path><path d="M530.432 704.4096H434.7392a10.24 10.24 0 0 1-10.24-10.24V148.0704A20.8384 20.8384 0 0 1 445.44 127.2832h74.5472a20.7872 20.7872 0 0 1 20.7872 20.7872v285.44a10.24 10.24 0 0 1-20.48 0V148.0704L445.44 147.7632l-0.3072 536.1664h75.0592v-137.9328a10.24 10.24 0 0 1 20.48 0v148.1728a10.24 10.24 0 0 1-10.24 10.24z" fill="#A5684D" p-id="3795"></path><path d="M260.57216 86.6816l76.4416-17.3824a8.6528 8.6528 0 0 1 10.35264 6.51776l121.46688 534.20544-93.312 21.21728L254.0544 97.03424a8.6528 8.6528 0 0 1 6.51776-10.35264z" fill="#FDD981" p-id="3796"></path><path d="M324.8128 72.02304l12.1856-2.7648a8.6528 8.6528 0 0 1 10.35264 6.51776l121.46688 534.20032-29.06112 6.6048L318.29504 82.3808a8.6528 8.6528 0 0 1 6.51776-10.35776z" fill="#FFC248" p-id="3797"></path><path d="M260.5824 86.656l10.33216-2.35008a8.6528 8.6528 0 0 1 10.22464 6.39488l121.46688 534.20544-27.1104 6.16448L254.0288 96.86528a8.6528 8.6528 0 0 1 6.51776-10.35776z" fill="#FFFFFF" p-id="3798"></path><path d="M375.6032 641.5872a10.24 10.24 0 0 1-10.24-7.9872L244.0704 99.2256A18.8928 18.8928 0 0 1 258.304 76.8l76.4416-17.408a18.8928 18.8928 0 0 1 22.5792 14.2336l121.5488 534.2208a10.24 10.24 0 0 1-7.68 12.2368l-93.2864 21.248a11.776 11.776 0 0 1-2.304 0.256zM264.3968 96.256l118.9376 522.8544 73.3184-16.6912L337.92 79.5648z" fill="#A5684D" p-id="3799"></path><path d="M146.9184 219.45344l67.00544-19.68128a12.9024 12.9024 0 0 1 16.01536 8.73984L383.19104 730.2144l-91.81696 26.97216L138.14272 235.53024a12.9024 12.9024 0 0 1 8.74496-16.01536z" fill="#FDD981" p-id="3800"></path><path d="M146.944 219.46368l3.24608-0.95232a12.9024 12.9024 0 0 1 16.01536 8.74496L319.46752 749.0048l-28.00128 8.22784L138.21952 235.53024a12.9024 12.9024 0 0 1 8.7296-16.06656z" fill="#FFFFFF" p-id="3801"></path><path d="M213.92896 199.75168a12.9024 12.9024 0 0 1 16.01536 8.74496l153.24672 521.7024-24.56064 7.21408L205.39392 215.76192a12.9024 12.9024 0 0 1 8.53504-16.01024z" fill="#FFCA55" p-id="3802"></path><path d="M291.3792 767.488a10.24 10.24 0 0 1-9.7792-7.3728L128.3584 238.4384a23.0912 23.0912 0 0 1 1.8944-17.664A22.784 22.784 0 0 1 144.0256 209.92l67.0208-19.6608a23.1424 23.1424 0 0 1 28.7232 15.6672l153.2416 521.728a10.24 10.24 0 0 1-6.9632 12.6976l-91.8016 26.9824a11.4176 11.4176 0 0 1-2.8672 0.1536z m-73.8304-558.08h-0.768l-66.9696 19.9168A2.4576 2.4576 0 0 0 148.48 230.4a2.6112 2.6112 0 0 0-0.256 2.048l150.3232 512 72.192-21.1968L220.16 211.456a2.7136 2.7136 0 0 0-2.6112-1.9456z" fill="#A5684D" p-id="3803"></path><path d="M254.5152 151.3984h102.912v576.256h-102.912z" fill="#FDD981" p-id="3804"></path><path d="M254.5152 151.3984h26.6752v576.256h-26.6752z" fill="#FFFFFF" p-id="3805"></path><path d="M327.424 151.3984h30.0032v576.256h-30.0032z" fill="#FFCA55" p-id="3806"></path><path d="M357.4784 737.8944H254.5152a10.24 10.24 0 0 1-10.24-10.24V151.3984a10.24 10.24 0 0 1 10.24-10.24h102.9632a10.24 10.24 0 0 1 10.24 10.24v249.0368a10.24 10.24 0 0 1-20.48 0V161.6384H264.7552v555.776h82.4832v-188.4672a10.24 10.24 0 0 1 20.48 0v198.7072a10.24 10.24 0 0 1-10.24 10.24z" fill="#A5684D" p-id="3807"></path><path d="M605.8496 192.9216h77.9264a12.4928 12.4928 0 0 1 12.544 12.4928v563.7632h-102.912V205.4144a12.4928 12.4928 0 0 1 12.4416-12.4928z" fill="#FDD981" p-id="3808"></path><path d="M678.3488 192.9216h5.4272a12.4928 12.4928 0 0 1 12.544 12.4928v563.7632h-30.4128V205.4144a12.4928 12.4928 0 0 1 12.4416-12.4928z" fill="#FFCA55" p-id="3809"></path><path d="M605.8496 192.9216a12.4928 12.4928 0 0 1 12.4928 12.4928v563.7632h-24.9856V205.4144a12.4928 12.4928 0 0 1 12.4928-12.4928z" fill="#FFFFFF" p-id="3810"></path><path d="M696.32 779.4176h-102.9632a10.24 10.24 0 0 1-10.24-10.24v-217.088a10.24 10.24 0 0 1 20.48 0v206.848H686.08V519.168a10.24 10.24 0 0 1 20.48 0v250.0096a10.24 10.24 0 0 1-10.24 10.24zM593.3568 437.0944a10.24 10.24 0 0 1-10.24-10.24V205.4144a22.784 22.784 0 0 1 22.7328-22.7328h77.9776a22.784 22.784 0 0 1 22.7328 22.7328v198.7584a10.24 10.24 0 0 1-20.48 0V205.4144a2.2528 2.2528 0 0 0-2.2528-2.2528h-77.9776a2.2528 2.2528 0 0 0-2.2528 2.2528v221.44a10.24 10.24 0 0 1-10.24 10.24z" fill="#A5684D" p-id="3811"></path><path d="M902.3488 407.8592H767.488a16.384 16.384 0 0 0-15.7696 11.776c-17.7152 60.416-113.664 106.5984-229.4272 106.5984-117.248 0-214.1184-47.36-230.0928-108.9536a12.2368 12.2368 0 0 0-11.8272-9.4208H140.6976a6.0416 6.0416 0 0 0-5.9904 5.5808c-17.2544 226.3552 50.0736 424.6528 71.2704 506.88a53.504 53.504 0 0 0 51.7632 40.0896h521.8816a53.2992 53.2992 0 0 0 50.6368-36.4032c76.8-231.936 78.3872-469.7088 78.08-510.0032a6.0416 6.0416 0 0 0-5.9904-6.144z" fill="#FF5252" p-id="3812"></path><path d="M225.7408 417.28c15.9232 61.44 112.64 108.9536 230.0928 108.9536q16.896 0 33.1776-1.28c-101.888-7.9872-182.3744-52.0192-196.8128-107.52a12.2368 12.2368 0 0 0-11.8272-9.4208h-66.56a12.288 12.288 0 0 1 11.9296 9.2672zM908.3392 413.7984a6.0416 6.0416 0 0 0-5.9904-5.9392h-66.56a6.0416 6.0416 0 0 1 6.0416 5.9392c0 40.2944-1.4848 278.0672-78.08 510.0032a53.3504 53.3504 0 0 1-50.688 36.4032h66.56a53.2992 53.2992 0 0 0 50.6368-36.4032c76.5952-231.936 78.3872-469.7088 78.08-510.0032z" fill="#F13E3E" p-id="3813"></path><path d="M589.6192 526.2336c115.7632 0 211.6608-46.08 229.4272-106.5984a16.384 16.384 0 0 1 15.7696-11.776H767.488a16.384 16.384 0 0 0-15.7696 11.776c-15.9744 54.4768-95.488 97.28-195.7888 105.2672q16.5376 1.3312 33.6896 1.3312zM273.3056 920.1152c-21.1968-81.92-88.5248-280.32-71.3216-506.88a6.0928 6.0928 0 0 1 6.0416-5.5808H140.6976a6.0416 6.0416 0 0 0-5.9904 5.5808c-17.2544 226.3552 50.0736 424.6528 71.2704 506.88a53.504 53.504 0 0 0 51.7632 40.0896h67.328a53.4016 53.4016 0 0 1-51.7632-40.0896z" fill="#FFFFFF" p-id="3814"></path><path d="M651.3152 839.1168h-258.048a26.368 26.368 0 1 1 0-52.6848h258.048a26.368 26.368 0 1 1 0 52.6848z" fill="#FFD4E6" p-id="3815"></path><path d="M896.7168 620.2368h-1.1776a10.24 10.24 0 0 1-9.0112-11.3664c0.8192-7.3728 1.6384-14.6432 2.3552-21.7088a10.24 10.24 0 0 1 20.48 2.048c-0.768 7.168-1.536 14.5408-2.4064 22.016a10.24 10.24 0 0 1-10.24 9.0112zM779.6224 970.4448H257.7408a63.6928 63.6928 0 0 1-61.44-47.7696c-2.7136-10.24-6.144-22.6816-10.24-36.9152-8.3456-29.9008-18.7904-67.1744-28.8256-110.5408a10.24 10.24 0 0 1 19.9168-4.6592c10.24 42.9568 20.48 79.9744 28.672 109.7216 3.9936 14.2848 7.424 26.624 10.24 37.2736a43.2128 43.2128 0 0 0 41.8304 32.4096h521.728a43.008 43.008 0 0 0 40.96-29.3888 1513.5744 1513.5744 0 0 0 59.0336-258.0992 10.24 10.24 0 1 1 20.48 2.9184 1530.5728 1530.5728 0 0 1-59.904 261.632 63.3344 63.3344 0 0 1-60.5696 43.4176zM151.296 706.56a10.24 10.24 0 0 1-10.24-8.448 1139.8656 1139.8656 0 0 1-16.5888-285.44 16.384 16.384 0 0 1 16.2304-15.0528h139.6736A22.6816 22.6816 0 0 1 302.08 414.72c14.9504 57.7536 109.6192 101.2736 220.16 101.2736 108.5952 0 203.008-42.6496 219.5968-99.2768a26.8288 26.8288 0 0 1 25.6-19.0976h134.8608a16.2816 16.2816 0 0 1 16.2304 16.128c0 13.9264 0 52.0192-3.4816 105.2672a10.24 10.24 0 1 1-20.48-1.3312c3.072-47.9232 3.4816-83.3024 3.4304-99.584H767.488a6.1952 6.1952 0 0 0-5.9392 4.4032C742.4 488.5504 641.536 536.4736 522.24 536.4736c-121.5488 0-222.464-49.0496-239.9744-116.5824a2.1504 2.1504 0 0 0-1.9456-1.792H144.5888a1121.28 1121.28 0 0 0 16.7936 276.48 10.24 10.24 0 0 1-8.2432 11.9808 7.5264 7.5264 0 0 1-1.8432 0z" fill="#A04947" p-id="3816"></path></svg>