<?xml version="1.0" standalone="no"?><!DOCTYPE svg PUBLIC "-//W3C//DTD SVG 1.1//EN" "http://www.w3.org/Graphics/SVG/1.1/DTD/svg11.dtd"><svg t="1755432702864" class="icon" viewBox="0 0 1024 1024" version="1.1" xmlns="http://www.w3.org/2000/svg" p-id="2035" xmlns:xlink="http://www.w3.org/1999/xlink" width="200" height="200"><path d="M584.8576 205.7216c0-43.8784-46.4384-110.1312-79.4624-111.3088-25.9584 0-79.4624 67.4304-79.4624 111.3088a79.4624 79.4624 0 0 0 158.72 0z" fill="#FF6C6C" p-id="2036"></path><path d="M505.3952 94.4128a21.6576 21.6576 0 0 0-7.7312 1.6384c29.2864 18.1248 60.1088 68.7616 60.1088 104.4992a79.4624 79.4624 0 0 1-79.4624 79.4624h-1.024a79.2576 79.2576 0 0 0 107.52-74.24c0.0512-43.9296-46.3872-110.1824-79.4112-111.36z" fill="#FF4D4D" p-id="2037"></path><path d="M448.1536 218.2144c0-43.8784 53.504-111.3088 79.4624-111.3088a29.9008 29.9008 0 0 1 6.1952 0.9728 49.9712 49.9712 0 0 0-28.416-13.4656c-25.9584 0-79.4624 67.4304-79.4624 111.3088a79.36 79.36 0 0 0 52.0704 74.496 79.2576 79.2576 0 0 1-29.8496-62.0032z" fill="#FFFFFF" p-id="2038"></path><path d="M731.6992 205.7216c0-43.8784-46.3872-110.1312-79.4112-111.3088-25.9584 0-79.4624 67.4304-79.4624 111.3088a79.4624 79.4624 0 1 0 158.72 0z" fill="#FF6C6C" p-id="2039"></path><path d="M652.288 94.4128a21.4016 21.4016 0 0 0-7.7312 1.6384c29.2864 18.1248 60.1088 68.7616 60.1088 104.4992a79.4624 79.4624 0 0 1-79.4624 79.4624h-1.024a78.5408 78.5408 0 0 0 28.1088 5.12 79.4112 79.4112 0 0 0 79.4112-79.4624c0-43.8272-46.3872-110.08-79.4112-111.2576z" fill="#FF4D4D" p-id="2040"></path><path d="M594.9952 218.2144c0-43.8784 53.504-111.3088 79.4624-111.3088a29.8496 29.8496 0 0 1 6.2464 0.9728 50.1248 50.1248 0 0 0-28.416-13.4656c-25.9584 0-79.4624 67.4304-79.4624 111.3088A79.4112 79.4112 0 0 0 624.64 280.2176a79.2576 79.2576 0 0 1-29.6448-62.0032z" fill="#FFFFFF" p-id="2041"></path><path d="M433.3056 205.7216c0-43.8784-46.3872-110.1312-79.4624-111.3088-26.1632 0-79.4112 67.4304-79.4112 111.3088a79.4624 79.4624 0 1 0 158.72 0z" fill="#FF6C6C" p-id="2042"></path><path d="M353.8432 94.4128a23.2448 23.2448 0 0 0-8.1408 1.792c29.184 18.3296 59.8016 68.7104 59.8016 104.3456a79.4624 79.4624 0 0 1-79.4624 79.4624 79.2576 79.2576 0 0 0 107.52-74.2912c-0.256-43.8784-46.6432-110.1312-79.7184-111.3088z" fill="#FF4D4D" p-id="2043"></path><path d="M297.6768 219.3408c0-43.8784 53.504-111.3088 79.4624-111.3088a31.0784 31.0784 0 0 1 6.656 1.0752c-10.24-8.8064-20.48-14.336-29.952-14.6944-26.1632 0-79.4112 67.4304-79.4112 111.3088a79.36 79.36 0 0 0 51.2 74.2912 79.1552 79.1552 0 0 1-27.9552-60.672z" fill="#FFFFFF" p-id="2044"></path><path d="M353.8432 295.424A89.8048 89.8048 0 0 1 264.192 205.7216c0-20.992 10.5984-48.0256 29.0304-74.1376a10.24 10.24 0 1 1 16.7424 11.776c-15.872 22.4256-25.2928 45.7216-25.2928 62.3104a69.2224 69.2224 0 0 0 134.2464 23.7056 88.2176 88.2176 0 0 1-3.2256-23.7056 85.504 85.504 0 0 1 3.4816-22.8864c-11.4688-37.6832-44.544-77.3632-65.8944-78.1312-4.3008 0-14.4896 5.7344-26.8288 18.4832a10.24 10.24 0 0 1-14.7456-14.2848c10.9056-11.2128 27.0336-24.6784 41.9328-24.6784 33.8944 1.2288 73.8816 52.5824 85.8624 95.9488a10.24 10.24 0 0 1 0 5.7856 63.1808 63.1808 0 0 0-0.256 40.6528 10.6496 10.6496 0 0 1 0 6.1952A89.344 89.344 0 0 1 353.8432 295.424zM652.288 295.424a89.8048 89.8048 0 0 1-89.7024-89.7024c0-46.5408 55.296-121.5488 89.7024-121.5488 35.84 1.28 89.6512 66.56 89.6512 121.5488A89.7536 89.7536 0 0 1 652.288 295.424z m-0.3584-190.7712c-17.2544 0-68.864 59.648-68.864 101.0688a69.2224 69.2224 0 1 0 138.24 0c0.1536-41.5744-44.1856-100.1472-69.376-101.0688z" fill="#A04947" p-id="2045"></path><path d="M505.3952 295.424a89.8048 89.8048 0 0 1-89.7024-89.7024c0-46.5408 55.3472-121.5488 89.7024-121.5488 32.4096 1.1776 69.2224 46.592 83.456 88.2688A9.8816 9.8816 0 0 1 588.8 179.2a75.6224 75.6224 0 0 0-5.6832 26.3168 68.4032 68.4032 0 0 0 5.12 26.368 10.24 10.24 0 0 1 0 7.8336A89.4464 89.4464 0 0 1 505.3952 295.424z m-0.3584-190.7712c-17.2032 0-68.864 59.648-68.864 101.0688a69.2224 69.2224 0 0 0 131.584 29.7984 89.088 89.088 0 0 1-5.12-30.0032 92.16 92.16 0 0 1 5.6832-29.7472c-13.3632-35.7376-43.9808-70.4-63.2832-71.1168z" fill="#A04947" p-id="2046"></path><path d="M307.7632 239.2576H696.32A118.9888 118.9888 0 0 1 815.5648 358.4v210.3808H188.7744V358.4a118.9888 118.9888 0 0 1 118.9888-119.1424z" fill="#FFE48D" p-id="2047"></path><path d="M696.32 239.2576h-44.032A119.04 119.04 0 0 1 771.2768 358.4v210.3808h44.288V358.4A119.04 119.04 0 0 0 696.32 239.2576z" fill="#FFD45C" p-id="2048"></path><path d="M230.4 370.2272a118.9888 118.9888 0 0 1 119.1424-118.9888h388.7616c3.84 0 7.5776 0 11.3152 0.512A118.3744 118.3744 0 0 0 696.32 239.2576H307.7632A119.04 119.04 0 0 0 188.7744 358.4v210.3808H230.4z" fill="#FFFFFF" p-id="2049"></path><path d="M327.68 367.616a97.28 97.28 0 0 0 92.928-70.4 96.5632 96.5632 0 0 0 186.4192-1.9456 96.5632 96.5632 0 0 0 187.6992-3.0208 120.832 120.832 0 0 0-99.9936-52.992H309.6064A120.4224 120.4224 0 0 0 230.4 268.7488 98.048 98.048 0 0 0 327.68 367.616z" fill="#FFFFFF" p-id="2050"></path><path d="M593.5616 289.8432a28.3136 28.3136 0 0 0-22.4768 17.3568A97.28 97.28 0 0 1 497.664 366.2336a90.7264 90.7264 0 0 0 15.9232 1.3824 96.4096 96.4096 0 0 0 93.44-72.3456 13.2608 13.2608 0 0 0-13.4656-5.4272zM406.3232 290.8672a24.4736 24.4736 0 0 0-20.8384 15.872A97.7408 97.7408 0 0 1 312.32 366.2336a97.28 97.28 0 0 0 15.36 1.3824c31.4368 0 76.8-15.36 92.928-70.4a16.2816 16.2816 0 0 0-14.2848-6.3488zM694.7328 239.2576h-31.7952A120.832 120.832 0 0 1 762.88 292.2496a97.8944 97.8944 0 0 1-78.336 73.984 95.8976 95.8976 0 0 0 15.9232 1.3824 97.536 97.536 0 0 0 94.2592-75.3664 120.832 120.832 0 0 0-99.9936-52.992z" fill="#FFF6E1" p-id="2051"></path><path d="M700.4672 377.856a107.52 107.52 0 0 1-93.44-55.6544 106.2912 106.2912 0 0 1-186.368 0.9728A110.4384 110.4384 0 0 1 404.48 344.9344a10.24 10.24 0 0 1-14.848-14.1824 89.0368 89.0368 0 0 0 21.1456-36.4544 10.24 10.24 0 0 1 19.6608 0 86.3232 86.3232 0 0 0 166.7072-1.7408 10.24 10.24 0 0 1 19.7632 0 86.272 86.272 0 0 0 166.656 1.6896 110.4896 110.4896 0 0 0-88.832-44.7488H309.6064a110.6944 110.6944 0 0 0-68.7104 23.9616A87.9104 87.9104 0 0 0 327.68 357.376a85.1456 85.1456 0 0 0 26.112-4.096 10.24 10.24 0 0 1 6.2464 19.5072 106.5984 106.5984 0 0 1-32.3584 5.12A108.4928 108.4928 0 0 1 220.16 268.8a10.24 10.24 0 0 1 3.6864-7.68 130.9696 130.9696 0 0 1 85.76-32h385.1264A131.072 131.072 0 0 1 803.1744 286.72a10.24 10.24 0 0 1 1.4848 8.1408 107.52 107.52 0 0 1-104.192 82.9952z" fill="#CE6B4D" p-id="2052"></path><path d="M815.5648 578.9184H188.7744a10.24 10.24 0 0 1-10.24-10.24V430.848a10.24 10.24 0 0 1 20.48 0v127.5904h606.3104V358.4A108.9024 108.9024 0 0 0 696.32 249.4976H307.7632A108.9024 108.9024 0 0 0 199.0144 358.4v11.6736a10.24 10.24 0 0 1-20.48 0V358.4a129.3824 129.3824 0 0 1 129.2288-129.3824H696.32A129.4336 129.4336 0 0 1 825.8048 358.4v210.3808a10.24 10.24 0 0 1-10.24 10.1376z" fill="#CE6B4D" p-id="2053"></path><path d="M97.28 462.6432h151.552v391.3216H97.28zM248.832 462.6432h14.6432v391.3216H248.832z" fill="#FC5680" p-id="2054"></path><path d="M263.424 462.6432h14.6432v391.3216h-14.6432z" fill="#FC557F" p-id="2055"></path><path d="M278.0672 462.6432h14.6432v391.3216h-14.6432z" fill="#FC547E" p-id="2056"></path><path d="M292.7104 462.6432h14.6432v391.3216h-14.6432z" fill="#FC537E" p-id="2057"></path><path d="M307.3536 462.6432h14.6432v391.3216h-14.6432z" fill="#FC527D" p-id="2058"></path><path d="M321.9456 462.6432h14.6432v391.3216h-14.6432z" fill="#FC517C" p-id="2059"></path><path d="M336.5888 462.6432h14.6432v391.3216h-14.6432z" fill="#FC507B" p-id="2060"></path><path d="M351.232 462.6432h14.6432v391.3216H351.232z" fill="#FC4F7A" p-id="2061"></path><path d="M365.824 462.6432h14.6432v391.3216h-14.6432z" fill="#FD4E79" p-id="2062"></path><path d="M380.4672 462.6432h14.6432v391.3216h-14.6432z" fill="#FD4D79" p-id="2063"></path><path d="M395.1104 462.6432h14.6432v391.3216h-14.6432z" fill="#FD4C78" p-id="2064"></path><path d="M409.7024 462.6432h14.6432v391.3216h-14.6432z" fill="#FD4B77" p-id="2065"></path><path d="M424.3456 462.6432h14.6432v391.3216h-14.6432z" fill="#FD4A76" p-id="2066"></path><path d="M438.9888 462.6432h14.6432v391.3216h-14.6432z" fill="#FD4975" p-id="2067"></path><path d="M453.5808 462.6432h14.6432v391.3216h-14.6432z" fill="#FD4875" p-id="2068"></path><path d="M468.224 462.6432h14.6432v391.3216h-14.6432z" fill="#FD4774" p-id="2069"></path><path d="M482.8672 462.6432h14.6432v391.3216h-14.6432z" fill="#FD4673" p-id="2070"></path><path d="M497.5104 462.6432h14.6432v391.3216h-14.6432z" fill="#FD4572" p-id="2071"></path><path d="M512.1024 462.6432h14.6432v391.3216h-14.6432z" fill="#FD4471" p-id="2072"></path><path d="M526.7456 462.6432h14.6432v391.3216h-14.6432z" fill="#FD4370" p-id="2073"></path><path d="M541.3888 462.6432h14.6432v391.3216h-14.6432z" fill="#FD4270" p-id="2074"></path><path d="M555.9808 462.6432h14.6432v391.3216h-14.6432z" fill="#FD416F" p-id="2075"></path><path d="M570.624 462.6432h14.6432v391.3216h-14.6432z" fill="#FE406E" p-id="2076"></path><path d="M585.2672 462.6432h14.6432v391.3216h-14.6432z" fill="#FE3E6D" p-id="2077"></path><path d="M599.8592 462.6432h14.6432v391.3216h-14.6432z" fill="#FE3D6C" p-id="2078"></path><path d="M614.5024 462.6432h14.6432v391.3216h-14.6432z" fill="#FE3C6C" p-id="2079"></path><path d="M629.1456 462.6432h14.6432v391.3216h-14.6432z" fill="#FE3B6B" p-id="2080"></path><path d="M643.7376 462.6432h14.6432v391.3216h-14.6432z" fill="#FE3A6A" p-id="2081"></path><path d="M658.3808 462.6432h14.6432v391.3216h-14.6432z" fill="#FE3969" p-id="2082"></path><path d="M673.024 462.6432h14.6432v391.3216h-14.6432z" fill="#FE3868" p-id="2083"></path><path d="M687.6672 462.6432h14.6432v391.3216h-14.6432z" fill="#FE3767" p-id="2084"></path><path d="M702.2592 462.6432h14.6432v391.3216h-14.6432z" fill="#FE3667" p-id="2085"></path><path d="M716.9024 462.6432h14.6432v391.3216h-14.6432z" fill="#FE3566" p-id="2086"></path><path d="M731.5456 462.6432h14.6432v391.3216h-14.6432z" fill="#FE3465" p-id="2087"></path><path d="M746.1376 462.6432h14.6432v391.3216h-14.6432z" fill="#FE3364" p-id="2088"></path><path d="M760.7808 462.6432h14.6432v391.3216h-14.6432z" fill="#FE3263" p-id="2089"></path><path d="M775.424 462.6432h14.6432v391.3216h-14.6432z" fill="#FE3163" p-id="2090"></path><path d="M790.016 462.6432h14.6432v391.3216h-14.6432z" fill="#FF3062" p-id="2091"></path><path d="M804.6592 462.6432h14.6432v391.3216h-14.6432z" fill="#FF2F61" p-id="2092"></path><path d="M819.3024 462.6432h14.6432v391.3216h-14.6432z" fill="#FF2E60" p-id="2093"></path><path d="M833.8944 462.6432h14.6432v391.3216h-14.6432z" fill="#FF2D5F" p-id="2094"></path><path d="M848.5376 462.6432h14.6432v391.3216h-14.6432z" fill="#FF2C5E" p-id="2095"></path><path d="M863.1808 462.6432h14.6432v391.3216h-14.6432z" fill="#FF2B5E" p-id="2096"></path><path d="M877.824 462.6432h14.6432v391.3216h-14.6432z" fill="#FF2A5D" p-id="2097"></path><path d="M892.416 462.6432h14.6432v391.3216h-14.6432z" fill="#FF295C" p-id="2098"></path><path d="M790.272 462.6432H214.016a116.736 116.736 0 0 0-116.736 116.736v274.5856h809.7792v-274.5856a116.736 116.736 0 0 0-116.7872-116.736z" fill="#C60042" opacity=".41" p-id="2099"></path><path d="M214.016 462.6432h576.256a116.7872 116.7872 0 0 1 116.7872 116.7872v274.5344H97.28v-274.5856a116.7872 116.7872 0 0 1 116.736-116.736z" fill="#FFE48D" p-id="2100"></path><path d="M790.272 462.6432h-53.6064a116.736 116.736 0 0 1 116.736 116.736v274.5856h53.6576v-274.5856a116.736 116.736 0 0 0-116.7872-116.736z" fill="#FFD45C" p-id="2101"></path><path d="M271.0528 462.6432H214.016a116.736 116.736 0 0 0-116.736 116.736v274.5856h57.0368v-274.5856a116.736 116.736 0 0 1 116.736-116.736z" fill="#FFFFFF" p-id="2102"></path><path d="M788.48 462.6432H215.808A118.4768 118.4768 0 0 0 97.28 581.1712v117.4016s3.7888-85.5552 123.8016-85.5552c90.112 0 85.504 87.8592 166.4512 87.8592s75.2128-86.1184 148.1216-86.1184 55.6544 83.8144 133.12 83.8144 52.224-85.5552 144.0768-85.5552c51.712 0 94.1568 85.5552 94.1568 85.5552v-117.4016A118.528 118.528 0 0 0 788.48 462.6432z" fill="#FF8BC3" p-id="2103"></path><path d="M481.9968 614.7584c-63.6416 0-67.328 65.6896-121.1904 82.3296a89.7536 89.7536 0 0 0 26.7264 3.7888c69.3248 0 75.1104-63.1296 121.1392-81.2544a69.12 69.12 0 0 0-26.6752-4.864zM167.424 613.0176a164.5568 164.5568 0 0 0-70.144 13.4656v72.0896s3.1232-70.1952 92.928-83.4048a115.2512 115.2512 0 0 0-22.784-2.1504zM788.48 462.6432h-53.6064a118.4768 118.4768 0 0 1 118.528 118.528v48.2304c31.6416 24.832 53.6576 69.1712 53.6576 69.1712v-117.4016A118.528 118.528 0 0 0 788.48 462.6432zM759.296 613.0176c-79.3088 0-71.3728 63.744-117.76 81.152a78.2336 78.2336 0 0 0 27.136 4.4032c66.56 0 57.3952-63.0784 111.6672-80.8448a52.992 52.992 0 0 0-21.0432-4.7104z" fill="#FF5CB2" p-id="2104"></path><path d="M153.6 603.7504a118.528 118.528 0 0 1 118.4256-118.528H844.8a116.1216 116.1216 0 0 1 14.6944 0.9216A118.1184 118.1184 0 0 0 788.48 462.6432H215.808A118.4768 118.4768 0 0 0 97.28 581.1712v117.4016s2.2528-49.5104 56.32-73.1648z" fill="#FFFFFF" p-id="2105"></path><path d="M387.5328 711.1168a93.6448 93.6448 0 0 1-66.9184-26.3168 10.24 10.24 0 1 1 13.7216-15.36 73.6256 73.6256 0 0 0 53.1968 20.992c36.7104 0 52.3776-18.9952 70.5536-40.96 17.4592-21.1456 37.2224-45.1072 77.568-45.1072 41.2672 0 57.9072 24.1152 72.6016 45.3632s26.624 38.4512 60.5696 38.4512c31.744 0 42.5984-15.7184 56.32-35.84 15.36-22.2208 34.4576-49.92 87.7056-49.92 35.2256 0 65.3824 32.9216 83.9168 59.2384v-80.4864a10.24 10.24 0 0 1 20.48 0v117.4016a10.24 10.24 0 0 1-19.4048 4.5568c-11.0592-22.2208-47.872-79.872-84.992-79.872-42.496 0-55.6544 19.0464-70.8608 40.96-14.4384 20.8384-30.72 44.4416-73.216 44.4416-44.6976 0-62.0544-25.1392-77.4144-47.3088-14.08-20.48-25.2416-36.5056-55.7568-36.5056s-45.056 17.4592-61.7472 37.632c-18.688 22.8864-39.936 48.64-86.3232 48.64zM97.28 708.7616h-0.3072a10.24 10.24 0 0 1-9.9328-10.24v-117.3504a10.24 10.24 0 1 1 20.48 0v66.8672c17.8688-22.9888 51.2-45.2608 113.5616-45.2608a106.5984 106.5984 0 0 1 77.6192 30.3104 10.24 10.24 0 0 1-13.8752 15.0528 86.6304 86.6304 0 0 0-63.744-24.8832c-108.1856 0-113.408 72.704-113.5616 75.8272a10.24 10.24 0 0 1-10.24 9.6768z" fill="#A04947" p-id="2106"></path><path d="M907.0592 864.2048H97.28a10.24 10.24 0 0 1-10.24-10.24V783.872a10.24 10.24 0 0 1 20.48 0v59.8528h789.2992v-264.3456a106.5984 106.5984 0 0 0-106.5472-106.496h-190.8224a10.24 10.24 0 0 1 0-20.48h190.8224a127.1296 127.1296 0 0 1 127.0272 126.976v274.5856a10.24 10.24 0 0 1-10.24 10.24zM97.28 738.5088a10.24 10.24 0 0 1-10.24-10.24v-148.8896a127.1296 127.1296 0 0 1 126.976-126.976h324.5568a10.24 10.24 0 0 1 0 20.48H214.016a106.5984 106.5984 0 0 0-106.496 106.496v148.8896a10.24 10.24 0 0 1-10.24 10.24z" fill="#A04947" p-id="2107"></path><path d="M39.1168 809.9328m62.5664 0l811.7248 0q62.5664 0 62.5664 62.5664l0 0q0 62.5664-62.5664 62.5664l-811.7248 0q-62.5664 0-62.5664-62.5664l0 0q0-62.5664 62.5664-62.5664Z" fill="#FF5554" p-id="2108"></path><path d="M913.3568 809.9328H901.12a62.5152 62.5152 0 0 1-49.0496 101.4272H52.6848a62.5152 62.5152 0 0 0 48.9984 23.6544h811.6736a62.5664 62.5664 0 0 0 62.5664-62.5664 62.5664 62.5664 0 0 0-62.5664-62.5152z" fill="#F13E3E" p-id="2109"></path><path d="M97.28 891.6992a62.5664 62.5664 0 0 1 62.5664-62.5664h798.72a62.3616 62.3616 0 0 0-45.056-19.2H101.6832a62.5664 62.5664 0 0 0-62.5664 62.5664 62.5664 62.5664 0 0 0 62.5664 62.5664h13.1584a62.3104 62.3104 0 0 1-17.5616-43.3664z" fill="#FFFFFF" p-id="2110"></path><path d="M913.3568 945.3056H101.6832a72.8064 72.8064 0 1 1 0-145.6128h134.7072a10.24 10.24 0 1 1 0 20.48H101.6832a52.3264 52.3264 0 1 0 0 104.6528h811.6736a52.3264 52.3264 0 1 0 0-104.6528h-522.24a10.24 10.24 0 0 1 0-20.48h522.24a72.8064 72.8064 0 1 1 0 145.6128z" fill="#A04947" p-id="2111"></path><path d="M330.0352 820.1728h-19.6096a10.24 10.24 0 1 1 0-20.48h19.6096a10.24 10.24 0 0 1 0 20.48z" fill="#A04947" p-id="2112"></path></svg>