<?xml version="1.0" standalone="no"?><!DOCTYPE svg PUBLIC "-//W3C//DTD SVG 1.1//EN" "http://www.w3.org/Graphics/SVG/1.1/DTD/svg11.dtd"><svg t="1755432738757" class="icon" viewBox="0 0 1024 1024" version="1.1" xmlns="http://www.w3.org/2000/svg" p-id="3098" xmlns:xlink="http://www.w3.org/1999/xlink" width="200" height="200"><path d="M789.2992 347.6992c0-96.5632-169.3696-174.848-378.3168-174.848S32.6656 251.136 32.6656 347.6992c0 38.912 27.5456 74.8032 74.0352 103.8336v383.4368A86.3744 86.3744 0 0 0 193.0752 921.6h435.8656a86.3744 86.3744 0 0 0 86.3744-86.4256V451.5328c46.4896-29.0304 73.984-64.9216 73.984-103.8336z" fill="#FFD38D" p-id="3099"></path><path d="M178.4832 834.9696V451.5328c-46.4384-29.0304-73.984-64.9216-73.984-103.8336 0-90.9312 150.3232-165.632 342.4256-174.08-11.8272-0.512-23.808-0.8192-35.84-0.8192C202.1376 172.8 32.768 251.0848 32.768 347.648c0 38.912 27.5456 74.8032 74.0352 103.8336v383.4368A86.3744 86.3744 0 0 0 193.0752 921.6h71.68a86.4256 86.4256 0 0 1-86.272-86.6304z" fill="#FEF4FC" p-id="3100"></path><path d="M410.9824 172.8512c-12.0832 0-24.064 0.3072-35.84 0.8192 192.1024 8.3968 342.4256 83.0976 342.4256 174.08 0 38.912-27.5456 74.8032-74.0352 103.8336v383.4368A86.3744 86.3744 0 0 1 557.1072 921.6h71.68a86.3744 86.3744 0 0 0 86.3744-86.4256V451.5328c46.4896-29.0304 73.984-64.9216 73.984-103.8336 0.1536-96.5632-169.216-174.848-378.1632-174.848z" fill="#FFB476" p-id="3101"></path><path d="M603.392 108.1344c-128 0-241.4592 29.0304-311.1936 73.5744a792.1152 792.1152 0 0 1 118.784-8.8576c208.9472 0 378.3168 78.2848 378.3168 174.848 0 38.912-27.4944 74.8032-73.984 103.8336v380.7232c0 18.5344-9.5232 46.8992-22.4768 60.8768H824.32a87.6544 87.6544 0 0 0 87.6544-87.6544v-414.72c47.1552-29.44 75.1104-65.8944 75.1104-105.3696 0.2048-97.8432-171.6736-177.2544-383.6928-177.2544z" fill="#FF933B" p-id="3102"></path><path d="M603.392 108.1344c-12.4928 0-24.832 0.3584-37.0688 0.8704C760.1152 118.016 911.36 193.5872 911.36 285.4912c0 39.4752-27.904 75.9296-75.0592 105.3696v414.72a87.7056 87.7056 0 0 1-87.6544 87.6544H824.32a87.6544 87.6544 0 0 0 87.6544-87.6544v-414.72c47.1552-29.44 75.1104-65.8944 75.1104-105.3696 0.2048-97.9456-171.6736-177.3568-383.6928-177.3568z" fill="#F97C3A" p-id="3103"></path><path d="M186.7776 372.3264a50.9952 29.5424 90 1 0 59.0848 0 50.9952 29.5424 90 1 0-59.0848 0Z" fill="#FCF4EE" p-id="3104"></path><path d="M404.202179 427.248391a50.9952 29.5424 52.91 1 0 47.131306-35.632198 50.9952 29.5424 52.91 1 0-47.131306 35.632198Z" fill="#FCF4EE" p-id="3105"></path><path d="M398.364654 802.185637a50.9952 29.5424 53 1 0 47.18722-35.55812 50.9952 29.5424 53 1 0-47.18722 35.55812Z" fill="#FCF4EE" p-id="3106"></path><path d="M582.895588 392.984388a29.5424 50.9952 38.83 1 0 63.949183-79.451518 29.5424 50.9952 38.83 1 0-63.949183 79.451518Z" fill="#FCF4EE" p-id="3107"></path><path d="M590.984004 829.789596a29.5424 50.9952 38.83 1 0 63.949183-79.451518 29.5424 50.9952 38.83 1 0-63.949183 79.451518Z" fill="#FCF4EE" p-id="3108"></path><path d="M654.8992 750.2336a19.5584 19.5584 0 0 0-11.4176-4.0448v65.1776c0.8704-0.9216 1.6896-1.8944 2.5088-2.8672 17.6128-21.9648 21.6576-48.0256 8.9088-58.2656z" fill="#FFD38D" p-id="3109"></path><path d="M232.220721 632.710596a29.5424 50.9952 38.83 1 0 63.949182-79.451518 29.5424 50.9952 38.83 1 0-63.949182 79.451518Z" fill="#FCF4EE" p-id="3110"></path><path d="M159.0272 798.1056a50.9952 29.5424 90 1 0 59.0848 0 50.9952 29.5424 90 1 0-59.0848 0Z" fill="#FCF4EE" p-id="3111"></path><path d="M502.654963 632.722393a29.5424 50.9952 38.83 1 0 63.949183-79.451518 29.5424 50.9952 38.83 1 0-63.949183 79.451518Z" fill="#FCF4EE" p-id="3112"></path><path d="M292.1984 191.9488A10.24 10.24 0 0 1 286.72 173.1072c73.6768-47.104 192.1024-75.2128 316.7232-75.2128 89.0368 0 172.9024 13.568 242.5344 39.168a10.24 10.24 0 0 1-7.0656 19.2512c-66.56-24.4736-150.0672-37.9392-235.52-37.9392-96.512 0-188.672 17.1008-257.6384 46.848 21.504-1.7408 43.3152-2.6112 65.2288-2.6112a10.24 10.24 0 1 1 0 20.48 780.1344 780.1344 0 0 0-117.248 8.7552 7.7312 7.7312 0 0 1-1.536 0.1024zM912.1792 671.6928a10.24 10.24 0 0 1-10.24-10.24V390.8608a10.24 10.24 0 0 1 4.8128-8.6528c32.0512-20.0192 70.2976-53.0944 70.2976-96.7168 0-42.496-36.4544-74.9056-67.0208-94.6176a10.24 10.24 0 0 1 11.1104-17.2032c49.9712 32.2048 76.3904 70.8608 76.3904 111.8208s-25.9584 78.9504-75.1104 111.0016v264.96a10.24 10.24 0 0 1-10.24 10.24zM824.32 903.3728h-131.4816a10.24 10.24 0 0 1-7.5264-17.2032c11.3152-12.1856 19.7632-38.5024 19.7632-53.9136V451.5328a10.24 10.24 0 0 1 4.8128-8.6528c31.5904-19.712 69.1712-52.2752 69.1712-95.1808a10.24 10.24 0 0 1 20.48 0c0 40.0896-25.6 77.8752-73.984 109.4656v375.0912a121.6 121.6 0 0 1-13.4656 50.6368h112.64a77.4656 77.4656 0 0 0 77.4144-77.4144v-74.0352a10.24 10.24 0 0 1 20.48 0v74.0352a98.048 98.048 0 0 1-98.304 97.8944z" fill="#A04947" p-id="3113"></path><path d="M628.9408 931.84H193.0752a96.7168 96.7168 0 0 1-96.6144-96.6656V650.24a10.24 10.24 0 1 1 20.48 0v184.6784A76.2368 76.2368 0 0 0 193.0752 911.36h435.8656a76.2368 76.2368 0 0 0 76.1344-76.1856V451.5328a10.24 10.24 0 0 1 4.8128-8.6528c31.5904-19.712 69.1712-52.2752 69.1712-95.1808 0-38.912-32.0512-76.8-90.2144-107.1616a10.24 10.24 0 1 1 9.4208-18.176c65.3312 33.8432 101.2736 78.3872 101.2736 125.3376 0 40.0896-25.6 77.8752-73.984 109.4656v377.8048A96.768 96.768 0 0 1 628.9408 931.84zM106.7008 595.2a10.24 10.24 0 0 1-10.24-10.24v-128C47.9744 425.5744 22.4256 387.7888 22.4256 347.6992c0-25.0368 10.24-49.2032 29.5936-71.68a10.24 10.24 0 0 1 15.36 13.4144C51.2 308.1216 42.9056 327.68 42.9056 347.6992c0 42.9056 37.632 75.4688 69.2224 95.1808a10.24 10.24 0 0 1 4.8128 8.6528v133.4272a10.24 10.24 0 0 1-10.24 10.24zM107.52 253.44a10.24 10.24 0 0 1-5.12-18.944 312.1152 312.1152 0 0 1 21.8112-12.3392 10.24 10.24 0 1 1 9.4208 18.176c-7.168 3.7376-14.08 7.6288-20.48 11.5712a10.24 10.24 0 0 1-5.632 1.536zM193.4336 215.04a10.24 10.24 0 0 1-3.1744-19.968c64.9216-21.1456 141.2608-32.3072 220.7232-32.3072a756.1216 756.1216 0 0 1 192.256 23.8592 10.24 10.24 0 0 1-5.12 19.8144 733.0304 733.0304 0 0 0-186.9312-23.1936c-77.3632 0-151.5008 10.8544-214.3744 31.2832a9.7792 9.7792 0 0 1-3.3792 0.512z" fill="#CE6B4D" p-id="3114"></path></svg>