<?xml version="1.0" standalone="no"?><!DOCTYPE svg PUBLIC "-//W3C//DTD SVG 1.1//EN" "http://www.w3.org/Graphics/SVG/1.1/DTD/svg11.dtd"><svg t="1755432761430" class="icon" viewBox="0 0 1024 1024" version="1.1" xmlns="http://www.w3.org/2000/svg" p-id="4312" xmlns:xlink="http://www.w3.org/1999/xlink" width="200" height="200"><path d="M174.08 543.744s323.7888 255.488 645.6832 0c92.16-27.3408 100.7104-108.544 15.0528-115.8656 40.448-47.4112 31.0784-132.2496-44.2368-130.4576 32.9216-62.0032-36.7104-101.2736-74.3424-72.96 17.8688-50.176-28.2624-77.568-59.3408-58.4192 4.7104-58.368-121.3952-92.16-151.5008-37.376-30.1568-47.4624-108.2368-49.2544-128.9728 3.6352-49.8688-26.4704-65.8944 18.2784-60.2112 37.4272-55.552-21.9136-107.52 0.9216-108.2368 56.576-62.0544 3.584-69.7344 54.7328-43.3664 82.9952-64 3.6352-81.92 78.4384-51.7632 114.944C55.7568 432.4864 33.1264 577.2288 174.08 543.744z" fill="#FFDC6E" p-id="4313"></path><path d="M485.632 221.9008c247.3984-21.76 316.6208 168.3456 349.3376 205.7216l0.8704-1.0752C875.008 378.88 865.28 295.6288 790.528 297.4208c32.9216-62.0032-36.7104-101.2224-74.3424-72.96 17.8688-50.176-28.2624-77.568-59.3408-58.4192 4.7104-58.368-121.3952-92.16-151.5008-37.376-30.1568-47.4624-108.2368-49.2544-128.9728 3.6352-49.8688-26.4704-65.8944 18.2784-60.2112 37.4272-55.552-21.9136-107.52 0.9216-108.2368 56.576-62.0032 3.584-69.6832 54.7328-43.3152 82.9952-64 3.6352-81.92 78.4384-51.7632 114.944-53.1968 7.68-76.3904 133.8368 34.4576 123.9552 1.9968 0 4.0448-0.3584 6.0928-0.6656l5.9392-0.8704h0.7168l5.632-1.024h1.2288l6.912-1.536S156.5696 250.88 485.632 221.9008z" fill="#FCD25E" p-id="4314"></path><path d="M100.5568 500.6336a182.3744 182.3744 0 0 1-30.2592 4.7616c7.2192 29.8496 36.4032 53.2992 100.4032 39.1168a505.6512 505.6512 0 0 1-70.144-43.8784z" fill="#FFCB39" p-id="4315"></path><path d="M146.8416 479.7952C116.736 443.3408 134.6048 368.64 198.6048 364.8512c-26.3168-28.2624-18.688-79.36 43.3152-82.9952 0.9216-55.6544 52.6848-78.4896 108.2368-56.32-5.632-19.1488 10.24-63.8464 60.2624-37.4272 20.48-52.8896 98.816-51.2 128.9216-3.6352 30.1056-54.7328 156.2624-20.992 151.552 37.4272a40.96 40.96 0 0 1 27.7504-5.6832c10.24-44.6976-32.512-67.9424-61.7984-49.92 4.7104-58.368-121.3952-92.16-151.5008-37.376-30.1568-47.4624-108.2368-49.2544-128.9728 3.6352-49.8688-26.4704-65.8944 18.2784-60.2112 37.4272-55.552-21.9136-107.52 0.9216-108.2368 56.576C145.92 229.888 138.24 281.0368 164.608 309.2992c-64 3.6352-81.92 78.4384-51.7632 114.944C68.5056 430.6432 45.0048 519.2192 102.4 542.72c0.9728-29.3888 19.4048-59.2896 44.4416-62.9248z" fill="#FFFFFF" p-id="4316"></path><path d="M842.24 436.224s-0.8192-2.816-2.6112-7.7824c-1.4336 0-2.8672-0.3584-4.352-0.4608 4.4032 5.2224 6.9632 8.2432 6.9632 8.2432z" fill="#FCD25E" p-id="4317"></path><path d="M834.56 427.8784c40.448-47.4112 31.0784-132.2496-44.2368-130.4576 30.0032-56.32-25.1904-94.0544-63.6928-78.848 0.4608 0 65.9456 17.408 58.9824 100.3008 27.136 13.8752 50.1248 45.1584 36.096 114.7392a32.6656 32.6656 0 0 1-6.144 17.0496c-9.5744 19.8144-32.9216 39.1168-69.4784 49.9712-221.3376 175.6672-443.5456 109.7728-560.7936 51.2 60.0576 41.8816 348.16 218.9312 634.2656-8.3456 92.3648-27.0848 100.864-108.288 15.0016-115.6096z" fill="#FFCB39" p-id="4318"></path><path d="M834.56 438.1696a10.24 10.24 0 0 1-7.7824-16.896 89.7024 89.7024 0 0 0 10.24-14.9504 10.24 10.24 0 1 1 18.0224 9.7792 106.8032 106.8032 0 0 1-12.6464 18.432 10.24 10.24 0 0 1-7.8336 3.6352zM508.3136 667.2896A530.3296 530.3296 0 0 1 373.76 649.472a619.52 619.52 0 0 1-201.9328-94.6688c-55.296 11.9296-83.2-3.6352-96.9728-19.0976-17.0496-19.2-21.248-48.6912-10.9056-76.8a71.68 71.68 0 0 1 33.2288-40.1408 86.016 86.016 0 0 1-1.4336-72.6528 76.032 76.032 0 0 1 51.2-44.3392 57.7024 57.7024 0 0 1-3.0208-47.7696c8.0896-20.0704 27.648-33.28 54.3744-37.0688a94.7712 94.7712 0 0 1 1.9968-11.1104 10.24 10.24 0 0 1 19.8656 5.12 68.5568 68.5568 0 0 0-1.9968 15.36 10.24 10.24 0 0 1-9.6256 10.24c-23.4496 1.3824-39.6288 10.24-45.568 25.1392a39.2192 39.2192 0 0 0 9.1648 40.704 10.24 10.24 0 0 1-6.912 17.2032 56.32 56.32 0 0 0-50.6368 34.7648c-9.4208 21.504-6.8608 47.616 6.1952 63.4368a10.24 10.24 0 0 1-6.4512 16.64c-12.9024 1.8432-24.8832 13.9264-31.2832 31.4368-7.6288 20.8384-5.12 42.9056 6.9632 56.32 14.9504 16.7936 43.2128 20.8384 81.92 11.7248a10.24 10.24 0 0 1 8.704 1.8944A601.6512 601.6512 0 0 0 379.4944 629.76c157.2352 40.96 303.2064 9.5232 433.8176-94.1056a10.24 10.24 0 0 1 12.7488 16.0256c-111.104 88.32-222.4128 115.6096-317.7472 115.6096zM227.3792 188.8768a10.24 10.24 0 0 1-6.9632-17.7664 71.68 71.68 0 0 1 23.9104-14.5408 91.6992 91.6992 0 0 1 42.3936-4.7104 10.24 10.24 0 1 1-2.6112 20.48 72.9088 72.9088 0 0 0-32.256 3.5328 52.1216 52.1216 0 0 0-17.3568 10.24 10.24 10.24 0 0 1-7.1168 2.7648z" fill="#CE6B4D" p-id="4319"></path><path d="M316.16 179.968A10.8032 10.8032 0 0 1 312.32 179.2a110.2336 110.2336 0 0 0-24.064-6.5536 10.24 10.24 0 0 1 2.9696-20.48 114.3296 114.3296 0 0 1 13.9264 2.9184A49.7152 49.7152 0 0 1 322.0992 122.88c7.7312-6.2464 23.7568-14.3872 49.4592-4.1984a73.6256 73.6256 0 0 1 57.9072-35.84 91.3408 91.3408 0 0 1 75.776 28.7232 54.784 54.784 0 0 1 7.3216-6.3488 10.24 10.24 0 0 1 12.1344 16.4864 35.84 35.84 0 0 0-10.24 11.7248 10.24 10.24 0 0 1-17.8176 0.7168 70.4 70.4 0 0 0-65.28-30.72 52.0192 52.0192 0 0 0-45.5168 32.6144 10.24 10.24 0 0 1-5.9392 5.888 10.24 10.24 0 0 1-8.3968-0.5632c-10.9056-5.8368-26.112-10.9568-36.5056-2.5088a30.3104 30.3104 0 0 0-9.1136 27.9552 10.24 10.24 0 0 1-9.7792 13.1584zM856.7808 357.632a10.24 10.24 0 0 1-10.24-8.192c-5.5808-27.2896-26.0096-42.5472-55.9616-41.7792a10.24 10.24 0 0 1-8.96-4.8128 10.24 10.24 0 0 1-0.3584-10.24c11.776-22.2208 9.472-42.7008-6.4-56.32s-38.0928-14.7456-52.736-3.7376a10.24 10.24 0 0 1-15.5648-11.52c6.5536-18.3808 3.584-34.3552-8.192-43.8784a31.3344 31.3344 0 0 0-35.84-2.3552 10.24 10.24 0 0 1-15.36-9.5744 34.56 34.56 0 0 0-12.032-26.9824c-16.8448-17.2032-49.5104-28.3648-77.6704-26.5728a10.24 10.24 0 0 1-1.28-20.48c34.0992-2.0992 72.5504 11.3152 93.5424 32.6656a60.0576 60.0576 0 0 1 16.128 27.648 51.968 51.968 0 0 1 45.3632 9.984 52.6848 52.6848 0 0 1 19.0464 45.568A66.2528 66.2528 0 0 1 788.48 220.8256a60.7232 60.7232 0 0 1 17.3056 67.1744 68.7104 68.7104 0 0 1 61.1328 57.344 10.24 10.24 0 0 1-7.9872 12.0832 9.5744 9.5744 0 0 1-2.1504 0.2048z" fill="#CE6B4D" p-id="4320"></path><path d="M190.5664 806.5536s358.7584 291.84 715.4688 0c102.4-31.2832 111.616-124.1088 16.6912-132.4544 44.8512-54.2208 34.4064-151.2448-49.0496-149.1456 36.5056-70.912-40.6528-115.7632-82.3808-83.456 19.8144-57.344-31.2832-88.6272-65.6896-66.56 5.12-66.56-134.5536-105.3696-167.936-42.8032-33.3824-54.2208-119.9616-56.32-142.8992 4.1984C359.5264 305.92 341.76 357.0176 348.16 378.88c-61.44-25.0368-118.9376 1.024-119.9616 64.6656-68.7104 4.1472-77.2096 62.5664-47.9744 94.9248-71.0144 4.2496-90.8288 89.7536-57.344 131.4304-63.3856 9.4208-88.4224 174.8992 67.6864 136.6528z" fill="#FFDC6E" p-id="4321"></path><path d="M535.8592 438.5792c274.176-24.8832 350.8736 192.512 387.1232 235.2128 0.3072-0.4096 0.6144-0.8704 0.9728-1.28 43.3664-54.4768 32.4096-149.6064-50.2784-147.5584 36.5056-70.912-40.6528-115.7632-82.3808-83.456 19.8144-57.344-31.2832-88.6272-65.6896-66.56 5.12-66.56-134.5536-105.3696-167.936-42.8032-33.3824-54.2208-119.9616-56.32-142.8992 4.1984C359.5264 305.92 341.76 357.0176 348.16 378.88c-61.44-25.0368-118.9376 1.024-119.9616 64.6656-68.7104 4.1472-77.2096 62.5664-47.9744 94.9248-71.0144 4.2496-90.8288 89.7536-57.344 131.4304-58.88 8.7552-84.6336 152.8832 38.1952 141.7216l6.8096-0.7168c2.1504-0.256 4.352-0.6144 6.6048-0.9728h0.768l6.2464-1.1776h1.3312c2.5088-0.512 5.12-1.0752 7.68-1.7408 0.0512-0.4608-19.3024-335.36 345.344-368.4352z" fill="#FCD25E" p-id="4322"></path><path d="M109.1072 757.248a193.4336 193.4336 0 0 1-33.4848 5.632c7.9872 34.1504 40.3456 60.928 111.2064 44.7488a561.4592 561.4592 0 0 1-77.7216-50.3808z" fill="#FFCB39" p-id="4323"></path><path d="M160.4608 733.44c-33.3824-41.728-13.568-127.232 57.344-131.4304-29.184-32.3072-20.48-90.7264 47.9744-94.8736 1.024-63.6416 58.4192-89.7024 119.9616-64.6656-6.2464-21.9136 11.4688-73.0112 66.56-42.8032 22.9888-60.4672 109.5168-58.368 142.8992-4.1472 33.3824-62.5664 173.1584-24.0128 167.936 42.752a44.6464 44.6464 0 0 1 30.72-6.5024c11.2128-51.2-35.84-77.6192-68.4032-56.9856 5.12-66.56-134.5536-105.3696-167.936-42.8032-33.3824-54.2208-119.9616-56.32-142.8992 4.1984C359.5264 305.92 341.76 357.0176 348.16 378.88c-61.44-25.0368-118.9376 1.024-119.9616 64.6656-68.7104 4.1472-77.2096 62.5664-47.9744 94.9248a73.8304 73.8304 0 0 0-65.3312 45.4656c-12.544 28.3136-10.24 63.488 7.936 85.9136-49.0496 7.3216-75.1104 108.544-11.4176 135.7312 0.8704-33.792 21.248-67.9936 49.0496-72.1408z" fill="#FFFFFF" p-id="4324"></path><path d="M931.0208 683.6224s-0.9216-3.2256-2.9184-8.9088l-4.8128-0.5632c5.0688 5.9904 7.7312 9.472 7.7312 9.472z" fill="#FCD25E" p-id="4325"></path><path d="M922.7264 674.0992c44.8512-54.2208 34.4064-151.2448-49.0496-149.1456 33.28-64.6656-27.904-107.52-70.5536-90.1632 0.5632 0 73.1136 19.9168 65.3824 114.688 30.0544 15.8208 55.552 51.6096 39.9872 131.1744a38.8608 38.8608 0 0 1-6.8096 19.456c-10.5984 22.6816-36.5056 44.7488-76.8 57.1392-245.248 200.8064-491.52 125.4912-621.4144 58.8288 66.56 47.872 385.536 250.2656 702.8224-9.5232 101.9392-31.2832 111.36-124.1088 16.4352-132.4544z" fill="#FFCB39" p-id="4326"></path><path d="M560.9984 946.2784a568.832 568.832 0 0 1-149.1456-20.48 677.376 677.376 0 0 1-223.744-108.288C128 831.1296 97.28 814.08 81.92 797.3376c-23.2448-25.9072-21.76-62.3104-12.5952-87.7568 7.68-21.2992 21.3504-37.5808 37.376-45.312a92.16 92.16 0 0 1-10.24-39.0656 10.24 10.24 0 0 1 20.48-0.768 66.8672 66.8672 0 0 0 13.4656 39.1168 10.24 10.24 0 0 1-6.5024 16.4864c-14.592 2.2016-28.16 16.128-35.4816 36.4544-8.96 24.9856-5.632 51.2 8.6016 67.1232 16.9984 18.8928 48.3328 23.3472 90.7264 13.0048a10.24 10.24 0 0 1 8.9088 1.9968A659.6096 659.6096 0 0 0 417.9456 906.24c174.5408 47.2064 336.5888 10.9568 481.5872-107.776a10.24 10.24 0 0 1 3.4816-1.8432c55.2448-16.896 77.6704-50.3296 75.1616-74.24-2.2016-21.0432-23.2448-35.328-56.32-38.2464a10.24 10.24 0 0 1-6.9632-16.6912 105.472 105.472 0 0 0 18.2784-33.2288 10.24 10.24 0 0 1 19.4048 6.5536 127.2832 127.2832 0 0 1-11.8272 25.6c33.792 7.3216 54.9888 26.7776 57.856 53.9648 4.7104 45.0048-41.728 80.7424-87.6032 95.3344-122.5216 99.6864-244.992 130.6112-350.0032 130.6112zM138.24 564.0192a10.24 10.24 0 0 1-6.2464-18.3296 81.2544 81.2544 0 0 1 30.72-14.7968A66.56 66.56 0 0 1 158.72 474.9824c9.0624-22.1696 30.72-36.7104 59.8528-40.96a80.1792 80.1792 0 0 1 34.816-60.9792C275.7632 358.4 305.664 355.2768 336.896 364.2368a56.32 56.32 0 0 1 19.2512-38.1952c9.3184-7.4752 30.0032-17.2032 63.5392 1.1264a10.24 10.24 0 1 1-9.8304 17.9712c-12.1344-6.656-29.0816-12.5952-40.96-3.1232a36.8128 36.8128 0 0 0-11.008 34.0992 10.24 10.24 0 0 1-13.7216 12.288c-29.7472-12.0832-59.5456-11.3664-79.6672 1.9968-16.7424 11.008-25.6 29.4912-26.1632 53.3504a10.24 10.24 0 0 1-9.6256 10.24c-26.0608 1.536-44.2368 11.8272-51.2 28.928a47.3088 47.3088 0 0 0 10.24 48.896 10.24 10.24 0 0 1-6.9632 17.0496 64.4608 64.4608 0 0 0-36.4544 13.1584 10.24 10.24 0 0 1-6.0928 1.9968zM939.3664 570.112a10.24 10.24 0 0 1-9.0112-5.4272c-10.6496-19.968-30.1056-30.1056-56.32-29.4912a10.24 10.24 0 0 1-8.9088-4.8128 10.24 10.24 0 0 1-0.4096-10.24c13.568-26.368 10.24-51.5072-8.5504-67.2256-17.6128-14.6432-42.1888-16.0256-58.4704-3.4304a10.24 10.24 0 0 1-15.9744-11.4176c7.5776-21.9136 3.7376-41.5232-10.24-52.5824a34.9184 34.9184 0 0 0-40.2944-2.2016 10.24 10.24 0 0 1-10.752 0 10.24 10.24 0 0 1-5.12-9.5744c2.2016-27.8016-27.904-49.3056-58.6752-58.3168-32.8192-9.5232-74.9568-7.0144-89.9584 21.1456a10.24 10.24 0 0 1-17.7664 0.5632A77.4656 77.4656 0 0 0 471.552 302.08a10.24 10.24 0 1 1-3.2256-20.48 98.5088 98.5088 0 0 1 89.1904 32.5632c24.1152-26.7776 68.1984-29.2352 104.9088-18.5344 44.032 12.8512 66.56 39.0656 72.1408 63.6416a55.6032 55.6032 0 0 1 49.5104 9.8816 59.4944 59.4944 0 0 1 21.6576 53.504 70.1952 70.1952 0 0 1 63.3856 14.2336c18.3296 15.36 31.7952 43.008 19.7632 78.1824a74.9568 74.9568 0 0 1 59.5456 39.6288 10.24 10.24 0 0 1-4.2496 13.8752 10.24 10.24 0 0 1-4.8128 1.536z" fill="#CE6B4D" p-id="4327"></path></svg>