<?xml version="1.0" standalone="no"?><!DOCTYPE svg PUBLIC "-//W3C//DTD SVG 1.1//EN" "http://www.w3.org/Graphics/SVG/1.1/DTD/svg11.dtd"><svg t="1755432720295" class="icon" viewBox="0 0 1024 1024" version="1.1" xmlns="http://www.w3.org/2000/svg" p-id="2446" xmlns:xlink="http://www.w3.org/1999/xlink" width="200" height="200"><path d="M427.9808 714.8032l-107.1104-65.7408-124.2112 129.5872a59.1872 59.1872 0 1 0-24.5248 99.9424 57.7024 57.7024 0 0 0-2.1504 15.36 59.1872 59.1872 0 1 0 101.376-41.216z" fill="#FFDFCA" p-id="2447"></path><path d="M126.4128 841.1648c0-32.7168 21.5552-56.832 54.272-56.832a67.9424 67.9424 0 0 1 43.8272 16.8448l128-126.2592-31.6928-25.6-124.16 129.3312a59.0848 59.0848 0 0 0-40.6016-16.1792c-32.6656 0-60.4672 26.5216-59.1872 59.1872 1.2288 31.3856 23.9104 50.7904 48.1792 58.1632-10.9568-10.752-18.6368-22.0672-18.6368-38.656z" fill="#FFFFFF" p-id="2448"></path><path d="M172.1344 878.592a1.7408 1.7408 0 0 0-0.8192 0zM186.88 898.2016c-1.8432-11.52-9.1648-19.6096-14.7456-19.6096a57.7024 57.7024 0 0 0-2.1504 15.36 59.1872 59.1872 0 0 0 40.6016 56.32l1.3312 0.4608c-10.9568-10.752-24.1664-22.3232-24.1664-38.912a113.3568 113.3568 0 0 0-0.8704-13.6192z" fill="#FFF1E9" p-id="2449"></path><path d="M132.608 870.4a59.4944 59.4944 0 0 1-12.1344-1.28l2.6112 1.9456a58.8288 58.8288 0 0 0 32.9728 10.24 59.4944 59.4944 0 0 0 16.0768-2.2528c3.1744-14.9504-33.8944-8.6528-39.5264-8.6528zM427.9808 714.8032l-107.1104-65.7408-2.2016 2.304L404.48 704.1024l-156.5696 137.8816a59.1872 59.1872 0 0 1-54.3232 99.3792A59.136 59.136 0 0 0 271.36 852.736z" fill="#EDBDA2" p-id="2450"></path><path d="M229.1712 963.584a69.4784 69.4784 0 0 1-69.4272-69.4272v-3.1744h-3.7888A69.2224 69.2224 0 0 1 87.04 828.7232a10.24 10.24 0 1 1 20.48-2.048 48.7936 48.7936 0 0 0 48.5376 43.7248 48.0768 48.0768 0 0 0 13.312-1.8944 10.24 10.24 0 0 1 12.6464 12.544 49.5616 49.5616 0 0 0-1.792 12.9024 48.9472 48.9472 0 0 0 97.8944 0 48.5376 48.5376 0 0 0-14.0288-33.792 10.24 10.24 0 0 1-2.9184-7.5776 10.24 10.24 0 0 1 3.4816-7.3216l146.176-128.9728L322.56 662.1184l-118.528 123.648a10.24 10.24 0 0 1-14.3872 0.3584 48.8448 48.8448 0 0 0-78.0288 15.0528 10.24 10.24 0 0 1-18.6368-8.5504 69.376 69.376 0 0 1 102.8096-27.8528l117.76-122.88a10.24 10.24 0 0 1 12.7488-1.6896l107.1104 65.792a10.24 10.24 0 0 1 1.3824 16.384l-149.1456 131.4304a69.376 69.376 0 0 1-56.32 109.7728z" fill="#CE6B4D" p-id="2451"></path><path d="M841.6768 687.9232C669.3376 829.696 355.9424 860.8768 276.8384 778.24c-29.7984-31.1296-44.4416-92.16-43.9296-165.12 0-6.6048 0-13.312 0.512-20.1216 0.512-12.1344 1.4336-24.576 2.7136-37.2224 11.9296-115.1488 56.32-247.2448 133.12-340.3264 48.128-58.2144 117.1456-111.36 184.6272-131.7888 56.7296 56.7296 351.744 343.9104 417.4336 409.6-18.9952 74.2912-74.8032 149.5552-129.6384 194.6624z" fill="#FF933B" p-id="2452"></path><path d="M402.4832 286.208c48.0768-58.368 110.4384-116.224 172.6464-144.4864 48.384 48.384 282.2144 277.0944 387.072 380.3136a259.4304 259.4304 0 0 0 9.1136-28.7744c-65.6896-65.6896-360.704-352.8704-417.4336-409.6-59.2384 17.8688-119.296 60.7744-165.5808 110.2848a437.69856 437.69856 0 0 0-18.9952 21.6064c-141.056 171.1616-173.312 474.112-93.952 561.152-30.0032-126.8224 12.9024-351.744 127.1296-490.496z" fill="#FFFFFF" p-id="2453"></path><path d="M971.3152 493.2608l-7.4752-7.4752-1.2288-1.2288-3.2256-3.2256-0.9728-0.9216-3.5328-3.4816c-0.5632-0.6144-1.1264-1.1776-1.7408-1.7408l-3.1232-3.072c-0.6656-0.6656-1.28-1.3312-1.9456-1.9456l-3.3792-3.328-1.9968-1.9456-11.776-11.6224c-23.1424 67.072-73.5744 132.5568-123.1872 173.3632C675.84 735.3344 419.84 790.9888 272.6912 773.6832c1.3312 1.6384 2.7648 3.1744 4.1472 4.6592 51.2 53.4528 200.6528 59.1872 346.4704 18.1248 16.0768-5.12 32-10.24 47.616-16.0256q12.2368-4.4544 24.1152-9.3184c55.7056-22.4768 106.5472-50.3296 146.3296-82.944h0.3072c54.8352-45.3632 110.6432-120.6272 129.6384-194.9184z" fill="#F97C3A" p-id="2454"></path><path d="M357.5296 240.64a10.24 10.24 0 0 1-8.1408-16.4352c3.8912-5.12 7.936-10.24 11.9808-15.36a10.24 10.24 0 0 1 15.8208 13.0048c-3.84 4.7104-7.7312 9.6256-11.4688 14.592a10.24 10.24 0 0 1-8.192 4.1984zM237.4656 554.2912h-1.2288A10.24 10.24 0 0 1 227.328 542.72a715.4176 715.4176 0 0 1 83.4048-259.2768 10.24 10.24 0 0 1 17.8688 10.24 693.248 693.248 0 0 0-80.9472 251.5968 10.24 10.24 0 0 1-10.1888 9.0112zM438.9376 833.6896c-75.6224 0-138.24-15.8208-169.472-48.2304-31.8464-33.28-48.4352-97.28-46.6944-180.3776a10.24 10.24 0 1 1 20.48 0.4096c-1.6384 76.4928 13.312 136.9088 40.96 165.7856 61.44 64.256 274.688 53.4528 438.528-22.1184a10.24 10.24 0 1 1 8.6016 18.5856c-94.3616 43.52-202.4448 65.9456-292.4032 65.9456zM793.9072 732.5696a10.24 10.24 0 0 1-5.4784-18.8928 471.04 471.04 0 0 0 46.7456-33.6384c58.368-48.0768 106.8032-119.552 124.7232-183.7056-37.12-37.0176-128.8704-126.7712-217.7536-213.6064-82.2272-80.4352-160.1536-156.6208-191.0784-187.4432a356.6592 356.6592 0 0 0-112.384 65.1776c-9.4208 7.8336-18.8416 16.1792-27.5456 24.7808a10.24 10.24 0 1 1-14.2848-14.6432c9.2672-9.0112 18.944-17.7152 28.7744-25.9072 40.96-33.9456 84.2752-58.4704 125.2864-70.8096a10.24 10.24 0 0 1 10.24 2.56c27.2384 27.2384 108.9024 107.0592 195.328 191.6416 92.416 90.3168 188.0064 183.808 222.1056 217.9072a10.24 10.24 0 0 1 2.6624 9.7792c-17.6128 69.4784-69.8368 148.0192-133.12 200.0896a489.5232 489.5232 0 0 1-48.7936 35.1232 10.24 10.24 0 0 1-5.4272 1.5872z" fill="#A04947" p-id="2455"></path><path d="M685.628286 366.665198a293.4784 100.864 45 1 0 142.643237-142.643237 293.4784 100.864 45 1 0-142.643237 142.643237Z" fill="#FDD3BC" p-id="2456"></path><path d="M586.752 125.1328c37.2224-37.2224 150.784 15.36 259.8912 117.76-5.9904-6.3488-12.0832-12.6976-18.3808-18.944C713.6768 109.4144 588.8 48.4352 549.4272 87.8592s21.5552 164.1984 136.192 278.8352q9.4208 9.4208 18.944 18.3296c-102.6048-109.1072-155.0336-222.6176-117.8112-259.8912z" fill="#FFFFFF" p-id="2457"></path><path d="M828.2624 224.0512c-5.12-5.12-10.24-9.9328-15.36-14.6944C918.2208 319.6416 972.3392 435.2 934.656 473.088s-153.6-16.4864-263.7312-121.4976c4.8128 5.12 9.6768 10.24 14.6944 15.36 114.5856 114.5856 239.4112 175.5648 278.8352 136.192s-21.6064-164.5056-136.192-279.0912z" fill="#FCBE9F" p-id="2458"></path><path d="M718.008551 334.242003a193.1264 58.0608 45 1 0 82.110371-82.110371 193.1264 58.0608 45 1 0-82.110371 82.110371Z" fill="#FA8B76" p-id="2459"></path><path d="M800.1536 252.1088c-3.7376-3.7376-7.4752-7.3728-11.264-10.9568 68.5056 71.68 106.0864 144.7936 84.5312 166.3488s-94.4128-16.0256-166.3488-84.5312c3.584 3.7888 7.2192 7.5264 10.9568 11.264C793.6 409.6 873.0112 452.4032 895.6416 429.7216S875.52 327.68 800.1536 252.1088z" fill="#F27564" p-id="2460"></path><path d="M743.351258 308.899296a73.984 22.2208 45 1 0 31.424957-31.424957 73.984 22.2208 45 1 0-31.424957 31.424957Z" fill="#FDD3BC" p-id="2461"></path><path d="M777.5744 280.32c18.2784 22.528 27.136 43.008 20.48 49.92-8.704 8.6528-39.168-7.7312-68.0448-36.608l-2.9696-2.816c4.864 5.9392 10.24 12.032 16.3328 18.0736 28.8768 28.928 59.3408 45.2608 68.0448 36.608s-6.7072-37.1712-33.8432-65.1776z" fill="#FCBE9F" p-id="2462"></path><path d="M930.048 524.9536c-22.0672 0-49.664-7.7312-81.3056-23.2448-53.6576-26.1632-114.176-71.68-170.3936-128a787.8656 787.8656 0 0 1-90.1632-107.0592 10.24 10.24 0 1 1 16.8448-11.6224 770.5088 770.5088 0 0 0 87.808 104.3968c54.6816 54.6816 113.2032 98.6624 164.864 123.904 47.0528 22.9888 84.224 27.5456 99.4816 12.288s10.6496-52.7872-12.6464-100.1984a10.24 10.24 0 1 1 18.3808-9.0112c28.16 57.2928 31.2832 101.2224 8.7552 123.6992-9.9328 9.9328-24.0128 14.848-41.6256 14.848zM920.8832 345.1904a10.24 10.24 0 0 1-8.4992-4.5056 344.1152 344.1152 0 0 0-10.24-14.4896 10.24 10.24 0 0 1 16.64-11.9808c3.584 5.12 7.0656 10.24 10.24 15.0016a10.24 10.24 0 0 1-8.4992 15.9744zM879.7184 290.56a10.24 10.24 0 0 1-7.8848-3.7376c-15.6672-18.7904-32.768-37.5296-50.7904-55.552C766.3616 176.64 707.84 132.608 656.128 107.52c-47.0016-22.9376-84.1728-27.5456-99.4816-12.288C539.0848 112.64 547.84 158.72 579.7888 215.04a10.24 10.24 0 0 1-17.8688 10.24c-38.1952-67.7376-45.2096-119.0912-19.7632-144.5376 22.4256-22.3744 66.0992-19.4048 122.88 8.3968 53.6576 26.2144 114.176 71.68 170.3424 128 18.5344 18.4832 35.84 37.6832 52.0704 56.9856a10.24 10.24 0 0 1-1.3312 14.3872 9.8816 9.8816 0 0 1-6.4 2.048z" fill="#A04947" p-id="2463"></path></svg>